<svg xmlns="http://www.w3.org/2000/svg" viewBox="0 0 744.77 1071.74"><defs><style>.cls-1{fill:#2f2b2b;}.cls-2{fill:#f3f2ef;}.cls-3{fill:#38383a;}.cls-4{fill:#f5dc6c;}.cls-5{fill:#bfdce9;}.cls-6{fill:#f1c7a8;}.cls-7{fill:#9e8790;}.cls-8{fill:#8f734e;}.cls-9{fill:#6e5446;}.cls-10{fill:#2e3d53;}.cls-11{fill:#e0d7ca;}.cls-12{fill:#a5652f;}.cls-13{fill:#798191;}.cls-14{fill:#a28152;}.cls-15{fill:#9d746b;}.cls-16{fill:#fefefe;}</style></defs><g id="Layer_2" data-name="Layer 2"><g id="Layer_1-2" data-name="Layer 1"><path class="cls-1" d="M448.86,1071.74c-.57-1.56-1.93-1-3-1-36.78-1.4-73.55-3.22-110.35-3.94-16.77-.32-33.57,1.7-50.37,2.39-16.64.68-33.29,1-49.94,1.49-1.41,0-3.29.75-4.16-.72-1-1.69.58-3.14,1.41-4.48,5.89-9.56,14.07-16.8,23.46-22.76,12.81-8.12,26.88-13.09,41.69-15.92,3.1-.6,4.65-1.68,4.86-4.91a78.56,78.56,0,0,1,1.32-9.39c.49-2.69.23-4.83-2.6-6.17-2.49-1.18-2.75-3.31-2.29-5.9q10.17-56,20.21-112c1-5.3,4.24-9.36,7.42-13.41,15.26-19.41,32.36-37.19,49.32-55.08,6.87-7.24,8.3-15,4-24s-8.81-17.55-13.15-26.35a5.87,5.87,0,0,0-4.82-3.68c-46.94-6.89-94.08-9.6-141.5-7-2.44.13-3.69.88-3.95,3.3-1.45,13.6-8.89,24.53-15.9,35.66-36.81,58.45-74.24,116.49-113.33,173.45-1.22,1.79-2.64,3.44-3.77,5.29-2.23,3.66-5.35,5.49-9.61,4.66-2.49-.48-3.77.43-4.48,2.64a1.45,1.45,0,0,1-.22.45c-7.38,9.86-5.17,20-1,30.27a7.45,7.45,0,0,0,3.21,3.58c17.13,11.18,25,27.81,27.88,47.42.64,4.34-2.37,5.05-5.22,6.16H25c-3.2-2.19-7-1.35-10.44-1.66-5-.43-7.83-2.92-9.6-7.34-5.42-13.51-4.93-27.12.13-40.43,4.43-11.68,10.06-23.15,17.78-32.76,5.39-6.71,7.56-14.49,11.76-21.45.7-1.17,1.78-2.59.34-4.05-3.27-3.28-1.46-6,.52-9.21,37-59,74.54-117.71,110-177.69,1.66-2.8,3.21-5.67,5.17-9.15-10.65,1.79-20.14,4.69-30.57,7.34,2.38-12.2,4.65-23.85,6.93-35.5l2.15,1c0,5.09-2.75,9.69-2.53,14.8,1,.58,1.41-.31,1.8-1,13.1-23.8,31-43.91,48.43-64.52,38.75-45.94,74.47-94.23,110.2-142.5,7.55-10.2,7.51-10.14-4.22-15.31-2.37-1.05-3.31-.86-4.15,1.77-2.13,6.64-4.61,13.17-6.95,19.75l-1.5-.13c1.81-5.88,3.42-11.83,5.49-17.62,1.58-4.43,1.34-7.5-3.86-8.93a18,18,0,0,1-5.24-2.83c-1.47-1-3.16-2.29-2.39-4.45a5.17,5.17,0,0,1,4.1-3.29,14.46,14.46,0,0,1,7.41.41c5,1.73,5.77-.49,6.63-4.89,1.23-6.27.35-11.06-4.54-15.56-4.38-4-8-8.92-11.81-13.52-2.47-3-4.57-6.16-5.29-10-.27-1.47-.32-4.09.9-3.92,3.14.43,6.35-2,9.45.68,4.24,3.64,8.81,6.9,14.09,11-.43-3.06-.59-5.15-1-7.17-1-4.61-.06-8,4-11.19,11-8.64,21.52-17.83,32.35-26.66,2.41-2,3.43-3.61,2.76-7.05-3.74-19.26-7.29-38.56-9.52-58.08a8.81,8.81,0,0,1,2.77-7.87c17.87-18.67,34.24-38.55,47.82-60.61l12.83-19.06,1.07.62c-3.2,8.19-7.89,15.63-12.33,23.2-13.3,20.88-29.05,39.8-46.16,57.61-1.94,2-3.1,3.83-2.57,6.93,3.36,19.52,6.43,39.09,9.74,58.62a5.26,5.26,0,0,1-2,5.55c-11,9.64-21.84,19.59-33.63,28.31-4,2.95-5.9,5.82-4.21,10.64,1.14,3.22-.49,7.34,2.39,9.89,7.43,6.61,15.12,12.94,23.05,19.68,2.8-6.45,5.66-12.59,8.16-18.88,21.3-53.57,37.6-108.78,53.52-164.12a7.9,7.9,0,0,0,.3-3.91c.4-.52,1-1,1.16-1.56q7-25.45,14-50.91c.64-2.31-.21-4.08-1.75-5.87-6.05-7-13.48-12.31-20.78-17.8-4.41-3.32-8.69-6.8-11.35-11.72a14.48,14.48,0,0,0-6.51-6.57c-25.8-19.12-52.39-37.13-78.43-55.9A159.75,159.75,0,0,0,221.32,143c-39.73-11.63-79.14-24.34-118.61-36.86-4.3-1.37-5.74-.39-6.92,3.59-2.05,6.89-4.08,13.72-3.53,21-.45,4.52,1.64,6.63,6,8,37.92,11.76,75.8,23.69,113.19,37.07,8,2.84,16,5.39,22.71,11.06q28.69,24.39,57.67,48.45c9,7.5,17.35,15.9,27.22,22.4l0,0c-.15.66.24.95.77,1.16,2.81,2,2.1,3.92.38,6.54-20.12,30.56-41.52,60.22-62.74,90C241.53,378,226.19,401,208.27,422l-.34-3.11c28.46-36.53,52.81-76,80.17-113.26,9.65-13.16,18.83-26.65,28.38-39.87,1.87-2.59,2.16-4-.62-6.3q-40-33.49-79.8-67.36a67,67,0,0,0-21.54-12.16c-39.32-14-79.11-26.6-118.94-39-3.51-1.1-6.11-2.37-5.93-6.59.09-2.16-1.32-3.11-3.27-3.78a32.74,32.74,0,0,0-9.75-1.89c-17.55-.5-33.19-5.33-46.08-18.23C20.21,100.08,9.23,90.39,0,79V75c3.13-2.22,6.08-.65,9,.56,7.79,3.28,14.2,8.57,20.37,14.21C31.24,91.49,33.4,93,36,91.19s2.54-4.51,1.42-7.18q-1.94-4.59-4.09-9.1C25.16,57.8,16.05,41.14,8.54,23.71A31.71,31.71,0,0,1,5.85,9.62c.06-1.43.05-3.77,1.92-3.33,2.42.57,2.2-.35,2.29-2A26.37,26.37,0,0,1,11,0h3c3.33,4.44,6.69,8.85,10,13.31,20.27,27.47,39.34,55.77,58.52,84,2.4,3.53,5.07,6.55,9.27,8,1.4.47,2.62,1,3.12-.92.77-3,2.54-2.67,4.93-1.93,48.26,15,96.36,30.55,144.83,44.89,3.26,1,6.25,3.09,9.15,5,32.83,21.6,64.63,44.67,96.5,67.62,4.08,2.94,7.87,3.65,12.52,2.3s9-3.26,14.62-3.31a167.84,167.84,0,0,0-24.07-28.61c-3.25-3.11-6.6-6.11-9.84-9.23a31.71,31.71,0,0,1-6.27-8.36c-2.5-4.86-2-5.71,3.34-5.63,10.39.16,20.47-2.52,30.74-3.45a82.52,82.52,0,0,1,13.67-.29c-9.72-18.79-12.38-38.91-15.73-58.85-.19-1.15-.27-2.32-.53-3.46-.77-3.52.58-4,3.73-3.07,11.68,3.58,22.91,8,32.64,15.66,3.5,2.76,7.25,5.18,11.45,8.16,1-7.8,1.61-15,2.8-22.08,3.74-22.24,11.8-43.3,17.7-65,1.31-4.81,2.58-9.64,3.71-14.5.64-2.79,2-3.67,4-1.41,15.09,17.56,33.5,32.06,47.13,51,3,4.17,5.65,8.62,8.59,13.13,19.57-21,44.2-36.76,62.31-59.42.75-.95,1.31-2.62,3-2s1.26,2.25,1.5,3.47c5.89,29.75,8,59.7,4.77,89.93-.15,1.47-.28,2.94-.46,4.83,5.48-1,10.62-1.9,15.77-2.75,12.28-2,24.61,1.16,36.91-.25,2.3-.26,2.34,1,1.89,2.79a68.94,68.94,0,0,1-6.45,16.72c-7.68,14.19-15.5,28.3-23.31,42.42-1.12,2-2.6,3.86-3.74,5.89-1.48,2.62-5.58,4.61-4.63,7.35.78,2.25,4.46,3.75,7.12,5.06,9.62,4.74,14.46,14,21,21.66,1.8,2.08-.26,2.93-1.49,3.85-8.14,6.1-16.61,11.65-26.11,15.47a231.8,231.8,0,0,0-24.49,11.17c-2.31,1.25-2.94,2.05-.67,4.17,5.22,4.85,9.57,10.72,16.2,13.92,2.52,1.21,2,2.53.34,4.09-4.08,3.76-9.12,5.44-14.35,6.59-13.33,2.91-26.62,6.31-41.44,4.78,2.66,5.24,4.75,9.82,8.13,13.71.73.84,2,1.59,1.28,2.94s-2.07.84-3.14.79c-9.66-.51-19.33-1.26-28.54-4.31-3-1-4.31.17-5.87,1.9-2.08,2.3.69,3.14,1.58,4.33a54.79,54.79,0,0,0,5.1,5.47c.57.59,1.57,1.62,1.87,1.47,5.29-2.73,6.54,2.29,8.64,4.76q42.29,49.67,80.88,102.26c3.88,5.26,7.3,10.66,8.37,17.33,1.72,10.68-6.66,19.15-17.34,17.23-6.72-1.21-12.37-4.73-17.91-8.47-27-18.24-54.7-35.53-80.41-55.69-5.35-4.2-11.37-7.54-17-11.37-2.54-1.72-3.62-2-4.19,1.85-5.49,36.7-11,73.4-16.93,110-5.41,33.33-11.39,66.58-17.13,99.87-.8,4.63.87,6.67,5.46,6.16,2.11-.23,3.45,1,5,1.85,14.28,7.92,27.53,17.46,41.26,26.26,2.07,1.33,4.16,2.63,6.82,4.32-.75-7-2.07-13.31-2-19.63a59.5,59.5,0,0,0-3.85-22.26c-5.69-15.26-6.32-30.83-.71-46.45a86.91,86.91,0,0,0,3.52-14c1.52-8.43,5.43-15.36,12.34-20.41a107,107,0,0,0,21.83-21.1,25.69,25.69,0,0,1,16.25-10c14.93-2.47,30.07-4.88,45.15-3.46,10.79,1,21.47,1.94,32.31,1.74,21.29-.38,36.82,10.32,48.45,27,6.57,9.44,13.08,18.84,20.78,27.41a29.4,29.4,0,0,1,7.74,22c-.62,10.64-.9,21.32-2.14,31.88-1.15,9.92-5.6,17.86-16.68,19.63-1.94.32-1.94,1.43-2,2.76a74.79,74.79,0,0,1-4.9,24.36c-1.22,3.15,1.12,3.28,2.7,4.12q25.59,13.5,51.19,27c9.28,4.91,18.86,9.48,24.64,19v9c-5.14,7-12.59,10.31-20.48,12.94-19.43,6.49-39.33,11.23-59.23,16-1.93.46-3.85.33-3.51,3.49.28,2.59-2.59,2.07-4.09,2.41q-29.18,6.72-58.42,13.12a11.23,11.23,0,0,0-7.53,5c-12.18,18.09-23.31,36.84-34.84,55.33-.76,1.2-2.21,2.61-.34,3.84,4.48,2.95,2.7,6.85,1.33,10.24-1.45,3.57-1,6.27.76,9.65,1.68,3.13,6,6.63.87,10.82-1,.83,1.34,1.91,2.24,2.68,11.8,10,23.73,19.9,35.48,30,14.15,12.15,27.75,24.92,41.36,37.68,9.5,8.91,11.85,18.69,9.27,31-6,28.9-15,56.91-24.36,84.83-.67,2-1.53,3-3.79,3.07-7,.31-4.09,6.5-5.18,10-1,3.15,3.06,2.18,4.68,2.53,19.42,4.2,37.59,11.16,53.55,23.27a71.2,71.2,0,0,1,13.89,13.58c1,1.36,3.16,2.7,2.13,4.64-.87,1.63-3,.8-4.6.77q-46.22-.7-92.38-2.87c-5-.24-10-.78-15-1-3.13-.11-4.6-1.32-4.34-4.55a230.86,230.86,0,0,1,5.51-35.48c.84-3.51,4.07-6.1,4.41-10.16.2-2.41.17-3.61-2.25-4.49-4.12-1.49-5.45-4-4.44-8.81,4.31-20.68,7.93-41.5,12.08-62.22.9-4.53,0-7.68-3.25-11q-33-33.84-67.68-65.86a16.23,16.23,0,0,0-11.24-4.36c-18.31-.61-36.62-1.08-54.95-.94-2.23,0-4.29.26-6.1,1.66-.13.1-.3.14-.44.23-6.91,4.33-15.16,7.46-20.35,13.32s-4.81,15.23-6.82,23.06c-7.54,29.49-15.08,59-22.25,88.57-1.36,5.62-3.86,8.35-9.58,7.78-3.21-.31-4.81.78-5.26,4.22-.59,4.57-4.29,9.92-2.29,13.26,1.72,2.89,7.94,3.1,12.17,4.48,23.17,7.52,44.71,18,63,34.47a85.62,85.62,0,0,1,10.6,11.27c3.43,4.44,2.61,8.06-2.28,10.49Zm97.58-490.48,1.08.45-.36-1.17-1-.44C546.23,580.49,546.34,580.88,546.44,581.26Zm-277-110c-.43-.07-1.08-.35-1.25-.17-.43.45,0,.82.44,1.08l1.61,1.31q1.71,1.33,3.44,2.65c.38.53.82,1.12,1.48.46.14-.14-.22-.78-.35-1.2l-3.58-2.84ZM547.16,572.58c-.3-.41-.24-1.49-1-1-.56.35-.14,1.13.32,1.62.24,1.06.28,2.26,1.62,2.59a.8.8,0,0,0,.64-.47C548.82,574.09,548,573.34,547.16,572.58ZM503.93,248l-1.09-1.53c-1.06-2-2.13-3.91-3.3-6.06-2.2,3.17-.27,6.86-2.6,9.46-3.05-12.29,5-26.74,15.28-27.24-1.68,1.64-4.2,2.19-5.3,4.42-7,6.77-7.63,10.44-2.59,17.52a28.79,28.79,0,0,0,18.94,11.8c6.59,1.24,8.37.33,10.89-6.07,5.7-7.08,3.85-15.15,2.68-23,2.26-.41,2.2,2,3.85,2.36,1.87-2.66,3.91-5.25,4.9-8.48,1.93-2.39-.12-2.14-1.55-2.4-6.13-1.09-11.52-3.91-16.93-6.84-16-8.72-27.75-21.69-37.09-37.07l-.85-1.15L481,156c.41-3.61,1.23-7,5.31-8.18,3.87-1.1,6.73.91,9.33,3.43a51.07,51.07,0,0,1,7.15,9.58c4.45,7,8.76,14.15,13.42,21,4.54,6.71,10.21,12.23,17.91,15.39,6,2.45,12,4.71,17.16,9.18,1.88-3.62,2.4-7.23,3.1-10.76,6.17-31-9-59-37.43-68-24.32-7.7-44.84-.37-62.17,17.41-15.44,15.83-25.55,35.19-36.15,54.42-3.72-2-7.64-4.37-12.52-4.72-4.36-.31-7.53.82-9.33,4.82s-1.33,7.57,1.94,10.47a65.33,65.33,0,0,0,8.29,6.36c2.82,1.78,2.2,3.77.19,4.93-3.71,2.14-4.87,5.54-5.85,9.22a65.41,65.41,0,0,0-7.83,44.24c4.38,26.33,23.9,44,50.48,47.2,6.94.84,13.73,1.3,21-1.73-6.84-5.57-12.57-11.56-15.71-19.11-2.73-6.57-7.9-9.91-13.34-13.35-3-3.18-5.05-8.26-11-5-.21.11-.78-.44-1.18-.68l1.09-1.17c2.15-.41,3.66-1.06,1.6-3.46-3.85-4.47-6.62-9.64-9.24-15.18-2.83,5.62-2.83,5.62-1.18,9.61l-1.71.28c-2.74-2.93-1.17-6,.08-8.76,1.37-3,1.95-5.86.74-9-.29-.73-.79-1.89,1.23-2.47,2.44,10.85,7.87,20.08,15.34,28.15,3.84,3.2,7.13,7.1,12.56,9.94-4.66-12.72-6.66-25.29-11.41-37,0-2.93-1.63-5.35-2.55-8-.6-1.69-.28-2.55,1.57-2.61,3.06-.1,7.22,3.91,8,7.65-2.55-1.18-3.47-4.68-7.21-5.12a187.83,187.83,0,0,1,8.45,26.82c1.78,7.2,3.42,14.46,7.18,21,1.82,8.38,6.91,14.8,12.65,20.77,3.47,3.62,7.44,6.4,12.94,5.11-.7,1.5-3.49,2.45-1.8,4.52,2.57,3.18,4.62,6.87,8.15,9.17.2.13,1.06-.65,1.53-1.09q9.81-9.15,19.58-18.35c.63-.6,1.95-1.28.7-2.31-3.92-3.23-6.63-7.73-11.09-10.36-.1-2.84,1.62-5.62.24-8.49a22.54,22.54,0,0,0,.59-3.41,828.77,828.77,0,0,0-2.94-95.33c-.07-.76.06-1.73-1.77-1.78-2.3,16.31-3,32.81-4.32,49.32-.85-17.18-1-34.35-4.91-51.17-3.15,18-4,36.12-5.41,54.23-1.08-18,0-36.11-4.37-55-2.69,19.41-3.85,37.8-5.15,56.27-1.27-17.07-.18-34.3-4.79-52.29-2.56,25-3,48.81-3.12,72.62,0,2.39,1.12,3.67,2.75,4.9.77,3.57,5,5.7,4.14,9.94-4.69-5.67-9.43-11.31-14-17.05-1.38-1.73-3.34-3.25-3.24-5.85,3.78,1.13,4.53,5.81,8.22,7.31,0-15.18,0-30.07,0-45,0-1.59-.74-2.84-1.16-4.25l.31-1.69c1.49.23,1.52-.78,1.58-1.82.21-3.39.45-6.77.68-10.24-2.7,2.72-2.93,3.11-4.33,7.32l-.42,1.94c-.76-.05-1.55-.05-1.9-.93a2.53,2.53,0,0,1,.08-2.84c1.94-2.63-2.62-9.2,5.06-8.41.51.05,1.45-1,1.65-1.73.6-2.06.85-4.21,1.37-6.29.57-2.29-.21-6.18,2.39-6.32s1.29,3.87,2.37,5.8c.54.95-.39,3,1.82,2.68a2.78,2.78,0,0,0,2.51-2.64c.38-2.95,1-5.89,1.56-8.82.18-.87.07-2.23,1.48-2.15s1.33,1.37,1.5,2.27c1,5.24,1.95,10.51,2.92,15.77,1.58-5.8,2.54-11.63,3.56-17.46.19-1.09.3-2.54,1.87-2.43,1.3.08,1.16,1.44,1.34,2.34,1.13,5.84,2.2,11.69,3.29,17.53h.63l3.3-23,2.36.07c.27.39.54.79.8,1.19.28,2.5.55,5,.83,7.5,2.33,13.34,3,26.85,4.42,40.28,0,1.76-.35,3.55.72,6,1.19-2.27,2.72-3.75,2.28-6.15,1.25-1.23,1.67-3,2.5-5.29,1,5.73.52,9.72-2.66,13.3-2.37,2.67-2.77,5.43-2.62,8.62.1,2.15.13,4.31.15,6.47.19,16-.16,32.07-1.17,49.3a234.68,234.68,0,0,0,18.94-21.15c-3-.57-5.69-.3-8.19-2,5.17-.7,11,1.3,13.89-5.41h-4.52c3-3.25,8.06-3.14,11.17-6.56a9,9,0,0,0-5.84-1.23l-12.51-7.06,0,0c0-.72-.3-1.08-1-1l0,0c-.09-1.43-1.2-2.15-2.07-3ZM282.58,484.22c.39.38.66,1.17,1.38.63s.2-1-.21-1.45l-6.53-5.82c-.37-.39-.65-1.15-1.35-.62s-.12,1,.25,1.41Zm150.65,48.44a8.88,8.88,0,0,0,.29,6c.49-2.6.81-4.29,1.13-6,2.61-13.71,6.11-27.2,9.87-40.63a21.87,21.87,0,0,0,.49-10.76c-2.39-11.37-4.37-22.82-6.66-34.22a16.28,16.28,0,0,1,.55-9.24c5-13.38,9.64-26.86,14.67-40.22a28.69,28.69,0,0,0,1.14-15.61c.71-17.71,0-35.48,1.88-53.13l1.48,0v54.1c1,8.76-2.19,16.63-5.18,24.56-2.57,6.84-4.41,14-7.56,20.57-4.64,9.69-5,19.27-2.17,29.42,1.61,5.81,2.43,11.85,3.61,17.78,3.16-15.08,5.61-30,7.89-44.93,2.39-15.77,4.61-31.56,6.91-47.34.8-3.89,2.09-7.77,1.27-11.77-.29-1.44-1.52-2.74.17-3.93s2.76.34,4,1.05a27.52,27.52,0,0,1,2.49,1.65c33.22,24.46,66.73,48.5,101.85,70.18,3.68,2.27,7.18,4.86,11.38,6.14,7.59,2.32,13.74-.06,16.13-6.18,2-1.44,1.47-3.53,1.3-5.46-.64-7.28-4.36-13.21-8.69-18.75-20.07-25.71-39.75-51.72-60.76-76.67q-10.79-12.79-21.64-25.51c-.8-.93-1.57-3.29-3.37-1.37-2.59,2.76-6.08,4.7-7.63,8.39-6.29,3.85-10.74,9.79-16.39,14.35-2.75,2.22-2.53,3.61-.22,6.19,17.48,19.41,35.55,38.33,50.83,59.62,1.19,1.65,2.78,3.14,3.18,5.27-1.42.53-1.88-.3-2.4-.86-19.81-21.16-37.5-44.14-56.78-65.75-.81-.91-1.72-2-.42-3,2.77-2.11.59-3.37-.47-5.17-3.92-6.66-8.12-10.44-16.91-7-6.53,2.55-8.22,3.09-9.38,10.29-1.73,10.71-4.41,21.27-5.78,32-.44,3.49-2.39,7.23-.54,10.94-3.49,4.72-1.39,10.25-2.12,15.37a520.93,520.93,0,0,0-4.52,52.18C435,474.46,434.18,503.56,433.23,532.66Zm130.66,39.16a1.64,1.64,0,0,0-2.13-1c-2.29-2.66-5.19-3.94-9.89-4.5C561.64,577.92,574,585,583.34,595.2c-11.49-5.9-20.11-15.7-31.14-22.22,6.38,10.1,16.61,16.17,24.92,24.27-10.42-5.24-19.26-12.57-27.79-20.36,5.74,11.23,16.86,16.93,25.33,25.36-10.1-4.71-18.11-12.13-26.82-20.61.27,3.49,1.81,4.6,3,5.83,5,5.14,10.08,10.13,15.52,14.8,7.34,6.31,14.33,13.1,25.17,11.91.56.14,1.52.52,1.61.38.48-.79-.43-.88-.84-1.22q-1.51-3.54-3-7.07l.91-1.25c4.71,9.05,12.64,12.65,22,13.86-4.64,1.52-8.78-.36-13-.33-.26-.35-.55-.68-.93-.15,0,0,.36.34.55.53.1.57.19,1.15.29,1.73l-.3.3c-1.91-1-3.72-2.52-5.74-2.86-8.37-1.45-16.53-3.43-24.26-7.11-1.34-.64-3.63-1.33-4.54.38-1,1.87,1.18,3,2.42,3.79,10.39,6.89,20.78,13.87,32.09,19.12,6.25,2.9,13.12,4.22,19-1.65.5-.5,1.36-1.32,1.56.28.28,2.25,2.41,2.61,3.79,3.57,19.93,13.87,40.37,27,60.83,40,1.13.72,2.7,1.12,2.75,3.34-3.51-.88-5.89-3-8.62-4.46-1.45-.77-2.79-1.69-4.64-1.37-4.91.84-9.82,1.66-14.77,2.23-3.45.4-4.37,1.84-3.61,5.25,1.76,7.94,3.38,15.92,4.63,24,.62,3.92,2.08,5,5.93,4.14,16.4-3.53,32.81-7.06,48.86-11.94,8.49-2.59,17.51-4.25,24.4-10.63,4.45-4.35,5-7.73,2-12.77-2.55-4.29-6.41-7.13-10.64-9.57-20.93-12-42.48-22.91-64-33.81-27.76-14.08-55.55-28-80.93-46.32a124.92,124.92,0,0,0-21.35-12.76ZM16.73,33.19c1.26,6.14,4.94,11.2,7.57,16.72,5.35,11.28,11.53,22.16,16.07,33.82,1.49,3.83.74,7.34-2.64,9.8-3.57,2.59-6.87,1.36-10-1.25C24,89.06,20.2,85.73,16.13,82.85A35.84,35.84,0,0,0,2.25,76.6c2.05,2.68,3.08,4.17,4.26,5.54,9.34,10.91,20,20.42,30.69,30,7.35,6.62,15.78,10.21,25.34,11.94,6.57,1.19,13.27,1.09,19.81,2.25,7.12,1.25,7.08,1.51,7.62-6a20.58,20.58,0,0,0-.11-2.48c.59-1.35,1.17-2.71,1.78-4,1.49-3.27,1.59-5.6-2.78-6.88-3.94-1.16-6.34-4.61-8.62-8C60.44,69.86,40.71,40.68,19.77,12.34c-1.94-2.62-4-5.11-6.08-7.66A19.37,19.37,0,0,0,17.17,17c8.61,12.22,16.95,24.62,24.06,37.79l-.86.82L9.62,11.17a11.2,11.2,0,0,0-.21,6.35C10.92,23.16,14.21,28,16.73,33.19ZM553.31,599.41c3.29.7,5.75,3.4,9.18,3.8.33.36.69.71,1.1.12,0,0-.4-.4-.61-.61-5.13-5.19-10.29-10.34-15.37-15.58-2.83-2.92-4.86-6.3-5.05-10.52,1.14-4.07,2.29-8.14,3.62-12.84-3,1.83-5.53,3-6.53,5.94-6.73,5.91-6,12.23.22,18.95-3.59-.45-3.74-3.47-5.88-4-1.14,4.92,1,9.54.79,14.31-5.16-7.72-4-23,2.34-32,4.9-6.89,11.86-9.66,19.51-7.64-2.46,1.43-5.64,1.24-8.56,4.57,7.5-2.37,12.42.92,17.28,4,8.14,5.17,16.1,10.63,24.21,15.85,1.89,1.22,4,3.9,5.93,2.84s.53-4.29.83-6.54c0-.2.41-.35.64-.53a2.28,2.28,0,0,1,1.33,2.42c-1.11,7.94,4.62,10.73,10.09,13.81a44.42,44.42,0,0,1,6.71,4.33c2.64,2.18,4.66,2.23,7.15-.34a8,8,0,0,1,6.51-2.5c.21,1.16-.4,1.4-1,1.76-1.92,1.19-4.92,1.77-4.8,4.48.12,2.86,3.15,3.59,5.32,4.71q14.19,7.31,28.45,14.5c4.14,2.1,6.91,1.11,7.74-3.39,1.44-7.87,3.88-15.52,4-23.71.08-5.26-2-7-6.58-7.9-4.83-.94-9.78-.55-14.59-1.77,6.82-2.44,13.56-1.06,20.65,1.12-.28-2.24-.4-3.88-.7-5.49-4.13-21.78-16.4-38.06-34.92-49.47C611,519,587.53,514.71,562.8,518.23c-17,2.43-31.84,9.4-42.74,23.3-1.44,1.83-3,3.62-1,6.39-18.89-4.66-26-1.72-27.66,11a15.9,15.9,0,0,0-.62,2.32c-.81,7.46,3,13.15,7.18,18.71-2.64.1-3.38,2.06-4.14,4.11-3.69,10-3.33,20.24-1.49,30.53a6.18,6.18,0,0,0-.36,1.93c3.87,25.81,15.24,47.16,38,60.92,19,11.47,40.07,13.53,61.73,10.75,19.87-2.55,36-12,49.3-26.83,4.45-5,4.36-6.42-.85-9.9-6.22-4.17-12.39-8.42-18.66-12.52-1.52-1-3.1-3.38-5.13-1.66s.39,3.53.86,5.31c.06.2-.25.51-.9,1.74-1.75-5.61-6-4.48-9.88-4.73a13.76,13.76,0,0,1-4.82-1.18,223.71,223.71,0,0,1-37.14-22.24c-1.58-1.15-3.26-2.62-3.36-4.77-.12-2.58,2.89-2.58,4.31-4.06-4.37-2.7-9.13-4.05-12.81-7.29C552.88,599.84,553.09,599.63,553.31,599.41ZM426.93,611.92c2-3.64,3.78-7.38,5.94-10.91,1.94-3.16,1.4-4.87-1.84-7-23.06-14.92-46.09-29.91-68.89-45.23-15.05-10.11-30.47-19.79-43.08-33.13a389.9,389.9,0,0,0-30-27.93c-1-.84-1.73-2.54-3.86-1.68,2.46,4.59,7.8,6.83,10,12.72-7.87-5.24-13.51-11.42-19.72-16.93-3.2-2.84-6.07-6.26-10.69-6.92l-.3-.6c0,.12-.07.28,0,.33a1.27,1.27,0,0,0,.4.21c.39,2.23,2,3.74,3.23,5.47,8.53,11.79,20.11,21,28,33.32.15,9.39-.72,10-10.29,8.27-4.27-.79-8.15-3.08-12.56-3.11-2.17,0-5.4-1.05-6,1.88-.46,2.37,2.68,3.1,4.52,3.93,9.58,4.29,19,8.8,27.63,14.92a15.37,15.37,0,0,0,12.31,2.88c4.23-.9,7-.82,11.24,2.57,29.21,23.43,57.87,47.53,86.77,71.34,10.72,8.83,10.6,9,16.88-3.47A4.29,4.29,0,0,0,426.93,611.92Zm67.6-97.11c-3.91,2.83-3.88,7.42-4.86,11.44-3.28,13.57-9,26.77-5.85,41.31,1.37,6.33,2.54,12.67,5.47,18.89,2.82-4.76,3.57-8.49.83-13.57-4.14-7.66-4-16.09,1.45-23.51,4.82-6.58,11.58-8.24,19.37-6.59a4.56,4.56,0,0,0,4.93-1.53c2.26-2.85,4.63-5.61,7-8.4,4.41-3,8.36-6.56,13.13-9,23-11.86,47-12.41,71.3-5.74,36.74,10.1,59,33.72,64.35,72.76.79,5.66,2.79,4.15,5.51,2.81,6.79-3.33,8.61-9.88,9.6-16.53,1-6.88,1.35-13.87,2-20.82,1.22-12.78-.73-24.64-10.4-34-7-6.79-12.27-14.83-17.82-22.73-13.14-18.7-30-29.93-54.11-26.76a60.28,60.28,0,0,1-20.84-1.25c-4.64-1-9.28-.67-13.91-.34-6.13.45-12.27,1.67-18.36,1.44-13.91-.55-24.93,4.74-33.68,15.2a122.91,122.91,0,0,1-18.73,17.89C498,508,494.66,510.4,494.53,514.81Zm-124.63,316a23.85,23.85,0,0,0-2.65,2.23c-11.19,12.49-22.52,24.84-33.42,37.57-6,7-11.45,14.22-13.11,24.07-5.84,34.73-12.33,69.35-18.63,104-.63,3.44.28,5.61,3.66,7.1,11.12,4.91,22.62,5.74,34.54,4.12,2.84-.39,4.07-1.34,4.64-4,1.89-9.07,4-18.1,5.92-27.17,4.89-23,9.55-46,15.19-68.88a11.65,11.65,0,0,1,5.39-7.39c11.89-7.61,23.61-15.48,35.42-23.2,11-7.18,22-14.28,33-21.42,3.64-2.72,7.74-3.13,12.19-3.07,15.62.19,31.26-.29,46.87.27,5.95.21,12.31-.4,17.91,2.81,8,7.49,16.1,14.82,23.89,22.49,15.07,14.84,29.69,30.14,45,44.68,6.22,5.9,7.54,11.76,5.7,19.86-4.3,19-7.62,38.29-11.75,57.37-1,4.44.29,6.46,4.21,7.62,1.11.32,2.21.66,3.32,1,10.08,3.13,20.45,1.58,30.71,2,2.59.1,2.95-1.75,3.49-3.43,8.71-26.82,17.36-53.63,23.21-81.28,2.43-11.49.36-20.37-8.59-29-16.5-15.94-33.65-31.11-50.91-46.17-4.17-3.64-7.94-8-13.33-10.15-3.15-5-8.55-7.6-12.57-11.68-2.87-2.92-6.43-3.6-10.45-3.3-10.55.79-21.1,1.7-31.67,2q-18.88.45-37.79-.8a283.35,283.35,0,0,1-37.78-4.79c-15.83-3.22-31.11-8.15-45.24-16.16-2.42-1.37-4.19-1.14-6.1.95C383.52,816.27,376.69,823.5,369.9,830.77Zm-147.67-116a2.87,2.87,0,0,0,.51-.84q7.53-38.53,15-77.07c1.43-7.38,2.79-14.78,4.19-22.18a305.91,305.91,0,0,0-19.76,23.76c-14.49,18.8-29.1,37.51-44.7,55.42-5.09,5.85-10.35,11.41-11.49,19.8A215.79,215.79,0,0,1,160.85,738c-3.37,13.15-4.4,27-11.65,39-17.36,28.37-34.59,56.81-52.11,85.08Q67.78,909.33,38,956.31c-1.94,3.06-1.71,4.94,1,7.05,10.49,8.33,22.51,12.56,35.77,13.62,2.77.22,4.33-1.31,5.71-3.28,4.22-6,8.49-11.92,12.59-18Q132.1,897.8,169.88,839c11.93-18.63,23.66-37.39,35.43-56.12,5.76-9.17,7.37-19.72,9.53-30C217.49,740.21,219.79,727.46,222.23,714.75ZM559.29,183.67a5.84,5.84,0,0,0-.49,1.4c-1.51,16.62-6.11,32.18-15.78,46a6.49,6.49,0,0,0-1.1,4.69c.67,7.21-2.09,13.26-6.18,19-3.39,4.76-9.45,6.81-12.51,11.14a264.82,264.82,0,0,1-21.6,26.77c8.9,3.67,17.73,4.16,27.49,4.6-2.75-4.67-5.1-8.62-7.4-12.59-.72-1.23-2.23-2.38-1.18-4,.86-1.31,2.45-.83,3.71-.75,12.6.85,24.87-1.34,37.06-4.08,5.69-1.28,11.52-2.42,16.61-6.71C570,265,565.42,257.9,559,253c-3-2.32-2-3.48.46-5a124.64,124.64,0,0,1,22.82-11.17c10.07-3.7,19.27-9,28.18-14.9,1.19-.78,3.48-1.31,1.55-3.64-5.37-6.5-9.57-14.07-17.7-17.93a30.92,30.92,0,0,1-9-6.2c-1.4-1.43-2.31-2.68-.73-4.68,10.28-13,17-28.16,25.49-42.28,4.76-7.94,10-15.73,11.93-25.06.21-.53.41-1.07.61-1.61,0-.37.05-.74.07-1.11l-1.16.25c-4.49.06-9,.51-13.47.11a95.86,95.86,0,0,0-34.6,3.16c-4.57,1.26-5.2-.32-4.92-4.53,1.41-20.76,2.89-41.54.34-62.33-1.18-9.6-2.15-19.23-4.23-29.44C555.26,38,545.12,47.31,534.84,56.52S514.16,75.36,504,85c-2.95,2.78-4.62,2.94-6.59-1a96.54,96.54,0,0,0-6.92-11C482.68,61.69,472.3,52.71,462.77,43c-6.26-6.41-12.37-13-19.22-20.16-2.11,15.89-7.87,29.88-12.64,44.17a191.83,191.83,0,0,0-10.12,54.79c-.17,4.93-1,5.49-5.21,2.86-4.51-2.81-8.86-5.9-13.1-9.11a76.7,76.7,0,0,0-21.87-11.76c-8.56-2.89-8.54-3-6.95,6.09.11.65.16,1.32.27,2,2.94,17.37,5,35,14.34,50.55,1.81,3,.37,3.62-2.49,3.81-8.14.52-16.27,1.2-24.38,1.93-7.17.64-14.32,1.44-22,2.23l4.14,5.12c1.45,4.38,5.23,6.77,8.43,9.56a177.05,177.05,0,0,1,28.64,32.48c1.78,2.55,2.45,4.12-2,4.64-7.06.83-14,2.5-21.08,3.83,3.84,9.06,18.92,18,32.54,29.67A91.36,91.36,0,0,1,402,221.86c1.28-2.11-.63-2.55-1.72-3.35-5-3.66-8.3-8.15-7.6-14.73,2.28-10.8,9.94-14.68,20.54-10,3.1,1.38,4.37,1,6-2,6.58-11.94,13.47-23.71,21.65-34.67,7.3-9.8,15.41-18.79,25.71-25.56,33.57-22.06,78.79-5.48,89.76,32.87C558.1,170.76,558.3,177.27,559.29,183.67ZM592,729c20.65-4.28,41.26-8.71,62-12.7,4-.77,4.36-2.42,3.72-5.65-1.83-9.28-3.51-18.59-5.35-27.87-1.34-6.75-1.46-7.06-8.31-5.91-7.32,1.22-15.09.59-21.85,4.28a94.72,94.72,0,0,1-49.33,11.77c-36.18-1.1-67.38-19.91-79.52-57.57-.56-1.75-.87-3.73-2.5-4.76-5.18-3.29-9.68-7.59-15.33-10.16-10.94-9-23.08-16.21-35.13-23.55-2-1.19-2.49-.26-3.19,1.28-2.54,5.59-5.15,11.15-7.73,16.72-2.88,5-5.55,10.19-8.73,15-2.23,3.39-1.62,5.28,1.51,7.68,9.33,7.16,18.35,14.72,27.59,22,3,2.35,3.88,4.73,1.61,8a10.54,10.54,0,0,0-.94,2.79,415.23,415.23,0,0,0-29.59,52.55c-2.66,5.71-5.1,11.57-6.08,17.89-1.85,2.08-2.08,4.82-2.91,7.3-5.14,15.47-7.67,32.16-21.22,43.6-2.63,2.22-2.05,4.89.69,7.16a74.36,74.36,0,0,0,20.77,11.7c12.56,4.84,25.34,9,38.88,10.05a34.41,34.41,0,0,0,4.29,1.15c28.36,3.87,56.84,4.19,85.38,2.79,4.29-.27,8.59-.7,12.88-.77s5.1-1.83,2.86-5.11c-3.27-4.77-3.85-9.45-1-14.69a4.55,4.55,0,0,0-1.29-6.23c-2.57-1.9-1.89-4-.56-6.51,2.43-4.48,5.68-8.54,7.15-13.52,1.32-1.89,2.77-3.7,3.95-5.67C573.42,757.47,581.86,742.69,592,729ZM363.17,762.91c-8-15.28-15.56-29.89-23.26-44.43-18.84-35.62-37.78-71.17-58-106.07-4.47-7.74-9.36-12.42-18.74-10.49-2.24.45-4.65.08-7,.08-7.42,0-9.08,1.56-10.44,8.88-8.27,44.67-16.36,89.37-25.59,133.85-2.47,11.88-2.59,11.68,9.51,11,32.17-1.85,64.25-.29,96.27,2.88C338,759.79,350.06,761.38,363.17,762.91Zm-110.49-164c2.41-.17,3.58-.15,4.7-.35,16.94-3.06,20.44-1.39,28.91,13.13,18.71,32,36,64.84,53.22,97.69,14.19,27.1,28.55,54.13,41.57,81.83.65,1.37,1.47,2.67,2.57,4.64,1.62-5.83,5-9.48,8.61-13,2.66-2.55,5.21-5.28,6.4-8.81,2.92-8.65,5.54-17.4,8.44-26.06a7.2,7.2,0,0,0-.38-5.7C398,722.91,388.41,703.89,378.64,685c-21-40.66-43.39-80.52-65.34-120.65-4-7.28-7.9-12.73-17.23-10.61-1.34.31-2.93-.39-4.39-.68a6.54,6.54,0,0,0-7.29,3c-3.33,4.76-6.81,9.42-10.27,14.09C267.22,579.42,260.28,588.7,252.68,598.9Zm186.6-218.25-1.22-.45c-1,1.05-2,2.06-3,3.16-8.27,9.8-16.57,19.57-24.76,29.42-27.68,33.29-55.06,66.8-80.93,101.52-2.93,3.92-2.38,5.87,1.29,8.67,22.24,17,45.83,32,69.13,47.5,8.69,5.76,17.48,11.39,26.72,17.4C433.88,518.48,429,449.11,439.28,380.65Zm-49-105.43a18,18,0,0,0-1.1,2.32Q373.7,335.64,355.76,393c-11.12,35.57-22.65,71-37.6,105.2-3.83,8.75-3.83,8.62,2.86,15.47,2.29,2.34,3.55,2.58,5.66-.28,32.23-43.68,66.94-85.36,101.88-126.88,5.51-6.55,12.36-12.13,13.07-22.15.81-11.53,3.45-22.93,6.11-34.23.75-3.17.59-5.27-3.78-5.35-5.49-.1-10.84-1.79-15.91-3.88a9.78,9.78,0,0,0-9.57.51c-9.65,5.37-17.44,2.35-19.42-8.42a354.92,354.92,0,0,0-8.32-36.67A11.53,11.53,0,0,0,390.25,275.22Zm11.56,447.56c1-.17,1-1,1.13-1.55,7-26.22,12.1-52.85,16.43-79.63.33-2.05-.26-3.22-1.84-4.1-2.83-1.59-3.18-3.63-1.13-6,2.29-2.7,1.31-4.42-1.13-6.53-19.37-16.81-38.62-33.75-58.59-49.84-12.05-9.71-24.37-19.11-36.63-28.56-3.92-3-6.38-2.48-7.73,1.49-1.13,3.31-1.59,6.32.44,9.88,30.22,53.29,59.8,106.93,86.9,161.89C400.21,720.9,400.38,722.38,401.81,722.78Zm-337.69,292c.32-3.91-1.67-6.82-2.13-10.06-.39-2.74-1.79-3.68-4.63-4.07A98.73,98.73,0,0,1,39,996.27c-4.67-1.59-9.93-5.29-13.85-4.19-4.15,1.17-5.39,7.92-7.76,12.25-3.82,7-8.35,13.79-10.27,21.57-2.79,11.33.5,21.93,5.49,32.11,1.36,2.77,3.63,3.67,6.5,3.72,10.12.19,20.24.19,30.38.8,13.44.8,27,.21,40.47.19,4.94,0,6.17-1.21,4.78-5.9a73.63,73.63,0,0,0-14.33-27.14c-6.17-7.28-13.8-11.84-23.39-12.89-1.1-.12-2.71.2-2.72-1.44,0-2,1.8-1.43,3-1.59C59.52,1013.46,61.59,1014.18,64.12,1014.75ZM458,1061.36c.26-1.87-1-2.83-2-3.93a99.93,99.93,0,0,0-13-11.56c-18.37-14.34-39.54-23-61.58-29.74-2.83-.86-5.8-2-8.79-1.31-8.55,2-16.77.26-25-1.65-4.82-1.11-7.46,1-8.94,5.43-3.45,10.37-.45,21.2-2.7,31.64-.84,3.91,2.6,4.15,5.14,4.42,10.36,1.12,20.72,2.55,31.11,2.94,22,.84,44,3.1,66.1,3.14C444.88,1060.75,451.38,1062.79,458,1061.36ZM418.27,877.75c-1.85.9-2.78,1.24-3.59,1.76-13.24,8.58-26.43,17.26-39.75,25.73a11,11,0,0,0-5.09,7.47q-7.43,33.24-15,66.45c-1.47,6.47-1.36,6.55,5,8.8,8.26,2.91,16.8,1.43,25.22,1.91,3.57.2,4.95-1.25,5.77-4.49,7.23-28.29,14.6-56.54,21.88-84.82C414.6,893.27,416.29,885.93,418.27,877.75Zm162.35,148.87a264.37,264.37,0,0,0-4.75,28.05c-1.17,9.5-1,9.57,8.42,9.94,25.42,1,50.84,2,76.27,2.87,7.85.26,15.72,0,24,0a49.1,49.1,0,0,0-9-9.8c-15.71-13.67-34.34-21.22-54.34-25.91a48.75,48.75,0,0,0-15.26-1.3C597.44,1031.19,588.91,1031.29,580.62,1026.62ZM235,1066.72c14.21,0,28.15.3,42.07-.08,16.47-.45,32.93-1.43,49.38-2.31,2.07-.11,4.89.49,5.27-3.08,1-9.44,2.11-18.86,2.44-28.36.05-1.66-.22-2.51-2.17-2.05-9.21,2.18-18.17.14-27.15-1.7a11.8,11.8,0,0,0-4.43-.12c-14,2.69-27.4,7-39.76,14.15C250.29,1049.18,241.29,1056.65,235,1066.72ZM409.78,740.55a196.88,196.88,0,0,1,18.34-40.5c6.37-10.9,12.85-21.74,19.19-32.66.8-1.38,2.85-2.85.62-4.72l-25.56-21.4c-4.29,26.66-8.82,52.35-15.89,77.43C404.21,726.78,404.59,733.46,409.78,740.55ZM544.65,215.1c2.44.11,5-.06,5.82-2.74.71-2.33-1-4.16-2.78-5.42a25.12,25.12,0,0,0-6.06-3.43c-15.78-5.33-26.19-16.49-34.06-30.62-2.59-4.65-5.74-9-8.71-13.4a35.2,35.2,0,0,0-6.48-7.56c-1.93-1.61-4-3.49-6.64-1.8s-2.16,4.29-1.4,6.74a33.32,33.32,0,0,0,2.25,5.54,160.94,160.94,0,0,0,18.14,28,74.79,74.79,0,0,0,27.52,21.05C536.2,213.26,540.24,214.85,544.65,215.1ZM124.06,771c9.31-2.19,17.33-4.19,25.42-5.89,2.23-.48,2.4-1.91,2.77-3.49,2.22-9.55,4.47-19.09,6.63-28.65,1.56-6.88,3-13.78,4.49-20.67l-1.24-.49C147.41,729.73,133.42,748.11,124.06,771Zm-86,196.57-6.88,14.85c-.62,1.35-1.09,2.79-1.84,4.07-1.38,2.37-.08,3.23,1.91,3.87,5.37,1.69,10.67,3.65,16.11,5.07,12,3.14,12,3,17.18-8.09a32.94,32.94,0,0,1,1.66-3.61c1.69-2.7.71-3.48-2.13-4.16C54.85,977.37,46,974.05,38.09,967.59Zm339.6,26.32c-8.16-.77-16.17-1-23.43-4.82-2.17-1.15-2,1-2.25,2.07-1.27,5.32-2.33,10.69-3.73,16-.63,2.4,0,3.21,2.35,3.68a103.48,103.48,0,0,0,15.8,1.63c5.4.23,8.15-1.69,8.66-7.3C375.43,1001.42,376.75,997.79,377.69,993.91Zm70.61,73.83c3.33,0,6.66,0,10,0,1.24,0,3.11.47,3.2-1.4s-1.81-1.56-3-1.54c-11,.18-21.92-.23-32.86-1s-21.84-1.25-32.75-1.81c-18.54-1-37-2.23-55.43-4.57-1.83-.24-2.32.13-2.53,1.85-.43,3.49.91,4.59,4.44,4.58,15.1,0,30.17,1.27,45.24,1.74C405.82,1066.22,427.06,1067,448.3,1067.74ZM307.37,1010c-4.19,16.39-2.91,18.15,13.6,18.81,12.37.5,12.72.09,13.28-12,.12-2.58-.58-3.08-2.94-3A64.28,64.28,0,0,1,307.37,1010ZM671.16,671.33c-7.49-4.78-14.3-9.12-21.08-13.48-1.09-.7-1.88-1.06-2.82.33-4.36,6.5-9.86,12-15.78,17.33C644.25,672.11,657.45,674.63,671.16,671.33Zm-69.58,356.55c12.12-.34,8.58.67,10.85-8,.82-3.15-.38-3.58-3.14-3.47a85,85,0,0,1-19.76-1.43c-2.52-.5-4.7-.85-4.75,2.74,0,3.13-3.84,7.16,2.23,8.79C591.37,1027.71,595.81,1028,601.58,1027.88ZM95.89,1066.17c-1.55-.19-2.49-.39-3.44-.41-22.43-.47-44.87.64-67.32-.79-7.43-.47-13.87-.8-17.41-8.4-.24-.51-.8-.45-1.46.25,1.71,3.71,1.42,8.82,7.21,9.92,10.33,2,20.82,1,31.23,1.74,14.92,1,30,.26,44.93.24C91.73,1068.72,94,1069.07,95.89,1066.17Zm304-766.4A46,46,0,0,0,403,316.18c1.39,3.59,4.1,5,7.86,4.74,3.21-.23,5.86-1.66,9-3.56C411.93,312.86,405.79,307.16,399.91,299.77ZM289.85,549.86c5.45,1,10.91.71,16.34,1,2.67.13,2.85-1.64,3.34-3.34.74-2.59-1.61-1.86-2.71-2.4a11.13,11.13,0,0,0-2.81-.91c-3-.52-5.35-4.74-8.18-3.09-2.61,1.53-4,5.08-6,7.75C289.78,548.94,289.85,549.15,289.85,549.86Zm-4.41-44.41c-.33,3-.5,5.05-.81,7.12-1,6.7-.66,7,6.08,7.53,3.36.29,3.78-1.07,2.84-3.65C292.06,512.3,289.22,509.12,285.44,505.45Zm153.88,20c-4.66,8.55-9.06,35.66-6.78,39.76C434.87,551.62,437.1,538.55,439.32,525.48ZM385.08,809.59c5.83-4.85,5.83-4.85,0-9.83Zm78.35-615.38c-2.45,3.24-1.44,5.43-.12,8.68C463.69,199.61,464.21,197.4,463.43,194.21Zm86.93,377.21a3.67,3.67,0,0,0-1.48-4.4C547.4,569,548.76,569.88,550.36,571.42Zm-544.83,479c-.16.28-.41.51-.42.76s.22.52.35.78c.15-.24.41-.48.42-.72S5.67,1050.75,5.53,1050.45ZM545.31,578.72c.09-.09.23-.18.24-.28s-.12-.22-.19-.32c-.09.09-.24.17-.26.27S545.22,578.6,545.31,578.72Z"/><path class="cls-2" d="M364.29,302.11c-13.58,22.06-30,41.94-47.82,60.61a8.81,8.81,0,0,0-2.77,7.87c2.23,19.52,5.78,38.82,9.52,58.08.67,3.44-.35,5.09-2.76,7.05-10.83,8.83-21.37,18-32.35,26.66-4,3.17-5,6.58-4,11.19.45,2,.61,4.11,1,7.17-5.28-4.08-9.85-7.34-14.09-11-3.1-2.67-6.31-.25-9.45-.68-1.22-.17-1.17,2.45-.9,3.92.72,3.88,2.82,7.09,5.29,10,3.84,4.6,7.43,9.49,11.81,13.52,4.89,4.5,5.77,9.29,4.54,15.56-.86,4.4-1.62,6.62-6.63,4.89a14.46,14.46,0,0,0-7.41-.41,5.17,5.17,0,0,0-4.1,3.29c-.77,2.16.92,3.42,2.39,4.45a18,18,0,0,0,5.24,2.83c5.2,1.43,5.44,4.5,3.86,8.93-2.07,5.79-3.68,11.74-5.49,17.62q-2,5.4-3.94,10.82l1.26.46q2.1-5.57,4.18-11.15c2.34-6.58,4.82-13.11,6.95-19.75.84-2.63,1.78-2.82,4.15-1.77,11.73,5.17,11.77,5.11,4.22,15.31-35.73,48.27-71.45,96.56-110.2,142.5-17.38,20.61-35.33,40.72-48.43,64.52-.39.7-.78,1.59-1.8,1-.22-5.11,2.54-9.71,2.53-14.8,3.61-19.11,7.28-38.2,10.82-57.33,14.69-79.3,27.61-159,54-235.65,1-3,3.87-5.4,2.92-9h0c3.43-1.51,3.56-5.24,5.25-7.91.49-.79-.33-1.44-1.23-1.62.17-.49.34-1,.52-1.46-.45,1.38-.31,3.28,1.36,1.91s3.77-3.09,3.11-5.93h1l1.34-1.85c17.92-21.05,33.26-44,49.26-66.49,21.22-29.8,42.62-59.46,62.74-90,1.72-2.62,2.43-4.51-.38-6.54l-.77-1.16,0,0c-.51-6-4.17-10.49-7.69-14.8-11.21-13.7-24.6-25.27-37.29-37.53-31-29.88-67.67-48.26-109.82-56.56-24.29-4.79-48.62-9.64-72-18.08-.55-7.3,1.48-14.13,3.53-21,1.18-4,2.62-5,6.92-3.59,39.47,12.52,78.88,25.23,118.61,36.86a159.75,159.75,0,0,1,49.44,23.83c26,18.77,52.63,36.78,78.43,55.9C345.29,250.91,351.16,277.2,364.29,302.11Z"/><path class="cls-3" d="M194,447.89c-26.38,76.63-39.3,156.35-54,235.65-3.54,19.13-7.21,38.22-10.82,57.33l-2.15-1c3.31-18.31,6.53-36.63,10-54.91,8.68-46,16.51-92.24,27-137.93,7.26-31.74,15.05-63.34,25.89-94.09.6-1.71,1.39-3.35,2.09-5Z"/><path class="cls-1" d="M194,447.89h-2c2.06-6.83,2.5-7.65,5-9C197.84,442.49,194.93,444.88,194,447.89Z"/><path class="cls-1" d="M200.91,429.33c.9.18,1.72.83,1.23,1.62-1.69,2.67-1.82,6.4-5.25,7.91C196,434.73,199.11,432.31,200.91,429.33Z"/><path class="cls-1" d="M205.9,423.85c.66,2.84-1.56,4.66-3.11,5.93s-1.81-.53-1.36-1.91C203.13,426.76,202.49,423.06,205.9,423.85Z"/><path class="cls-3" d="M208.27,422l-1.34,1.85c-.14-.91-.29-1.81-.44-2.72a2.47,2.47,0,0,1,1.44-2.24C208,419.93,208.16,421,208.27,422Z"/><path class="cls-1" d="M206.49,421.13c.15.91.3,1.81.44,2.72h-1C204.19,422.53,205.61,421.89,206.49,421.13Z"/><path class="cls-4" d="M429.43,614.87c2.58-5.57,5.19-11.13,7.73-16.72.7-1.54,1.24-2.47,3.19-1.28,12,7.34,24.19,14.55,35.13,23.55-1.36,4.89.51,9.53,1.45,14.14,5.45,26.66,16.77,50.1,39.07,66.81,19.16,14.35,40.94,19.2,64.5,15.31,5-.83,9.87-3,15-4.66-.23,6.24-2.86,11.4-3.56,17-10.13,13.7-18.57,28.48-27.31,43.06-1.18,2-2.63,3.78-3.95,5.67-10.41,4.54-15.68,12-15.28,20.79s-.32,17.89-4.77,26c-28.54,1.4-57,1.08-85.38-2.79a34.41,34.41,0,0,1-4.29-1.15c-.21-.45-.31-1-.64-1.31-19.45-16.81-30.1-38.21-33.87-63.45-.75-5,.53-10.24-1.7-15.05,1-6.32,3.42-12.18,6.08-17.89a414.42,414.42,0,0,1,29.59-52.54c.32,0,.75.18.94,0,13.38-11,17.35-26.12,1.39-38.77C445.3,625.69,437.24,620.44,429.43,614.87Z"/><path class="cls-5" d="M622.56,120.48c-.2.54-.4,1.08-.61,1.61-1.84.4-2.46,2.07-3.48,3.33-16.73,20.79-33.2,41.81-51.81,61-1.18,1.22-2,3.08-4.16,3.12-1.29-1.9-.54-4.83-3.21-5.88-1-6.4-1.19-12.91-3-19.2-11-38.35-56.19-54.93-89.76-32.87-10.3,6.77-18.41,15.76-25.71,25.56-8.18,11-15.07,22.73-21.65,34.67-1.63,3-2.9,3.34-6,2-10.6-4.69-18.26-.81-20.54,10-15.86-5.9-30.06-14.68-43.44-24.92-1.74-1.33-3-3.62-5.7-3.41l-4.14-5.12c7.72-.79,14.87-1.59,22-2.23,8.11-.73,16.24-1.41,24.38-1.93,2.86-.19,4.3-.79,2.49-3.81-9.34-15.56-11.4-33.18-14.34-50.55-.11-.66-.16-1.33-.27-2-1.59-9-1.61-9,6.95-6.09a76.7,76.7,0,0,1,21.87,11.76c4.24,3.21,8.59,6.3,13.1,9.11,4.21,2.63,5,2.07,5.21-2.86A191.83,191.83,0,0,1,430.91,67c4.77-14.29,10.53-28.28,12.64-44.17,6.85,7.2,13,13.75,19.22,20.16,9.53,9.76,19.91,18.74,27.71,30.07a96.54,96.54,0,0,1,6.92,11c2,3.92,3.64,3.76,6.59,1q15.25-14.4,30.85-28.44c10.28-9.21,20.42-18.54,29.75-29.93,2.08,10.21,3,19.84,4.23,29.44,2.55,20.79,1.07,41.57-.34,62.33-.28,4.21.35,5.79,4.92,4.53a95.86,95.86,0,0,1,34.6-3.16c4.45.4,9,0,13.47-.11Z"/><path class="cls-6" d="M491.39,558.9c1.67-12.7,8.77-15.64,27.66-11-2-2.77-.43-4.56,1-6.39,10.9-13.9,25.73-20.87,42.74-23.3,24.73-3.52,48.21.76,69.55,13.9,18.52,11.41,30.79,27.69,34.92,49.47.3,1.61.42,3.25.7,5.49-7.09-2.18-13.83-3.56-20.65-1.12,4.81,1.22,9.76.83,14.59,1.77,4.58.88,6.66,2.64,6.58,7.9-.12,8.19-2.56,15.84-4,23.71-.83,4.5-3.6,5.49-7.74,3.39q-14.26-7.18-28.45-14.5c-2.17-1.12-5.2-1.85-5.32-4.71-.12-2.71,2.88-3.29,4.8-4.48.57-.36,1.18-.6,1-1.76a8,8,0,0,0-6.51,2.5c-2.49,2.57-4.51,2.52-7.15.34a44.42,44.42,0,0,0-6.71-4.33c-5.47-3.08-11.2-5.87-10.09-13.81a2.28,2.28,0,0,0-1.33-2.42c-.23.18-.61.33-.64.53-.3,2.25,1.16,5.45-.83,6.54s-4-1.62-5.93-2.84c-8.11-5.22-16.07-10.68-24.21-15.85-4.86-3.08-9.78-6.37-17.28-4,2.92-3.33,6.1-3.14,8.56-4.57-7.65-2-14.61.75-19.51,7.64-6.38,9-7.5,24.23-2.34,32l0-.11c.06.62.13,1.25.2,1.87,2.67,4.37,4.78,9.54,9.83,11.5,6.28,2.44,11.13,6.72,16.5,10.47,10.49,7.3,21.51,13.86,32.43,20.54,4.78,2.93,10.26,4.75,15.74,3.27s9.09.47,12.44,4c3,3.07,6.18,5.66,10.24,6.86,3.14.93,3,2,.74,3.75-20.83,16.54-44.31,24.57-70.73,19.15-35-7.19-57.62-28.67-68.2-62.79-.35-1.1-.28-2.36-1.63-2.86-1.84-10.29-2.2-20.5,1.49-30.53.76-2,1.5-4,4.14-4.11,2.58-.27,5.55-1.35,3.17-4.14C496.77,570.69,494.11,564.83,491.39,558.9Zm30.46,79.52c.12,16.71,15.92,34.19,33.88,37.54a26.89,26.89,0,0,0,10.87,0c6-1.33,9.66-4.76,9.93-9.6.25-4.62-2.62-7.54-9.18-9.34-.64-.18-1.28-.36-1.93-.49-7.91-1.52-13-6.09-15.46-13.81a37.89,37.89,0,0,0-5.94-12c-3.88-4.94-10.09-7.12-15-5.35S521.81,631.67,521.85,638.42ZM597.46,647c.36,2.13.45,2.94.64,3.72.59,2.38,2.07,5.4-.06,7s-4.61-.78-6.87-1.7c-1.06-.43-1.77-2.63-3.23-1-1.21,1.31-.22,2.88.47,4.17,1.61,3,4.38,3.87,7.58,3.76s4.84-2.12,5.46-4.92C602.29,654.07,602,650.42,597.46,647Zm1.43-81.58c-1.3-9.61-14.32-24.34-20.91-23.57C588.14,546.84,592.7,556,598.89,565.37Z"/><path class="cls-7" d="M363.17,762.91c-13.11-1.53-25.13-3.12-37.19-4.32-32-3.17-64.1-4.73-96.27-2.88-12.1.7-12,.9-9.51-11,9.23-44.48,17.32-89.18,25.59-133.85,1.36-7.32,3-8.87,10.44-8.88,2.34,0,4.75.37,7-.08,9.38-1.93,14.27,2.75,18.74,10.49,20.17,34.9,39.11,70.45,58,106.07C347.61,733,355.18,747.63,363.17,762.91Z"/><path class="cls-8" d="M222.23,714.75c-2.44,12.71-4.74,25.46-7.39,38.12-2.16,10.32-3.77,20.87-9.53,30-11.77,18.73-23.5,37.49-35.43,56.12Q132.23,897.88,93,955.71c-4.1,6.07-8.37,12-12.59,18-1.38,2-2.94,3.5-5.71,3.28-13.26-1.06-25.28-5.29-35.77-13.62-2.67-2.11-2.9-4-1-7.05q29.71-47,59.1-94.28c17.52-28.27,34.75-56.71,52.11-85.08a5.63,5.63,0,0,0,3.94-1.82c12.15-11.52,24.26-23.08,36.52-34.49C199.84,731.17,210.24,722,222.23,714.75Z"/><path class="cls-9" d="M252.68,598.9c7.6-10.2,14.54-19.48,21.44-28.78,3.46-4.67,6.94-9.33,10.27-14.09a6.54,6.54,0,0,1,7.29-3c1.46.29,3.05,1,4.39.68,9.33-2.12,13.24,3.33,17.23,10.61,21.95,40.13,44.36,80,65.34,120.65,9.77,18.93,19.32,37.95,28.08,57.36a7.2,7.2,0,0,1,.38,5.7c-2.9,8.66-5.52,17.41-8.44,26.06-1.19,3.53-3.74,6.26-6.4,8.81-3.62,3.47-7,7.12-8.61,13-1.1-2-1.92-3.27-2.57-4.64-13-27.7-27.38-54.73-41.57-81.83-17.21-32.85-34.51-65.66-53.22-97.69-8.47-14.52-12-16.19-28.91-13.13C256.26,598.75,255.09,598.73,252.68,598.9Z"/><path class="cls-7" d="M439.28,380.65c-10.32,68.46-5.4,137.83-12.73,207.22-9.24-6-18-11.64-26.72-17.4C376.53,555,352.94,540,330.7,523c-3.67-2.8-4.22-4.75-1.29-8.67,25.87-34.72,53.25-68.23,80.93-101.52,8.19-9.85,16.49-19.62,24.76-29.42.93-1.1,2-2.11,3-3.16Z"/><path class="cls-10" d="M571.82,842.75c5.39,2.12,9.16,6.51,13.33,10.15,17.26,15.06,34.41,30.23,50.91,46.17,9,8.64,11,17.52,8.59,29-5.85,27.65-14.5,54.46-23.21,81.28-.54,1.68-.9,3.53-3.49,3.43-10.26-.4-20.63,1.15-30.71-2-1.11-.35-2.21-.69-3.32-1-3.92-1.16-5.17-3.18-4.21-7.62,4.13-19.08,7.45-38.33,11.75-57.37,1.84-8.1.52-14-5.7-19.86-15.34-14.54-30-29.84-45-44.68-7.79-7.67-15.92-15-23.89-22.49A188.64,188.64,0,0,0,571.82,842.75Z"/><path class="cls-10" d="M439.87,857.77c-11,7.14-22,14.24-33,21.42-11.81,7.72-23.53,15.59-35.42,23.2a11.65,11.65,0,0,0-5.39,7.39c-5.64,22.83-10.3,45.88-15.19,68.88-1.93,9.07-4,18.1-5.92,27.17-.57,2.7-1.8,3.65-4.64,4-11.92,1.62-23.42.79-34.54-4.12-3.38-1.49-4.29-3.66-3.66-7.1,6.3-34.66,12.79-69.28,18.63-104,1.66-9.85,7.11-17.06,13.11-24.07,10.9-12.73,22.23-25.08,33.42-37.57a23.85,23.85,0,0,1,2.65-2.23,9.7,9.7,0,0,1,2.34.74c20,12.58,41.82,20.2,65,24.3A3.36,3.36,0,0,1,439.87,857.77Z"/><path class="cls-11" d="M486.36,174l-3.3,23h-.63c-1.09-5.84-2.16-11.69-3.29-17.53-.18-.9,0-2.26-1.34-2.34-1.57-.11-1.68,1.34-1.87,2.43-1,5.83-2,11.66-3.56,17.46-1-5.26-1.9-10.53-2.92-15.77-.17-.9-.23-2.19-1.5-2.27s-1.3,1.28-1.48,2.15c-.59,2.93-1.18,5.87-1.56,8.82a2.78,2.78,0,0,1-2.51,2.64c-2.21.35-1.28-1.73-1.82-2.68-1.08-1.93.18-6-2.37-5.8s-1.82,4-2.39,6.32c-.52,2.08-.77,4.23-1.37,6.29-.2.7-1.14,1.78-1.65,1.73-7.68-.79-3.12,5.78-5.06,8.41a2.53,2.53,0,0,0-.08,2.84l.1.16c-2,1.61-1.46,3.92-1.68,6v5.79c1.64,11.18-.56,22.32-.39,33.48,0,.22-.44.45-.67.67-.42-.49-.81-.47-1.18,0l.05.06c.39-1.75.18-3.09-2.06-3.07l.06.08c.55-1.85.25-3.13-2.05-3.07l.08.08c-.74-3.74-4.9-7.75-8-7.65-1.85.06-2.17.92-1.57,2.61.92,2.64,2.54,5.06,2.55,8-.55-.38-1.08-.78-1.64-1.13-1.51-1-3.15-2.78-4.85-1.55s-.71,3.43-.29,5.13c1.32,5.31,3.05,10.52,4.11,15.88.58,2.89,3,5.52,1.52,8.77-7.47-8.07-12.9-17.3-15.34-28.15-2,.58-1.52,1.74-1.23,2.47,1.21,3.16.63,6-.74,9-1.25,2.77-2.82,5.83-.08,8.76,1.3,1.68.93,3.59,1,5.53.05,2.12-1.11,4.68,1.5,6.22l0,0c.29,3.9,2.1,1.6,3.51.86s1.06-3.38,3.44-2.73c.4.24,1,.79,1.18.68,5.94-3.22,8,1.86,11,5,1.27,8.76,4.88,16.56,10.64,24.25a89.38,89.38,0,0,1-28.25-11.49c-10.42-6.61-17.92-15.36-19.33-28.09-1.21-10.93-.4-21.82,1.36-32.67.49-3,1.89-6,.94-9.25,1-3.68,2.14-7.08,5.85-9.22,2-1.16,2.63-3.15-.19-4.93a65.33,65.33,0,0,1-8.29-6.36c-3.27-2.9-3.67-6.6-1.94-10.47s5-5.13,9.33-4.82c4.88.35,8.8,2.7,12.52,4.72,10.6-19.23,20.71-38.59,36.15-54.42,17.33-17.78,37.85-25.11,62.17-17.41,28.4,9,43.6,37,37.43,68-.7,3.53-1.22,7.14-3.1,10.76-5.11-4.47-11.2-6.73-17.16-9.18-7.7-3.16-13.37-8.68-17.91-15.39-4.66-6.88-9-14-13.42-21a51.07,51.07,0,0,0-7.15-9.58c-2.6-2.52-5.46-4.53-9.33-3.43-4.08,1.16-4.9,4.57-5.31,8.18C478.64,161.6,480.7,168.53,486.36,174Zm-48.78,43.9c.38-2.71.77-5.42,1.32-9.31a17.26,17.26,0,0,0-2.78,8.39c-.75,5.13-.48,10.09,2.56,14.61A121,121,0,0,1,437.58,217.93Zm83.26-50-.39-.78-.32.58.72.19c2.38,10.53,9.85,17.32,17.66,23.81,1.11.93,2.23,2.59,4.91,1.56C534.14,186.09,528,176.64,520.84,168ZM422,244.26c-1.3-4.37-3.67-6.91-7.61-7.15s-5.72,2.77-6.57,6.21a28.69,28.69,0,0,0-.52,9.38c.14,1.56.68,3.37,2.38,3.22,2.31-.2,1.21-2.11,1-3.47a20.27,20.27,0,0,1-.41-3.94c.14-3-.9-6.68,2.72-8.35,3.32-1.54,5,1.5,7.06,3.29A9,9,0,0,0,422,244.26Zm-11.15,28.22c-2.05.2-2.46,1.83-2.67,3.45s.3,3.59,2.21,3.74,2.73-1.57,2.79-3.33S412.92,273.05,410.85,272.48Zm14.4,13.44c-2,.21-2.79,1.67-3,3.34-.24,1.84.63,3.34,2.57,3.5s2.95-1.23,3-3.09A3.68,3.68,0,0,0,425.25,285.92ZM531,169.37c3.2,5.56,6.9,8.91,10.76,12.54C540.7,177.75,537.13,173.48,531,169.37Z"/><path class="cls-12" d="M494.53,514.81c.13-4.41,3.42-6.81,6.34-9.1a122.91,122.91,0,0,0,18.73-17.89c8.75-10.46,19.77-15.75,33.68-15.2,6.09.23,12.23-1,18.36-1.44,4.63-.33,9.27-.69,13.91.34a60.28,60.28,0,0,0,20.84,1.25c24.12-3.17,41,8.06,54.11,26.76,5.55,7.9,10.85,15.94,17.82,22.73,9.67,9.41,11.62,21.27,10.4,34-.66,7-1,13.94-2,20.82-1,6.65-2.81,13.2-9.6,16.53-2.72,1.34-4.72,2.85-5.51-2.81-5.4-39-27.61-62.66-64.35-72.76C583,511.42,558.93,512,536,523.83c-4.77,2.46-8.72,6.06-13.13,9C511.87,529.22,501.8,524.21,494.53,514.81Z"/><path class="cls-13" d="M390.25,275.22a11.53,11.53,0,0,1,.49,1.11A354.92,354.92,0,0,1,399.06,313c2,10.77,9.77,13.79,19.42,8.42a9.78,9.78,0,0,1,9.57-.51c5.07,2.09,10.42,3.78,15.91,3.88,4.37.08,4.53,2.18,3.78,5.35-2.66,11.3-5.3,22.7-6.11,34.23-.71,10-7.56,15.6-13.07,22.15C393.62,428,358.91,469.72,326.68,513.4c-2.11,2.86-3.37,2.62-5.66.28-6.69-6.85-6.69-6.72-2.86-15.47,14.95-34.2,26.48-69.63,37.6-105.2q17.94-57.36,33.39-115.47A18,18,0,0,1,390.25,275.22Zm-8.44,54.62c-8.52,35.2-15.59,70.17-17,107.05,1.4-1.16,2-1.61,2.58-2.16,20.12-20.36,34.79-44.47,47.94-69.63,1.46-2.79.21-4.24-1.86-5.79a183.3,183.3,0,0,1-22.72-20.23C387.92,336.11,385.76,332.5,381.81,329.84Z"/><path class="cls-7" d="M401.81,722.78c-1.43-.4-1.6-1.88-2.15-3-27.1-55-56.68-108.6-86.9-161.89-2-3.56-1.57-6.57-.44-9.88,1.35-4,3.81-4.51,7.73-1.49,12.26,9.45,24.58,18.85,36.63,28.56,20,16.09,39.22,33,58.59,49.84,2.44,2.11,3.42,3.83,1.13,6.53-2,2.41-1.7,4.45,1.13,6,1.58.88,2.17,2,1.84,4.1C415,668.38,410,695,402.94,721.23,402.79,721.82,402.81,722.61,401.81,722.78Z"/><path class="cls-7" d="M442.78,377.81c-1.85-3.71.1-7.45.54-10.94,1.37-10.74,4.05-21.3,5.78-32,1.16-7.2,2.85-7.74,9.38-10.29,8.79-3.43,13,.35,16.91,7,1.06,1.8,3.24,3.06.47,5.17-1.3,1-.39,2.05.42,3,19.28,21.61,37,44.59,56.78,65.75.52.56,1,1.39,2.4.86-.4-2.13-2-3.62-3.18-5.27-15.28-21.29-33.35-40.21-50.83-59.62-2.31-2.58-2.53-4,.22-6.19,5.65-4.56,10.1-10.5,16.38-14.35,1.7-.11,2.12,1.43,2.93,2.38,24.36,28.82,48.79,57.59,73,86.55,8.4,10.05,17.45,19.58,24.87,30.44-2.39,6.12-8.54,8.5-16.13,6.18-4.2-1.28-7.7-3.87-11.38-6.14-35.12-21.68-68.63-45.72-101.85-70.18a27.52,27.52,0,0,0-2.49-1.65c-1.23-.71-2.34-2.21-4-1.05s-.46,2.49-.17,3.93c.82,4-.47,7.88-1.27,11.77l-3.5-.06V329l-1.48,0c-1.91,17.65-1.17,35.42-1.88,53.13C450.22,382.06,446.65,379.54,442.78,377.81Z"/><path class="cls-14" d="M592,729c.7-5.57,3.33-10.73,3.56-17-5.18,1.64-10,3.83-15,4.66-23.56,3.89-45.34-1-64.5-15.31-22.3-16.71-33.62-40.15-39.07-66.81-.94-4.61-2.81-9.25-1.45-14.14,5.65,2.57,10.15,6.87,15.33,10.16,1.63,1,1.94,3,2.5,4.76,12.14,37.66,43.34,56.47,79.52,57.57a94.72,94.72,0,0,0,49.33-11.77c6.76-3.69,14.53-3.06,21.85-4.28,6.85-1.15,7-.84,8.31,5.91,1.84,9.28,3.52,18.59,5.35,27.87.64,3.23.26,4.88-3.72,5.65C633.25,720.28,612.64,724.71,592,729Z"/><path class="cls-15" d="M591.53,614.18c-10.84,1.19-17.83-5.6-25.17-11.91-5.44-4.67-10.54-9.66-15.52-14.8-1.19-1.23-2.73-2.34-3-5.83,8.71,8.48,16.72,15.9,26.82,20.61-8.47-8.43-19.59-14.13-25.33-25.36,8.53,7.79,17.37,15.12,27.79,20.36-8.31-8.1-18.54-14.17-24.92-24.27,11,6.52,19.65,16.32,31.14,22.22-9.36-10.23-21.7-17.28-31.47-28.89,4.7.56,7.6,1.84,9.89,4.5.32,1.17,1.13,1.29,2.13,1l0,0a1.73,1.73,0,0,0,.82,2.13c11.25,7.77,20.63,17.76,31.39,26.13,23.24,18.08,49.3,31.35,75.38,44.58,21.06,10.68,41.85,21.8,61.23,35.39,2.68,1.87,4.91,3.93,6.11,7-6.89,6.38-15.91,8-24.4,10.63-16,4.88-32.46,8.41-48.86,11.94-3.85.82-5.31-.22-5.93-4.14-1.25-8-2.87-16-4.63-24-.76-3.41.16-4.85,3.61-5.25,4.95-.57,9.86-1.39,14.77-2.23,1.85-.32,3.19.6,4.64,1.37,2.73,1.44,5.11,3.58,8.62,4.46,0-2.22-1.62-2.62-2.75-3.34-20.46-13.06-40.9-26.15-60.83-40-1.38-1-3.51-1.32-3.79-3.57-.2-1.6-1.06-.78-1.56-.28-5.88,5.87-12.75,4.55-19,1.65C587.38,629,577,622.05,566.6,615.16c-1.24-.82-3.41-1.92-2.42-3.79.91-1.71,3.2-1,4.54-.38,7.73,3.68,15.89,5.66,24.26,7.11,2,.34,3.83,1.88,5.74,2.86l.65.41-.35-.71c-.1-.58-.19-1.16-.29-1.73l.39-.38c4.26,0,8.4,1.85,13,.33-9.35-1.21-17.28-4.81-22-13.86l-.91,1.25q1.53,3.53,3,7.07Z"/><path class="cls-3" d="M439.87,857.77a3.36,3.36,0,0,0-2.66-2c-23.15-4.1-45-11.72-65-24.3a9.7,9.7,0,0,0-2.34-.74c6.79-7.27,13.62-14.5,20.32-21.84,1.91-2.09,3.68-2.32,6.1-.95,14.13,8,29.41,12.94,45.24,16.16a283.35,283.35,0,0,0,37.78,4.79q18.9,1.26,37.79.8c10.57-.26,21.12-1.17,31.67-2,4-.3,7.58.38,10.45,3.3,4,4.08,9.42,6.67,12.57,11.68a188.64,188.64,0,0,1-55,15c-5.6-3.21-12-2.6-17.91-2.81-15.61-.56-31.25-.08-46.87-.27C447.61,854.64,443.51,855.05,439.87,857.77Z"/><path class="cls-2" d="M374.43,317.19a7.9,7.9,0,0,1-.3,3.91c-15.92,55.34-32.22,110.55-53.52,164.12-2.5,6.29-5.36,12.43-8.16,18.88-7.93-6.74-15.62-13.07-23.05-19.68-2.88-2.55-1.25-6.67-2.39-9.89-1.69-4.82.22-7.69,4.21-10.64,11.79-8.72,22.59-18.67,33.63-28.31a5.26,5.26,0,0,0,2-5.55c-3.31-19.53-6.38-39.1-9.74-58.62-.53-3.1.63-4.91,2.57-6.93,17.11-17.81,32.86-36.73,46.16-57.61,2,.6,2.33,2.64,3.43,4C371,313,371.43,316.14,374.43,317.19Z"/><path class="cls-13" d="M559.29,183.67c2.67,1.05,1.92,4,3.21,5.88,2.11,0,3-1.9,4.16-3.12,18.61-19.2,35.08-40.22,51.81-61,1-1.26,1.64-2.93,3.48-3.33-1.92,9.33-7.17,17.12-11.93,25.06-8.45,14.12-15.21,29.27-25.49,42.28-1.58,2-.67,3.25.73,4.68a30.92,30.92,0,0,0,9,6.2c8.13,3.86,12.33,11.43,17.7,17.93,1.93,2.33-.36,2.86-1.55,3.64-8.91,5.87-18.11,11.2-28.18,14.9A124.64,124.64,0,0,0,559.42,248c-2.49,1.55-3.49,2.71-.46,5,6.46,4.92,11.08,12,19,16.14-5.09,4.29-10.92,5.43-16.61,6.71-12.19,2.74-24.46,4.93-37.06,4.08-1.26-.08-2.85-.56-3.71.75-1,1.61.46,2.76,1.18,4,2.3,4,4.65,7.92,7.4,12.59-9.76-.44-18.59-.93-27.49-4.6a264.82,264.82,0,0,0,21.6-26.77c3.06-4.33,9.12-6.38,12.51-11.14,4.09-5.74,6.85-11.79,6.18-19A6.49,6.49,0,0,1,543,231c9.67-13.79,14.27-29.35,15.78-46A5.84,5.84,0,0,1,559.29,183.67Z"/><path class="cls-9" d="M222.23,714.75c-12,7.2-22.39,16.42-32.57,25.89-12.26,11.41-24.37,23-36.52,34.49A5.63,5.63,0,0,1,149.2,777c7.25-12,8.28-25.85,11.65-39A215.79,215.79,0,0,0,166,713.64c1.14-8.39,6.4-13.95,11.49-19.8,15.6-17.91,30.21-36.62,44.7-55.42A305.91,305.91,0,0,1,242,614.66c-1.4,7.4-2.76,14.8-4.19,22.18q-7.49,38.53-15,77.07A2.87,2.87,0,0,1,222.23,714.75Z"/><path class="cls-3" d="M64.12,1014.75c-2.53-.57-4.6-1.29-6.79-1-1.22.16-3-.43-3,1.59,0,1.64,1.62,1.32,2.72,1.44,9.59,1.05,17.22,5.61,23.39,12.89a73.63,73.63,0,0,1,14.33,27.14c1.39,4.69.16,5.9-4.78,5.9-13.49,0-27,.61-40.47-.19-10.14-.61-20.26-.61-30.38-.8-2.87,0-5.14-1-6.5-3.72-5-10.18-8.28-20.78-5.49-32.11,1.92-7.78,6.45-14.59,10.27-21.57,2.37-4.33,3.61-11.08,7.76-12.25,3.92-1.1,9.18,2.6,13.85,4.19a98.73,98.73,0,0,0,18.35,4.35c2.84.39,4.24,1.33,4.63,4.07C62.45,1007.93,64.44,1010.84,64.12,1014.75Z"/><path class="cls-3" d="M458,1061.36c-6.62,1.43-13.12-.61-19.68-.62-22.08,0-44.05-2.3-66.1-3.14-10.39-.39-20.75-1.82-31.11-2.94-2.54-.27-6-.51-5.14-4.42,2.25-10.44-.75-21.27,2.7-31.64,1.48-4.44,4.12-6.54,8.94-5.43,8.26,1.91,16.48,3.68,25,1.65,3-.72,6,.45,8.79,1.31,22,6.75,43.21,15.4,61.58,29.74a99.93,99.93,0,0,1,13,11.56C457,1058.53,458.26,1059.49,458,1061.36Z"/><path class="cls-9" d="M418.27,877.75c-2,8.18-3.67,15.52-5.54,22.81-7.28,28.28-14.65,56.53-21.88,84.82-.82,3.24-2.2,4.69-5.77,4.49-8.42-.48-17,1-25.22-1.91-6.4-2.25-6.51-2.33-5-8.8q7.55-33.21,15-66.45a11,11,0,0,1,5.09-7.47c13.32-8.47,26.51-17.15,39.75-25.73C415.49,879,416.42,878.65,418.27,877.75Z"/><path class="cls-11" d="M457.79,270c-1.63-1.23-2.76-2.51-2.75-4.9.09-23.81.56-47.61,3.12-72.62,4.61,18,3.52,35.22,4.79,52.29,1.3-18.47,2.46-36.86,5.15-56.27,4.36,18.88,3.29,37,4.37,55,1.44-18.11,2.26-36.25,5.41-54.23,4,16.82,4.06,34,4.91,51.17,1.34-16.51,2-33,4.32-49.32,1.83.05,1.7,1,1.77,1.78a828.77,828.77,0,0,1,2.94,95.33,22.54,22.54,0,0,1-.59,3.41A50.93,50.93,0,0,1,468,303.32c-6.69,1.54-11.65-.53-15.66-5.8-1.26-1.67-1.82-3.95-4-4.83-3.76-6.53-5.4-13.79-7.18-21a187.83,187.83,0,0,0-8.45-26.82c3.74.44,4.66,3.94,7.21,5.12l-.08-.08a3.34,3.34,0,0,0,2.05,3.07l-.06-.08c.14,1.39.57,2.58,2.06,3.07l-.05-.06c-.08.72-.22,1.48,1,1.1l-.14.05c-.1,2.6,1.86,4.12,3.24,5.85,4.61,5.74,9.35,11.38,14,17.05,1.52,3.58,3,7.17,4.57,10.71.54,1.19,1.4,2.53,2.89,2.27s2.71-1.24,2.2-3.15c-.08-10.05.39-20,3.47-29.91q-2.3,3.92-4.58,7.85C466.42,269.44,462.27,270.67,457.79,270Z"/><path class="cls-6" d="M296.18,513.68c-7.91-12.31-19.49-21.53-28-33.32-1.26-1.73-2.84-3.24-3.23-5.47l-.08.07c4.62.65,7.49,4.07,10.69,6.91,6.21,5.51,11.85,11.69,19.72,16.93-2.23-5.89-7.57-8.13-10-12.72,2.13-.86,2.88.84,3.86,1.68a389.9,389.9,0,0,1,30,27.93c12.61,13.34,28,23,43.08,33.13,22.8,15.32,45.83,30.31,68.89,45.23,3.24,2.09,3.78,3.8,1.84,7-2.16,3.53-4,7.27-5.94,10.91a515.31,515.31,0,0,1-94-66.32c-6.89-6.12-12.88-13.54-22.18-16.62-2.47-.82-4.13-3.21-5.93-5.22C301.87,520.46,300,516.26,296.18,513.68Z"/><path class="cls-11" d="M580.62,1026.62c8.29,4.67,16.82,4.57,25.27,3.89a48.75,48.75,0,0,1,15.26,1.3c20,4.69,38.63,12.24,54.34,25.91a49.1,49.1,0,0,1,9,9.8c-8.24,0-16.11.22-24,0-25.43-.86-50.85-1.87-76.27-2.87-9.46-.37-9.59-.44-8.42-9.94A264.37,264.37,0,0,1,580.62,1026.62Z"/><path class="cls-11" d="M235,1066.72c6.33-10.07,15.33-17.54,25.65-23.55,12.36-7.2,25.79-11.46,39.76-14.15a11.8,11.8,0,0,1,4.43.12c9,1.84,17.94,3.88,27.15,1.7,1.95-.46,2.22.39,2.17,2.05-.33,9.5-1.44,18.92-2.44,28.36-.38,3.57-3.2,3-5.27,3.08-16.45.88-32.91,1.86-49.38,2.31C263.11,1067,249.17,1066.72,235,1066.72Z"/><path class="cls-15" d="M492.32,614.57c1.35.5,1.28,1.76,1.63,2.86,10.58,34.12,33.22,55.6,68.2,62.79,26.42,5.42,49.9-2.61,70.73-19.15,2.23-1.77,2.4-2.82-.74-3.75-4.06-1.2-7.29-3.79-10.24-6.86-3.35-3.48-7.06-5.41-12.44-4s-11-.34-15.74-3.27c-10.92-6.68-21.94-13.24-32.43-20.54-5.37-3.75-10.22-8-16.5-10.47-5-2-7.16-7.13-9.83-11.5,1-.74.87-1.35-.2-1.87l0,.11c.24-4.77-1.93-9.39-.79-14.31,2.14.54,2.29,3.56,5.88,4-6.2-6.72-7-13-.22-18.95,1.28,2.17,1.06,5,2.91,6.9.19,4.22,2.22,7.6,5.05,10.52,5.08,5.24,10.24,10.39,15.37,15.58-.17.16-.34.32-.5.49-3.42-.4-5.88-3.1-9.17-3.8-.94-1.23-1.92-2.33-3.69-1.48h.14c.43-1.79-.66-2-2-2l.07.05c-.24-1.17-.87-1.61-2-1l0,.16c-1.6-4.36-3.34-5.55-5.89-4l1,.79h0l1.07,1-.09-.11,1.08,1.09,0-.08a.92.92,0,0,0,1.06,1.05l0-.05c.13,2.32,1.75,3,3.68,3.33a2.14,2.14,0,0,0,2.48,1.73l2.62.2c3.68,3.24,8.44,4.59,12.81,7.29-1.42,1.48-4.43,1.48-4.31,4.06.1,2.15,1.78,3.62,3.36,4.77a223.71,223.71,0,0,0,37.14,22.24,13.76,13.76,0,0,0,4.82,1.18c3.86.25,8.13-.88,9.88,4.73.65-1.23,1-1.54.9-1.74-.47-1.78-3-3.52-.86-5.31s3.61.67,5.13,1.66c6.27,4.1,12.44,8.35,18.66,12.52,5.21,3.48,5.3,4.93.85,9.9-13.25,14.81-29.43,24.28-49.3,26.83C570.07,691,549,688.89,530,677.42c-22.8-13.76-34.17-35.11-38-60.92A6.18,6.18,0,0,1,492.32,614.57Z"/><path class="cls-7" d="M92.26,130.78c23.4,8.44,47.73,13.29,72,18.08,42.15,8.3,78.87,26.68,109.82,56.56,12.69,12.26,26.08,23.83,37.29,37.53,3.52,4.31,7.18,8.8,7.69,14.8-9.87-6.5-18.18-14.9-27.22-22.4q-29-24-57.67-48.45c-6.68-5.67-14.75-8.22-22.71-11.06-37.39-13.38-75.27-25.31-113.19-37.07C93.9,137.41,91.81,135.3,92.26,130.78Z"/><path class="cls-11" d="M41.23,54.76C34.12,41.59,25.78,29.19,17.17,17A19.37,19.37,0,0,1,13.69,4.68c2,2.55,4.14,5,6.08,7.66C40.71,40.68,60.44,69.86,80.24,99c2.28,3.35,4.68,6.8,8.62,8,4.37,1.28,4.27,3.61,2.78,6.88-.61,1.34-1.19,2.7-1.78,4-9.63-1.46-18.31-5.75-27.2-9.35A25.25,25.25,0,0,1,48.81,95c-7.58-16.6-14.83-33.38-24-49.2-2.49-4.31-3.64-9.57-8.11-12.62-2.52-5.19-5.81-10-7.32-15.67a11.2,11.2,0,0,1,.21-6.35L40.37,55.58c.49.35.45,1.75,1.38,1.05C42.38,56.16,41.93,55.26,41.23,54.76Z"/><path class="cls-7" d="M374.43,317.19c-3-1.05-3.43-4.2-5.14-6.31-1.1-1.37-1.42-3.41-3.43-4,4.44-7.57,9.13-15,12.33-23.2l-1.07-.62-12.83,19.06c-13.13-24.91-19-51.2-15.1-79.35a14.48,14.48,0,0,1,6.51,6.57c2.66,4.92,6.94,8.4,11.35,11.72,7.3,5.49,14.73,10.82,20.78,17.8,1.54,1.79,2.39,3.56,1.75,5.87q-7,25.45-14,50.91C375.43,316.21,374.83,316.67,374.43,317.19Z"/><path class="cls-11" d="M494.77,223.07c-1.4-13.43-2.09-26.94-4.42-40.28,1.73.29,2.25,1.84,3.12,3a140.71,140.71,0,0,0,18.14,20.47c9.65,8.67,20.87,14,34,14.83-1,3.23-3,5.82-4.9,8.48-1.65-.34-1.59-2.77-3.85-2.36,1.17,7.9,3,16-2.68,23-8.49-.19-15.83-2.71-21.23-9.79-3.11-4.07-4.55-8.74-6-13.46,1.1-2.23,3.62-2.78,5.3-4.42-10.26.5-18.33,14.95-15.28,27.24,3.73,7.65,8,14.7,17.15,16.89h4.52c-2.88,6.71-8.72,4.71-13.89,5.41,2.5,1.71,5.18,1.44,8.19,2A234.68,234.68,0,0,1,494,295.29c1-17.23,1.36-33.26,1.17-49.3,0-2.16-.05-4.32-.15-6.47-.15-3.19.25-6,2.62-8.62,3.18-3.58,3.68-7.57,2.66-13.3-.83,2.32-1.25,4.06-2.5,5.29Z"/><path class="cls-6" d="M738.8,687c-1.2-3.07-3.43-5.13-6.11-7-19.38-13.59-40.17-24.71-61.23-35.39-26.08-13.23-52.14-26.5-75.38-44.58-10.76-8.37-20.14-18.36-31.39-26.13a1.73,1.73,0,0,1-.82-2.13,124.92,124.92,0,0,1,21.35,12.76c25.38,18.27,53.17,32.24,80.93,46.32,21.53,10.9,43.08,21.77,64,33.81,4.23,2.44,8.09,5.28,10.64,9.57C743.79,679.29,743.25,682.67,738.8,687Z"/><path class="cls-2" d="M598.85,440.26c-7.42-10.86-16.47-20.39-24.87-30.44-24.21-29-48.64-57.73-73-86.55-.81-.95-1.23-2.49-2.93-2.38,1.56-3.69,5.05-5.63,7.64-8.39,1.8-1.92,2.57.44,3.37,1.37Q520,326.56,530.7,339.38c21,24.95,40.69,51,60.76,76.67,4.33,5.54,8,11.47,8.69,18.75C600.32,436.73,600.89,438.82,598.85,440.26Z"/><path class="cls-14" d="M414.8,740.8c2.23,4.81.95,10,1.7,15.05,3.77,25.24,14.42,46.64,33.87,63.45.33.29.43.86.64,1.31-13.54-1.1-26.32-5.21-38.88-10.05a74.36,74.36,0,0,1-20.77-11.7c-2.74-2.27-3.32-4.94-.69-7.16,13.55-11.44,16.08-28.13,21.22-43.6C412.72,745.62,413,742.88,414.8,740.8Z"/><path class="cls-15" d="M296.18,513.68c3.79,2.58,5.69,6.78,8.65,10.08,1.8,2,3.46,4.4,5.93,5.22,9.3,3.08,15.29,10.5,22.18,16.62a515.31,515.31,0,0,0,94,66.32,4.29,4.29,0,0,1-.22,1c-6.28,12.45-6.16,12.3-16.88,3.47-28.9-23.81-57.56-47.91-86.77-71.34-4.22-3.39-7-3.47-11.24-2.57a15.37,15.37,0,0,1-12.31-2.88c-8.61-6.12-18.05-10.63-27.63-14.92-1.84-.83-5-1.56-4.52-3.93.57-2.93,3.8-1.89,6-1.88,4.41,0,8.29,2.32,12.56,3.11C295.46,523.7,296.33,523.07,296.18,513.68Z"/><path class="cls-13" d="M343.5,175.45c2.7-.21,4,2.08,5.7,3.41,13.38,10.24,27.58,19,43.44,24.92-.7,6.58,2.62,11.07,7.6,14.73,1.09.8,3,1.24,1.72,3.35a91.36,91.36,0,0,0-11.89,33.77C376.45,243.94,361.37,235,357.53,226c7.06-1.33,14-3,21.08-3.83,4.41-.52,3.74-2.09,2-4.64A177.05,177.05,0,0,0,351.93,185C348.73,182.22,345,179.83,343.5,175.45Z"/><path class="cls-7" d="M16.73,33.19c4.47,3.05,5.62,8.31,8.11,12.62C34,61.63,41.23,78.41,48.81,95a25.25,25.25,0,0,0,13.85,13.53c8.89,3.6,17.57,7.89,27.2,9.35a20.58,20.58,0,0,1,.11,2.48c-.54,7.49-.5,7.23-7.62,6-6.54-1.16-13.24-1.06-19.81-2.25-9.56-1.73-18-5.32-25.34-11.94-10.64-9.6-21.35-19.11-30.69-30C5.33,80.77,4.3,79.28,2.25,76.6a35.84,35.84,0,0,1,13.88,6.25c4.07,2.88,7.82,6.21,11.63,9.43,3.1,2.61,6.4,3.84,10,1.25,3.38-2.46,4.13-6,2.64-9.8C35.83,72.07,29.65,61.19,24.3,49.91,21.67,44.39,18,39.33,16.73,33.19Z"/><path class="cls-7" d="M401.36,230.54c.95,3.21-.45,6.21-.94,9.25-1.76,10.85-2.57,21.74-1.36,32.67,1.41,12.73,8.91,21.48,19.33,28.09A89.38,89.38,0,0,0,446.64,312c-5.76-7.69-9.37-15.49-10.64-24.25,5.44,3.44,10.61,6.78,13.34,13.35,3.14,7.55,8.87,13.54,15.71,19.11-7.31,3-14.1,2.57-21,1.73-26.58-3.21-46.1-20.87-50.48-47.2A65.41,65.41,0,0,1,401.36,230.54Z"/><path class="cls-2" d="M442.78,377.81c3.87,1.73,7.44,4.25,11.93,4.24a28.69,28.69,0,0,1-1.14,15.61c-5,13.36-9.71,26.84-14.67,40.22a16.28,16.28,0,0,0-.55,9.24c2.29,11.4,4.27,22.85,6.66,34.22a21.87,21.87,0,0,1-.49,10.76c-3.76,13.43-7.26,26.92-9.87,40.63l-1.42-.07c.95-29.1,1.73-58.2,2.91-87.3a520.93,520.93,0,0,1,4.52-52.18C441.39,388.06,439.29,382.53,442.78,377.81Z"/><path class="cls-14" d="M429.43,614.87c7.81,5.57,15.87,10.82,23.37,16.76,16,12.65,12,27.81-1.39,38.77-.19.15-.62,0-.94,0a10.49,10.49,0,0,1,.94-2.8c2.27-3.28,1.37-5.66-1.61-8-9.24-7.27-18.26-14.83-27.59-22-3.13-2.4-3.74-4.29-1.51-7.68C423.88,625.06,426.55,619.89,429.43,614.87Z"/><path class="cls-5" d="M544.65,215.1c-4.41-.25-8.45-1.84-12.4-3.6a74.79,74.79,0,0,1-27.52-21.05,160.94,160.94,0,0,1-18.14-28,33.32,33.32,0,0,1-2.25-5.54c-.76-2.45-1.23-5.09,1.4-6.74s4.71.19,6.64,1.8a35.2,35.2,0,0,1,6.48,7.56c3,4.42,6.12,8.75,8.71,13.4,7.87,14.13,18.28,25.29,34.06,30.62a25.12,25.12,0,0,1,6.06,3.43c1.82,1.26,3.49,3.09,2.78,5.42C549.65,215,547.09,215.21,544.65,215.1Z"/><path class="cls-7" d="M124.06,771c9.36-22.91,23.35-41.29,38.07-59.19l1.24.49c-1.49,6.89-2.93,13.79-4.49,20.67-2.16,9.56-4.41,19.1-6.63,28.65-.37,1.58-.54,3-2.77,3.49C141.39,766.83,133.37,768.83,124.06,771Z"/><path class="cls-9" d="M494.53,514.81c7.27,9.4,17.34,14.41,28.29,18-2.32,2.79-4.69,5.55-7,8.4a4.56,4.56,0,0,1-4.93,1.53c-7.79-1.65-14.55,0-19.37,6.59-5.43,7.42-5.59,15.85-1.45,23.51,2.74,5.08,2,8.81-.83,13.57-2.93-6.22-4.1-12.56-5.47-18.89-3.16-14.54,2.57-27.74,5.85-41.31C490.65,522.23,490.62,517.64,494.53,514.81Z"/><path class="cls-16" d="M38.09,967.59c7.95,6.46,16.76,9.78,26,12,2.84.68,3.82,1.46,2.13,4.16a32.94,32.94,0,0,0-1.66,3.61c-5.16,11.12-5.18,11.23-17.18,8.09C42,994,36.65,992.07,31.28,990.38c-2-.64-3.29-1.5-1.91-3.87.75-1.28,1.22-2.72,1.84-4.07Z"/><path class="cls-2" d="M458.07,383.06l3.5.06c-2.3,15.78-4.52,31.57-6.91,47.34-2.28,14.94-4.73,29.85-7.89,44.93-1.18-5.93-2-12-3.61-17.78-2.83-10.15-2.47-19.73,2.17-29.42,3.15-6.55,5-13.73,7.56-20.57C455.88,399.69,459,391.82,458.07,383.06Z"/><path class="cls-16" d="M377.69,993.91c-.94,3.88-2.26,7.51-2.6,11.24-.51,5.61-3.26,7.53-8.66,7.3a103.48,103.48,0,0,1-15.8-1.63c-2.33-.47-3-1.28-2.35-3.68,1.4-5.29,2.46-10.66,3.73-16,.27-1.09.08-3.22,2.25-2.07C361.52,992.93,369.53,993.14,377.69,993.91Z"/><path class="cls-3" d="M448.3,1067.74c-21.24-.74-42.48-1.52-63.73-2.19-15.07-.47-30.14-1.79-45.24-1.74-3.53,0-4.87-1.09-4.44-4.58.21-1.72.7-2.09,2.53-1.85,18.41,2.34,36.89,3.62,55.43,4.57,10.91.56,21.84,1,32.75,1.81s21.89,1.2,32.86,1c1.22,0,3.13-.41,3,1.54s-2,1.37-3.2,1.4C455,1067.78,451.63,1067.74,448.3,1067.74Z"/><path class="cls-5" d="M491,300.15c4.46,2.63,7.17,7.13,11.09,10.36,1.25,1-.07,1.71-.7,2.31q-9.76,9.19-19.58,18.35c-.47.44-1.33,1.22-1.53,1.09-3.53-2.3-5.58-6-8.15-9.17-1.69-2.07,1.1-3,1.8-4.52l0-.1c.48-.78,2.26-1,1.08-2.51l-.05.06c1.11.42,1.45.08,1-1l0,0c6.16-3.84,10.72-9.29,15-15Z"/><path class="cls-16" d="M307.37,1010a64.28,64.28,0,0,0,23.94,3.8c2.36-.06,3.06.44,2.94,3-.56,12.08-.91,12.49-13.28,12C304.46,1028.14,303.18,1026.38,307.37,1010Z"/><path class="cls-7" d="M473.9,318.47l0,.1c-5.5,1.29-9.47-1.49-12.94-5.11-5.74-6-10.83-12.39-12.65-20.77,2.21.88,2.77,3.16,4,4.83,4,5.27,9,7.34,15.66,5.8a50.93,50.93,0,0,0,23.21-11.66c1.38,2.87-.34,5.65-.24,8.49l-.08-.14c-6.56,3.44-11,9-15,15l0,0c-.82-.13-1.15.22-1,1L475,316C473.58,316.35,472.79,317,473.9,318.47Z"/><path class="cls-14" d="M540.68,824.55c4.45-8.15,5.17-17.24,4.77-26s4.87-16.25,15.28-20.79c-1.47,5-4.72,9-7.15,13.52-1.33,2.47-2,4.61.56,6.51a4.55,4.55,0,0,1,1.29,6.23c-2.86,5.24-2.28,9.92,1,14.69,2.24,3.28,1.35,5.05-2.86,5.11S545,824.28,540.68,824.55Z"/><path class="cls-7" d="M506.92,227c1.46,4.72,2.9,9.39,6,13.46,5.4,7.08,12.74,9.6,21.23,9.79-2.52,6.4-4.3,7.31-10.89,6.07a28.79,28.79,0,0,1-18.94-11.8C499.29,237.45,499.9,233.78,506.92,227Z"/><path class="cls-2" d="M601.58,1027.88c-5.77.08-10.21-.17-14.57-1.35-6.07-1.63-2.28-5.66-2.23-8.79.05-3.59,2.23-3.24,4.75-2.74a85,85,0,0,0,19.76,1.43c2.76-.11,4,.32,3.14,3.47C610.16,1028.55,613.7,1027.54,601.58,1027.88Z"/><path class="cls-7" d="M445,255.87c.23-.22.68-.45.67-.67-.17-11.16,2-22.3.39-33.48,1.73-1.6,1.71-3.68,1.61-5.79.06-2,1.54-4,.08-6l-.1-.16c.35.88,1.14.88,1.9.92a7.87,7.87,0,0,0,2.18,4.5c.42,1.41,1.17,2.66,1.16,4.25-.06,14.89,0,29.78,0,45-3.69-1.5-4.44-6.18-8.22-7.31l.14-.05Z"/><path class="cls-7" d="M431.78,280.05c1.49-3.25-.94-5.88-1.52-8.77-1.06-5.36-2.79-10.57-4.11-15.88-.42-1.7-1.32-4,.29-5.13s3.34.59,4.85,1.55c.56.35,1.09.75,1.64,1.13,4.75,11.75,6.75,24.32,11.41,37C438.91,287.15,435.62,283.25,431.78,280.05Z"/><path class="cls-3" d="M95.89,1066.17c-1.91,2.9-4.16,2.55-6.26,2.55-15,0-30,.75-44.93-.24-10.41-.69-20.9.23-31.23-1.74-5.79-1.1-5.5-6.21-7.21-9.92.66-.7,1.22-.76,1.46-.25,3.54,7.6,10,7.93,17.41,8.4,22.45,1.43,44.89.32,67.32.79C93.4,1065.78,94.34,1066,95.89,1066.17Z"/><path class="cls-15" d="M545.59,221.09c-13.11-.86-24.33-6.16-34-14.83a140.71,140.71,0,0,1-18.14-20.47c-.87-1.16-1.39-2.71-3.12-3-.28-2.5-.55-5-.83-7.5l.5-.51c9.34,15.38,21.05,28.35,37.09,37.07,5.41,2.93,10.8,5.75,16.93,6.84C545.47,219,547.52,218.7,545.59,221.09Z"/><path class="cls-7" d="M514.09,266.72c-9.11-2.19-13.42-9.24-17.15-16.89,2.33-2.6.4-6.29,2.6-9.46,1.17,2.15,2.24,4.1,3.3,6.06l1.09,1.53-.07-.11c.07,1.44-.13,3.05,2.07,3l0,0c-.05.74.24,1.14,1,1l0,0c2.21,5.82,7.45,6.28,12.51,7.06a9,9,0,0,1,5.84,1.23C522.15,263.58,517.12,263.47,514.09,266.72Z"/><path class="cls-15" d="M399.91,299.77c5.88,7.39,12,13.09,19.93,17.59-3.12,1.9-5.77,3.33-9,3.56-3.76.26-6.47-1.15-7.86-4.74A46,46,0,0,1,399.91,299.77Z"/><path class="cls-15" d="M457.79,270c4.48.64,8.63-.59,12.69-2.29a66.21,66.21,0,0,0-1.06,8.7c0,4.53-1,9.31,2.17,13.36.51,1.91-.68,2.89-2.2,3.15s-2.35-1.08-2.89-2.27c-1.59-3.54-3.05-7.13-4.57-10.71C462.78,275.73,458.56,273.6,457.79,270Z"/><path class="cls-11" d="M289.85,549.86c0-.71-.07-.92,0-1,1.93-2.67,3.36-6.22,6-7.75,2.83-1.65,5.16,2.57,8.18,3.09a11.13,11.13,0,0,1,2.81.91c1.1.54,3.45-.19,2.71,2.4-.49,1.7-.67,3.47-3.34,3.34C300.76,550.57,295.3,550.86,289.85,549.86Z"/><path class="cls-11" d="M416.1,271.87c-1.65-4-1.65-4,1.18-9.61,2.62,5.54,5.39,10.71,9.24,15.18,2.06,2.4.55,3.05-1.6,3.46-1.29-2-2.72-2.93-4.11-.17a5.13,5.13,0,0,1-3.93,3.21l0,0C416.86,279.88,418.73,275.73,416.1,271.87Z"/><path class="cls-11" d="M285.44,505.45c3.78,3.67,6.62,6.85,8.11,11,.94,2.58.52,3.94-2.84,3.65-6.74-.57-7.08-.83-6.08-7.53C284.94,510.5,285.11,508.41,285.44,505.45Z"/><path class="cls-15" d="M491.39,558.9c2.72,5.93,5.38,11.79,9.73,16.89,2.38,2.79-.59,3.87-3.17,4.14-4.16-5.56-8-11.25-7.18-18.71A15.9,15.9,0,0,1,491.39,558.9Z"/><path class="cls-11" d="M439.32,525.48c-2.22,13.07-4.45,26.14-6.78,39.76C430.26,561.14,434.66,534,439.32,525.48Z"/><path class="cls-15" d="M486.36,174c-5.66-5.5-7.72-12.43-5.35-18.06l8.16,17.66-.45.47Z"/><path class="cls-6" d="M542.56,576.62c-1.85-1.93-1.63-4.73-2.91-6.9,1-2.94,3.57-4.11,6.53-5.94C544.85,568.48,543.7,572.55,542.56,576.62Z"/><path class="cls-15" d="M450,208.74c1.4-4.21,1.63-4.6,4.33-7.32-.23,3.47-.47,6.85-.68,10.24-.06,1-.09,2.05-1.58,1.82A8.81,8.81,0,0,0,450,208.74Z"/><path class="cls-9" d="M385.08,809.59v-9.83C390.91,804.74,390.91,804.74,385.08,809.59Z"/><path class="cls-11" d="M519.42,258.93c-5.06-.78-10.3-1.24-12.51-7.06Z"/><path class="cls-3" d="M416.1,271.87c2.63,3.86.76,8,.76,12-2.61-1.54-1.45-4.1-1.5-6.22,0-1.94.33-3.85-1-5.53Z"/><path class="cls-3" d="M271.74,553.85q-2.08,5.58-4.18,11.15l-1.26-.46q2-5.41,3.94-10.82Z"/><path class="cls-3" d="M416.88,283.94a5.13,5.13,0,0,0,3.93-3.21c1.39-2.76,2.82-1.86,4.11.17l-1.09,1.17c-2.38-.65-2.12,2-3.44,2.73S417.17,287.84,416.88,283.94Z"/><path class="cls-6" d="M277.22,477.58l6.53,5.82-1.17.82-6.46-5.85Z"/><path class="cls-6" d="M463.43,194.21c.78,3.19.26,5.4-.12,8.68C462,199.64,461,197.45,463.43,194.21Z"/><path class="cls-15" d="M494.77,223.07l3-.18c.44,2.4-1.09,3.88-2.28,6.15C494.42,226.62,494.79,224.83,494.77,223.07Z"/><path class="cls-3" d="M450,208.74a8.81,8.81,0,0,1,2.07,4.74c-.1.56-.21,1.13-.31,1.69a7.87,7.87,0,0,1-2.18-4.5Z"/><path class="cls-7" d="M433.23,532.66l1.42.07c-.32,1.68-.64,3.37-1.13,6A8.88,8.88,0,0,1,433.23,532.66Z"/><path class="cls-6" d="M271.2,472.58l3.58,2.84-1.13.74q-1.72-1.32-3.44-2.65Z"/><path class="cls-15" d="M550.36,571.42c-1.6-1.54-3-2.38-1.48-4.4A3.67,3.67,0,0,1,550.36,571.42Z"/><path class="cls-11" d="M505.93,250.89c-2.2,0-2-1.6-2.07-3C504.73,248.74,505.84,249.46,505.93,250.89Z"/><path class="cls-15" d="M547.16,572.57c.79.77,1.66,1.52,1.53,2.77a.8.8,0,0,1-.64.47c-1.34-.33-1.38-1.53-1.62-2.59Z"/><path class="cls-3" d="M5.53,1050.45c.14.3.37.56.35.82s-.27.48-.42.72c-.13-.26-.36-.53-.35-.78S5.37,1050.73,5.53,1050.45Z"/><path class="cls-6" d="M563.89,571.82c-1,.28-1.81.16-2.13-1A1.64,1.64,0,0,1,563.89,571.82Z"/><path class="cls-15" d="M546.43,573.22c-.46-.49-.88-1.27-.32-1.62.81-.51.75.57,1,1Z"/><path class="cls-6" d="M270.21,473.51l-1.61-1.31.81-.92,1.79,1.3Z"/><path class="cls-15" d="M592.3,613.34c.41.34,1.32.43.84,1.22-.09.14-1-.24-1.61-.38Z"/><path class="cls-6" d="M274.78,475.42c.13.42.49,1.06.35,1.2-.66.66-1.1.07-1.48-.46Z"/><path class="cls-6" d="M276.12,478.37c-.37-.42-.94-.89-.25-1.41s1,.23,1.35.62Z"/><path class="cls-11" d="M506.93,251.89c-.8.11-1.09-.29-1-1C506.63,250.81,507,251.17,506.93,251.89Z"/><path class="cls-11" d="M503.93,248l-1.09-1.53Z"/><path class="cls-15" d="M489.52,175.29c-.26-.4-.53-.8-.8-1.19l.45-.47c.29.38.57.77.85,1.15Z"/><path class="cls-5" d="M621.47,119.62l1.16-.25c0,.37,0,.74-.07,1.11Z"/><path class="cls-15" d="M546.44,581.27l-.31-1.17,1,.44Z"/><path class="cls-6" d="M268.6,472.2c-.42-.26-.87-.63-.44-1.08.17-.18.82.1,1.25.16Z"/><path class="cls-6" d="M283.75,483.4c.41.44.91.94.21,1.45s-1-.25-1.38-.63Z"/><path class="cls-15" d="M547.16,580.54l.36,1.17-1.08-.44Z"/><path class="cls-6" d="M264.93,474.89a1.27,1.27,0,0,1-.4-.21c0-.05,0-.21,0-.33l.3.6Z"/><path class="cls-15" d="M598.73,618.93c-.19-.19-.57-.51-.55-.53.38-.53.67-.2.94.15Z"/><path class="cls-7" d="M319.12,257.79l.77,1.16C319.36,258.74,319,258.45,319.12,257.79Z"/><path class="cls-15" d="M545.31,578.72c-.09-.12-.22-.24-.21-.33s.17-.18.26-.27c.07.1.2.22.19.32S545.4,578.63,545.31,578.72Z"/><path class="cls-15" d="M563,602.72c.21.21.64.57.61.61-.41.59-.77.24-1.11-.12C562.64,603,562.81,602.88,563,602.72Z"/><path class="cls-1" d="M521.85,638.42c0-6.75,2.46-11.27,7.21-13s11.08.41,15,5.35a37.89,37.89,0,0,1,5.94,12c2.48,7.72,7.55,12.29,15.46,13.81.65.13,1.29.31,1.93.49,6.56,1.8,9.43,4.72,9.18,9.34-.27,4.84-3.91,8.27-9.93,9.6a26.89,26.89,0,0,1-10.87,0C537.77,672.61,522,655.13,521.85,638.42ZM547,660.67c1.94-.11,4.05-.13,4.48-1.89a4.27,4.27,0,0,0-2-4.63c-2.2-1-3-2.58-4-4.6-1.26-2.55-3.42-4.43-6.88-2.75-3.83,1.87-7.68,3.8-7.71,8.69,0,3,4.9,6.94,7.19,6C541.18,660.27,544.11,659.57,547,660.67Z"/><path class="cls-3" d="M597.46,647c4.54,3.47,4.83,7.12,4,10.95-.62,2.8-2.28,4.8-5.46,4.92s-6-.77-7.58-3.76c-.69-1.29-1.68-2.86-.47-4.17,1.46-1.59,2.17.61,3.23,1,2.26.92,4.84,3.19,6.87,1.7s.65-4.58.06-7C597.91,649.89,597.82,649.08,597.46,647Z"/><path class="cls-1" d="M598.89,565.37C592.7,556,588.14,546.84,578,541.8,584.57,541,597.59,555.76,598.89,565.37Z"/><path class="cls-1" d="M534.76,598.86c1.07.52,1.23,1.13.2,1.87C534.89,600.11,534.82,599.48,534.76,598.86Z"/><path class="cls-3" d="M422,244.26a9,9,0,0,1-1.94-.81c-2.06-1.79-3.74-4.83-7.06-3.29-3.62,1.67-2.58,5.33-2.72,8.35a20.27,20.27,0,0,0,.41,3.94c.2,1.36,1.3,3.27-1,3.47-1.7.15-2.24-1.66-2.38-3.22a28.69,28.69,0,0,1,.52-9.38c.85-3.44,2.57-6.46,6.57-6.21S420.7,239.89,422,244.26Z"/><path class="cls-1" d="M520.84,168c7.11,8.68,13.3,18.13,22.58,25.36-2.68,1-3.8-.63-4.91-1.56-7.81-6.49-15.28-13.28-17.66-23.81Z"/><path class="cls-1" d="M410.85,272.48c2.07.57,2.39,2.18,2.33,3.86s-.86,3.49-2.79,3.33-2.44-2-2.21-3.74S408.8,272.68,410.85,272.48Z"/><path class="cls-1" d="M425.25,285.92a3.68,3.68,0,0,1,2.58,3.75c-.07,1.86-1.05,3.25-3,3.09s-2.81-1.66-2.57-3.5C422.46,287.59,423.23,286.13,425.25,285.92Z"/><path class="cls-1" d="M531,169.37c6.16,4.11,9.73,8.38,10.76,12.54C537.87,178.28,534.17,174.93,531,169.37Z"/><path class="cls-1" d="M437.58,217.93a121,121,0,0,0,1.1,13.69c-3-4.52-3.31-9.48-2.56-14.61Z"/><path class="cls-3" d="M437.58,217.93l-1.46-.92a17.26,17.26,0,0,1,2.78-8.39C438.35,212.51,438,215.22,437.58,217.93Z"/><path class="cls-3" d="M447.68,215.93c.1,2.11.12,4.19-1.61,5.79,0-1.93,0-3.86,0-5.79Z"/><path class="cls-1" d="M447.68,215.93h-1.6c.22-2.1-.29-4.41,1.68-6C449.22,211.93,447.74,213.92,447.68,215.93Z"/><path class="cls-1" d="M441.88,253a3.34,3.34,0,0,1-2.05-3.07C442.13,249.86,442.43,251.14,441.88,253Z"/><path class="cls-1" d="M443.88,256c-1.49-.49-1.92-1.68-2.06-3.07C444.06,252.89,444.27,254.23,443.88,256Z"/><path class="cls-1" d="M520.85,168l-.72-.19.32-.58.39.78Z"/><path class="cls-1" d="M445,255.87l-.22,1.15c-1.18.38-1-.38-1-1.1C444.2,255.4,444.59,255.38,445,255.87Z"/><path class="cls-5" d="M381.81,329.84c3.95,2.66,6.11,6.27,8.92,9.24a183.3,183.3,0,0,0,22.72,20.23c2.07,1.55,3.32,3,1.86,5.79-13.15,25.16-27.82,49.27-47.94,69.63-.54.55-1.18,1-2.58,2.16C366.22,400,373.29,365,381.81,329.84Z"/><path class="cls-1" d="M599,620.66l.35.71-.65-.41Z"/><path class="cls-1" d="M471.59,289.8c-3.17-4.05-2.17-8.83-2.17-13.36a66.21,66.21,0,0,1,1.06-8.7q2.28-3.93,4.58-7.85C472,269.78,471.51,279.75,471.59,289.8Z"/><path class="cls-1" d="M539.87,591.06c2.55-1.52,4.29-.33,5.89,4l-1.89-.31,0,.05c0-.72-.45-1-1.06-1.05l0,.08-1.08-1.09.09.11-1.07-1h0Z"/><path class="cls-6" d="M543.87,594.78l1.89.31,0-.16c.38.91.66,2,2,1l-.07-.05c-.79.75.22,1.13.35,1.69-.17.17-.34.34-.52.5C545.62,597.77,544,597.1,543.87,594.78Z"/><path class="cls-1" d="M552.65,600l-2.62-.2c-.14-.63-.27-1.27-.41-1.91,1.77-.85,2.75.25,3.69,1.48C553.09,599.63,552.88,599.84,552.65,600Z"/><path class="cls-6" d="M549.62,597.93c.14.64.27,1.28.41,1.91a2.14,2.14,0,0,1-2.48-1.73c.18-.16.35-.33.52-.5l1.69.32Z"/><path class="cls-1" d="M549.76,597.93l-1.69-.32c-.13-.56-1.14-.94-.35-1.69C549.1,595.88,550.19,596.14,549.76,597.93Z"/><path class="cls-1" d="M547.79,596c-1.35,1-1.63-.13-2-1C546.92,594.36,547.55,594.8,547.79,596Z"/><path class="cls-6" d="M540.84,591.86l1.07,1Z"/><path class="cls-6" d="M539.87,591.06l1,.79Z"/><path class="cls-6" d="M542.85,593.78c.61.09,1.07.33,1.06,1.05A.92.92,0,0,1,542.85,593.78Z"/><path class="cls-6" d="M541.82,592.77l1.08,1.09Z"/><path class="cls-1" d="M41.23,54.76c.7.5,1.15,1.4.52,1.87-.93.7-.89-.7-1.38-1.05Z"/><path class="cls-1" d="M475.93,315c4-6,8.42-11.59,15-15C486.65,305.75,482.09,311.2,475.93,315Z"/><path class="cls-1" d="M473.9,318.47c-1.11-1.46-.32-2.12,1.08-2.51C476.16,317.46,474.38,317.69,473.9,318.47Z"/><path class="cls-1" d="M474.93,316c-.12-.8.21-1.15,1-1C476.38,316.1,476,316.44,474.93,316Z"/><path class="cls-12" d="M547,660.67c-2.92-1.1-5.85-.4-8.89.83-2.29.93-7.21-3-7.19-6,0-4.89,3.88-6.82,7.71-8.69,3.46-1.68,5.62.2,6.88,2.75,1,2,1.81,3.58,4,4.6a4.27,4.27,0,0,1,2,4.63C551.08,660.54,549,660.56,547,660.67Z"/></g></g></svg>