<svg xmlns="http://www.w3.org/2000/svg" viewBox="0 0 839.3 1051.38"><defs><style>.cls-1{fill:#141413;}.cls-2{fill:#f6e845;}.cls-3{fill:#6d541b;}.cls-4{fill:#00396f;}.cls-5{fill:#98c6e7;}.cls-6{fill:#fbfbfb;}.cls-7{fill:#cec8b8;}.cls-8{fill:#adc6b6;}.cls-9{fill:#99d8d7;}.cls-10{fill:#f8f8f8;}.cls-11{fill:#eec0a2;}.cls-12{fill:#3c3834;}.cls-13{fill:#89512c;}.cls-14{fill:#d7dcdd;}.cls-15{fill:#e58a75;}.cls-16{fill:#fefefe;}</style></defs><g id="Layer_2" data-name="Layer 2"><g id="Layer_2-2" data-name="Layer 2"><path class="cls-1" d="M332.34,707.5a43.27,43.27,0,0,1,3,12.1c.17,2.46.49,5.28-2.46,6.34-3.22,1.16-5.18-1.23-6.27-3.6-4.5-9.8-12.59-16-21.2-21.66a21.46,21.46,0,0,0-9.42-3.76c-1.42-.16-3.3-.76-4.06,1-.65,1.51,1,2.25,1.91,3.12,2.31,2.25,4.78,4.34,7.05,6.63,1.34,1.36,2.52,3,1.49,5.08s-2.85,2.23-4.85,2.18c-8.79-.25-20.73-11.11-21.69-19.88-.7-6.44,3.94-10.14,8.69-11,9.46-1.82,9.41-7.89,9.7-15.23,1.29-32.83,3-65.64,4.53-98.46.07-1.47,0-3,0-4.64-1.95,1.13-1.85,3-2.38,4.51-13.28,38.47-26.24,77.06-41.12,115-3.36,8.55-4.89,10.11-14.19,8.86-5.94-.81-8.06,1.46-10.57,6.13q-45.34,84.35-87.33,170.4c-6.8,14-13.33,28-20.72,41.71-2.19,4-4.79,5.56-9,4.43-2.23-.59-4.19-.65-5,2-1,3.17-5.52,5.34-2.85,9.55,6.72,10.62,11.48,22.18,16.14,33.77.73,1.81,2,2.55,3.4,3.54,2.62,1.86,5.19,3.81,7.64,5.89a5.29,5.29,0,0,1,1.79,6.16c-.85,2.2-2.93,3-5.09,3-7.6-.07-15.21,0-22.78-.56-4.14-.29-7.19-3.37-10-6.15-9.08-8.92-17.92-18.07-27-27-4.2-4.13-5-8.34-1.14-13,5.23-6.29,8.54-14,16.55-18.3,2.72-1.45,6.9-6.24,4.2-12-1.06-2.24,1.15-5,2.22-7.41C114,846.26,135.65,796,160.14,747.05c7.28-14.55,13.92-29.43,20.63-44.26.68-1.51,4-3.87.36-5.46-2.65-1.15-5.54-1.72-7.44,2.32-11.32,24-24,47.31-36.93,70.46-25.1,45-46.62,91.88-71,137.25-3.12,5.79-6.81,7.15-12.25,5.32-3.1-1-4.33,0-5.71,2.56-3,5.55-5.58,10.15-2.53,17.47,3.94,9.48,5,20.15,8,30.14a25.15,25.15,0,0,0,7.31,11.81c3.6,3.3,8.1,7.34,6.14,12.49s-7.88,3.16-12.23,3.46a91.93,91.93,0,0,1-9.68,0c-10.4-.36-18.13-5.37-24.68-13.26-7.72-9.29-13.44-19.69-19-30.29a8.9,8.9,0,0,1,.63-9.68c6.39-9.48,11.53-19.67,22.36-25.9,4.35-2.5,9.93-8.62,6.37-16.28-.82-1.76.49-3.24,1.17-4.76,24.25-54.27,48.86-108.37,74.59-162,12.78-26.62,24.19-53.88,37.29-80.36.72-1.47,2.1-3.19.95-4.8-3.2-4.48-.71-8.11,1.24-12,21-42.22,41.27-84.74,59.82-128.09.61-1.43,2.52-3.31.68-4.38s-2.61,1.59-3.61,2.78c-9.53,11.4-9.58,11.57-23.21,5.35-3-1.36-4.52-1-6.77,1Q122.94,553.21,73,598.25c-2.49,2.24-2.37,3.48-.15,5.76A92,92,0,0,1,85.2,618.89c1.35,2.15,3.87,4.28,1.3,7-2.42,2.56-5,.81-7.26-.45a149.9,149.9,0,0,1-13.54-8.34c-4.56-3.26-8.45-3.68-13.16,0-6.7,5.25-13.78,10.06-20.94,14.69-3.15,2-7.48,5.75-10.57,1.81-2.89-3.69,1.84-6.76,4.27-9.4,4.11-4.46,8.62-8.56,12.91-12.86.6-.6,1.78-1,1.36-2.21-.54-1.54-1.81-1-2.85-.79-7.55,1.83-15.07,3.78-22.65,5.51-3.21.73-7.7,2.5-9.22-1.23-1.81-4.42,2.71-6.49,6.08-8.2,7.76-3.93,16-6.73,24.58-10.25-7.63-1.95-15.31-3.75-22.87-5.92-2.44-.7-6.82.48-6.75-3.49.07-4.36,4.53-3.95,7.52-4.26A63,63,0,0,1,36,582.22c.82.35,1.69.83,2.36-.12.09-.14-.59-.81-.91-1.24a87.74,87.74,0,0,0-10.5-12c-1.37-1.35-2.86-3-1.64-5s3.45-1.92,5.59-1.2C40.16,565.85,46,573.35,52.41,580c2.45,2.54,3.44,3.14,6.28.29,21.59-21.65,43.42-43.08,65.17-64.57q16.62-16.43,33.21-32.87c1.15-1.15,3.11-2.21,2.35-4.19-1.78-4.69,1.06-7.35,3.87-10.32,17.26-18.23,36.42-34.44,54.8-51.47,6.94-6.43,13.08-13.67,20.55-19.38-1-1.77-2.53-1.62-3.72-2.1-8.69-3.46-12.37-8.87-11.36-18,.4-3.55-.6-6-2.53-8.74-5.9-8.37-10.51-17.49-14.71-26.81-3.27-7.26-2.48-14.93-1.76-22.46,1-10.86-2-22.65,4-32.42,9.12-14.86,13.93-33,31.21-42.06,4.94-2.58,8.72-7.22,14-9.58,2.39-1.06,2.6-8.53,0-11.66-3.08-3.7-5.54-7.85-12.12-7.36s-12.06-3-16.12-8.95c-15.6-22.72-28.4-47-40.29-71.76a134.07,134.07,0,0,1-7-19.19c-2.92-9.62,4-19.23,14.8-20.75,8.47-1.2,16.11,1.37,23.34,5.53,15.51,8.92,30,19.45,43.82,30.62,14.65,11.78,29.95,22.68,44.59,34.48,15.65,12.62,31,25.62,47.48,37.23,3.27,2.31,5.23,3.28,8.12-.35,1.7-2.14,4.51-3.4,6.36-5.82-14.3-4-22.13-15.53-33-22.56-4.76-3.08-9.36-6.44-14.24-9.36-1.27-.76-3.26-1.26-3.08-2.95s2.22-1.89,3.58-2.45c8.46-3.49,17.46-5.29,26.38-6.73s16.74-5.48,25.68-9.08c-9.94-10.27-16.41-22.45-25.46-32.68-5.6-6.35-9.37-13.75-13.1-21.22-1.64-3.3-1.21-5.33,2.9-4.58,19.4,3.53,39.1.73,58.54,2.92,3.79.42,4.13-.87,4.39-4.14,1.52-18.66-1.33-37.17-1.87-55.75-.23-8.21-3.1-16.34-4.81-24.5-.27-1.29-1.16-2.79-.07-3.77,1.35-1.22,2.42.34,3.32,1.14,12.42,11.15,26.86,19.63,39.36,30.87,10,9,20.32,17.53,28.55,29.27,6.79-7.44,14-14.09,19.88-22A222.26,222.26,0,0,0,502.85,9.53c2.77-5.29,3-5.25,6.34-.09,8.87,13.77,12.6,28.64,9.81,45-1.47,8.57-1.71,17.33-4.45,26.89,16-4.38,32.53-1.36,47-9.57,1.23-.7,2.71-2.21,4-.69,1.16,1.33-.18,2.8-.78,4.14-2.7,6.08-5.66,12-10,17.16-4.73,5.67-6.91,12.56-9.25,19.37-.74,2.14-1.54,4.28-2.17,6.46-1.13,3.93-5.45,7.84-3.74,11.31,1.47,3,6.52,4.08,9.86,6.22a67.38,67.38,0,0,0,17.66,7.64c6.36,1.87,6.33,1.94,1.46,6.73a131.75,131.75,0,0,1-13.57,11.28,49.16,49.16,0,0,0-6.11,5.1c-2.88,3-6.5,5.89-7.94,9.56-1.61,4.13,4,6.09,5.38,9.67,3.09,8,9.17,13.25,16.5,17.32,1.38.76,3.7,1.33,3.33,3.35-.34,1.85-2.62,1.91-4.2,2.32-9.19,2.43-16,9.31-24.5,13.05-2.31,1-2.54,8.87-.69,11,3.14,3.64,7.22,6.12,10.91,9.08,1.26,1,3.39,1.81,3,3.77-.41,2.18-2.69,1.68-4.27,1.91-3.57.51-7.14,1.06-10.73,1.24-3.31.16-4,1.44-2.54,4.26a4.81,4.81,0,0,1,.25.51c3.37,9.75,3.69,8-5.35,9.85-4.27.89-6.68,2.49-8.1,7.09s1.19,6.08,3.51,8.4c18.78,18.79,28.38,41.69,30.65,68,1.73,20.19-1.08,40.2-1.92,60.29-.22,5.15-.39,10.16,1,15.21,10.94,40.81,22.06,81.61,38.46,120.6,19.66,46.75,36.07,94.9,60.32,139.67,27.78,51.32,62.55,96.84,109.38,132.37,5.27,4,11.13,7.22,16.63,10.92,1.44,1,4.37,1.14,3.68,3.55-.49,1.67-3,1.21-4.63,1.2-21-.15-41.62-2.42-61.57-9.5-12.51-4.45-24.49-10.09-36.57-15.54-.54-.51-1.18-.83-1.81-.33-.15.12.19.85.3,1.3,11,24.14,24.2,47.17,37.16,70.29s26.78,45.8,40.23,68.67c.67,1.14,1.4,2.2,1.26,3.67-.84,8.76,6.79,21.58,14.6,25.18,5,2.32,9.28,6,13.18,9.84,17,16.77,35.74,31.89,50.32,51.08.81,1.06,1.76,2,2.53,3.08,1.79,2.51,3.47,5,2,8.37s-4.57,4.29-7.93,4.47c-9.9.54-19.72-.54-29.54-1.58-13.44-1.42-26.48-4.84-39.66-7.56-8.48-1.75-15.93-5.9-23.29-10.24-3.06-1.8-3.84-4.55-3.87-7.71-.12-14.82.21-29.59,4.41-44,1.28-4.4-6.15-14.34-10.79-14.51s-8-1.83-10.46-6.28c-22-39.37-44.22-78.6-66.35-117.89-8.28-14.68-17.36-28.93-24.54-44.2-3.5-7.44-8.92-10.5-16.94-10.66-11-.22-22-.35-32.81,2.45-17.29,4.46-30.79,14.27-40.88,28.87-3.42,4.94-3.4,5-6.22-.57A758,758,0,0,1,484.5,708.44c-4.93-15.24-11-30.11-14.57-46.28C458.21,674.84,447,687,435.82,699.08c-22.28,24.15-43.38,49.34-65.1,74-2.67,3-2.38,4.77.36,7.3,27.47,25.38,54.05,51.72,82.58,76,16.36,13.9,32.61,27.92,48,42.88.68.66,2,1.45,1.88,2-1,7.23,5.48,8.58,9.26,12,4.53,4,9.25,7.88,13.88,11.8,1.16,1,2.21,2.61,3.5,2.83,8,1.3,9.63,7.76,11.67,13.86,3.64,10.83,6.14,21.95,6.39,33.4.21,9.86-1.65,11.59-11.29,12.37-32.78,2.63-65.63,3.09-98.49,3.19-3.81,0-8.83,1.19-10.57-3.42-2-5.37,1.84-9,5.93-11.7,12-7.9,24.05-15.82,36.34-23.3,9.2-5.61,18.68-10.74,28-17.43-3.46-2.47-6.68-4.62-9.71-7-1.72-1.35-3.08-1-4.57.18-3.52,2.71-6.2,1.36-9.47-1.09C448,907,424.08,884.1,398.53,863.15c-23.75-19.48-47.16-39.5-67.36-62.89-11.79-13.65-12.6-22.16-2.2-37.09,22.84-32.79,48.66-63.14,76-92.23,16.52-17.56,32.86-35.29,49.38-52.85,2.32-2.46,2.95-4.49,2-8-6.57-24.13-13-48.31-17.35-73-1.27-7.16-4-12.15-11.5-15-13.58-5.23-26.57-12-40-17.58-5.42-2.25-7.53-5.62-6-10.91s-.53-8.21-5.31-10.43c-9.75-4.53-17.87-12.16-28.6-14.9-9.68-2.47-9.4-2.6-9,7.26.64,16.7.91,33.42,1.37,50.13.06,2.55.24,5.24-3.16,5.61-4,.43-4.83,2.69-5.24,6.4-4.44,40.4-8.49,80.82-9.93,121.46-.12,3.22,0,6.54-.73,9.64-1.1,4.72,1,5.84,5.12,6.08,8.79.51,17.11,3.16,25.28,6.27a16.9,16.9,0,0,1,4,2.12c1.91,1.43,4.8,2.73,3.76,5.67s-4.06,2-6.46,1.83c-.73-.06-1.45-.19-3.5-.48,3.84,3.47,6.91,6,9.69,8.84,1.52,1.56,3.46,3.6,1.77,6s-4.16,1-6.26.33c-2.3-.72-4.31-2.51-7.26-1.64,1.2,2.28,2.81,4.29,3.45,6.8.59,2.28,1.38,4.67-.78,6.28s-4.06-.08-5.61-1.38c-3.61-3.06-7-6.33-10.54-9.51-.46-.51-1.07-1.06-1.52-.22C331.78,706.15,332.21,706.9,332.34,707.5ZM324.7,281l1-2.28c1.09-2.2,1.81-4.72,3.35-6.53,3.57-4.19,1-5.68-2.57-7.07-17.1-6.7-33.86-3.49-50.52,1.76-3.93,1.24-1.77,4.85-2.35,7.36-.33,1.45-.4,3.24,1.75,3.52,3.46.46,6.39,2.09,9.44,3.65s1.76-.78,1.47-2.05a5.73,5.73,0,0,1,.45-.39c10.91,4.34,12.3,14.57,15,24-2.3-3.64-4-7.62-6-11.46-4.21-8.16-4.27-8.12-8.52-9.12.79,3.66,6.38,5,4.62,9.75l.06-.13c-4.71-4-8.34-9.49-14.85-11-1.59-.37-3.89-1.88-4.64,1.12s2.14,2.07,3.3,2.41c10.06,2.92,16.65,9.37,20.13,19.12a17.18,17.18,0,0,0,2.64,4.91c7.19,9.16,9.11,19.35,5.38,30.45a48.18,48.18,0,0,0-1.91,9.38c-1,7.79-.81,16.11-7.8,21.79-.61.5-1,1-.26,1.79,1.09,1.16,2,.68,2.84-.23,3.17-3.25,4.3-7.43,5.61-11.61,1.18-3.75.25-8.06,3.11-12.06a46.2,46.2,0,0,1-.49,10.85c-.51,4-3.48,7.37-2.86,11.6l.08-.06c-2.29.15-3.26,1.19-2.33,3.49l.06-.07c-1.21-1.39-2-.17-2.42.62-.59,1.11.28,1.57,1.31,1.67l1.34,1.26c.68,5.35,5,8.58,7.08,13.78,1.45-3.39,1.36-6.49,4.07-8.17l.35.38c-.48,2.21-.92,4.42-1.46,6.62-2.07,8.43.83,11.86,8.82,10.38-4.48,5.06-4.48,5.06-2.84,7.79,1-1.24,1.88-2.37,2.76-3.53,6.46-8.51,7.91-8.79,16.73-3.16.82.52,1.07.81,2.1-.15,7.51-7,9.74-6.9,16.61.21.88.92,1.48,2.6,2.94.84,2.35-2.83,5.6-5,5.42-9.47-.28-7.19-.18-14.4-.09-21.6,0-2.71-.69-3.76-3.7-4.25-8.41-1.37-14.82-6.13-19.53-13.2l.61-.61c.85.72,1.69,1.47,2.57,2.15,4.92,3.8,9.27,8.57,15.87,9.55,1.23.18,3.16.79,3.27-1,.17-2.56-.46-5.16-.75-7.74-1.29.17-3.5,0-3.72.59-1.45,3.87-3.65,1.46-5.46.78-4.77-1.77-8.32-5.28-11.55-9-2.83-3.28-4.88-7.35-8.06-10.2-10.87-9.72-13.71-20.68-7.55-34.23a49.32,49.32,0,0,0,4.51-14.36,37.55,37.55,0,0,1,7.67-18.14c.89-1.19,1.59-2.53.29-3.47-1-.75-2.09.49-2.82,1.32a36.47,36.47,0,0,0-5,8.25c-2.62,5.38-3.86,11.27-6.23,17.73-1-4.45-.14-7.76.41-11.08C323.9,283.28,324.3,282.14,324.7,281ZM266,355.54c0-.6-.43-1-.82-.58s.13.67.54.79c5.29,6.2,9.17,14.84,20,11.43a2.85,2.85,0,0,1,2.14.55c3.28,2.44,5.21.2,7-2,2.62-3.22,4.06-10.31,3.24-15.14C284.67,359.65,281.31,360.17,266,355.54Zm66-62.41c8-4.24,16.3-6.32,25.6-3.24-1-5.54-3.47-9.32-6.3-12.87-5.46-6.84-11.85-6.13-15.76,1.75-2.19,4.41-4,9-3.86,14l-.36.79Zm42.43,57,1.26,1.44c-2.54,4.09,1,7.48.94,12,2-4.05,2.28-7.69,2.55-11.2,1.46-18.85,1.57-37.55-7.44-55-1.49-2.87-2.79-7.44-5.28-7.71-5.1-.55-4.51-4.35-5.83-7.06a40.56,40.56,0,0,0-11.69-15c-1.24,1.82-.81,2.41-.21,2.94a38.14,38.14,0,0,1,11.95,19,5.92,5.92,0,0,0,2.77,3.44c6.77,4.33,9.6,10.93,10.56,18.59,1.41,11.28-2,22-3.71,32.93C369.79,347.45,371.8,350.72,374.39,350.16ZM352.27,339.6l2.71-.79c4.71-1.19,8.4-2.89,11.45-7.64,5.43-8.48,6.76-22.29.8-30.12-3.07-4-6.63-7.71-12.24-8.09L352.4,292c-12.46-2.27-23.77,5.23-26.74,17.89-3.12,13.27,1.79,23.75,14.21,28.57l2.46.86A23.31,23.31,0,0,0,352.27,339.6ZM466.54,568.84c1.6-.32,1.61,2,3.14,1.88.83-3.05-1.95-5.82-.63-8.9,1.34.65,1.52,2,2,3.22,2.52,6.77,6.54,11,14.61,11,6.22,0,12.46.73,18.73.71,7.32,0,15.27,1.61,17-10.08,1.85,4.21-.55,6.4-.51,9.47,4.37-.83,8.42-1.72,12.51-2.33,2.71-.4,2.9-1.41,1.85-3.74-2.69-5.94-5.13-12-7.91-18.55-6.63,7.43-14.4,6.79-22.42,4.49-11-3.14-21.21-8-31.49-12.85-5.19-2.43-10.4-4.81-16.07-7.42.9,12.14,4.58,23,5.72,34.3.16,1.63,1.24,2.56,2.67,2.25,2.15-.46-.08-2.26.69-3.26ZM271.35,353.74l2.52.73c13.33,3,24.19-4.38,27.87-18.85a27.18,27.18,0,0,0-15.19-32.09c-10.09-4.68-21.79-.51-29.55,10.54C248.37,326.35,256.26,348.15,271.35,353.74Zm-15.14-64.49c-6.79,8.59-7.25,18.78-6.32,30.27a15.16,15.16,0,0,1-1.69-2,11.76,11.76,0,0,1-.76-2.13c-2.47-11.47,1.15-21.35,8.24-30.16,1.78-2.21,3.06-4.13,1.58-6.95-8.5,4.76-17.37,16.11-21.07,26.09-6.51,17.55-7.05,35.54-4.68,53.85.47,3.63,2.2,5,6.06,4.7-8.59,5.44-14.37,12.46-10,22,5.24,11.52,15.73,9.15,25.63,6.12-.59,3.36-7.6,3.08-3.15,8.16,15.3,17.45,35,23.21,58.25,23-7.92-13.43-15.4-25.91-22.66-38.52a12.75,12.75,0,0,0-8.39-6.64c-9-2.52-16.13-8.26-21.69-15.81-.7-.95-2-1.94-.84-3.43,1.64.45,2.31,1.93,3.26,3.06a44.94,44.94,0,0,0,18.61,13.67c1.29.49,3.15,1.78,4-.05.75-1.66-.35-3.25-2.34-3.85a11,11,0,0,1-2.05-1c-12.11-6.66-31.09-34.29-24-52.6a8.4,8.4,0,0,0,.31-3.9,33.06,33.06,0,0,1,5.16-22.8c.77-1,3.05-2,1.26-3.27C257.34,285.94,256.81,288.1,256.21,289.25ZM356.4,703.19h1.45l-.45-1.28c-6.74-8.88-17.23-12.57-26.14-18.63,8.4.9,16.12,4.23,25.32,5.07-2.15-3.18-4.8-4.2-7.35-5.16-8.73-3.26-17.67-5.7-27.07-6-2.37-.08-4.43.12-4.25-3.49,1.19-24.07,1.81-48.18,4.19-72.19,2.1-21.14,4.1-42.3,6.4-63.42.48-4.36-.85-5.12-4.8-4.56a41.1,41.1,0,0,1-13.05,0c-2.17-.39-3.33,0-4.1,2.46-1.93,6.17-3.78,12.32-4.09,18.81-2,41.15-4,82.3-5.82,123.46-.18,4-1.14,5.64-5.28,6a18,18,0,0,0-11,5.48,5.78,5.78,0,0,0-1.91,5.61c1.44,7,11.48,16.17,18.47,16.84.95.09,2.07.31,2.6-.58.79-1.31-.52-2.06-1.26-2.79-2.57-2.53-5.27-4.92-7.85-7.45-1.22-1.2-2.36-2.6-1.45-4.51a4.56,4.56,0,0,1,4.1-2.6,19.58,19.58,0,0,1,12.4,3.32c9.19,5.84,18,12.07,22.85,22.36.67,1.42,1.45,3.72,3.5,2.91s.94-3,.74-4.58c-1.19-9.81-6.86-17-13.74-23.56-1.48-1.4-3.52-2.41-4.48-5.81,12.51,7.86,22.93,16.4,33.38,25-3.68-14.07-14.51-21.81-26.37-29.76,6.74.1,10.8,3.76,14.55,7.23C341.89,697,348.89,700.47,356.4,703.19Zm69.65-225,1.3.45c0-.48,0-1,0-1.45-5.54-18-8.48-36.53-11.1-55.09-4.62-32.68-7.13-65.61-11.89-98.29-.91-6.25-2.73-10.52-7.37-14.24-8.68-7-16.33-15.1-24.77-23.21-.3,4.53-.43,4.6.46,6.2a78.24,78.24,0,0,1,10,38.66,11.74,11.74,0,0,0,3.79,8.91c6.42,6.55,5.27,21-2.48,25.24-5.53,3-6.21,6.77-5.79,12a53.81,53.81,0,0,1-.26,7.39c-.62,10.64-3.66,20.91-4.85,31.47-.35,3.05-.24,4.6,3.81,4.63,10.79.1,14.76,7.75,9.22,17-3.33,5.58-8.08,9.92-12.86,14.44C390.05,462.85,409.21,468.16,426.05,478.21ZM763.56,822.58c.89.62,2.1,1.46,2.85.53s-.67-1.27-1.33-1.7c-14.89-10.89-29.14-22.54-42.06-35.75-41.81-42.77-72.06-93.09-95.9-147.54-13.21-30.18-24.57-61.12-37.19-91.55-10.79-26-20.38-52.61-27.49-80-3.47-13.33-7.31-26.55-11-40-1.43,1.25-1.38,2.64-1.53,3.93-2.68,23.19-5.09,46.42-9.32,69.39-2.92,15.81-3.82,32.08-10.4,47.07-.82,1.86.06,3.34.67,4.87,10.88,26.9,23.2,53.17,38.1,78q21.5,35.85,46.52,69.47a532.38,532.38,0,0,0,59.38,67.45c15.69,15.05,34.88,25.49,52.84,37.51C738.88,811.8,751.48,816.69,763.56,822.58ZM496.24,304.16c8.44,8.23,13,19,18.9,28.88,1.26,2.1-.12,3.57-1.17,5.14-3.26,4.89-6.57,9.75-9.73,14.7-.86,1.35-2.15,2.76-.87,4.66,3.82,5.65,7.58,11.35,11.52,17.26,2-8.47.67-16.85,4.41-26.06a44.71,44.71,0,0,1,.14,13.54c-1.35,13-2.55,26.07-4.07,39.08-4.19,36-5,72.36-10.09,108.29-.72,5.12-.11,8.65,5.53,10.07,1.82.46,3.9,1.21,5,3.76-7.59-1-14-4.33-20.42-7.4-30.07-14.38-60.32-28.4-89.25-45-4.83-2.77-8.74-1.83-12.15,1.9A36.11,36.11,0,0,0,384.48,492c-.8,5.1.33,8.15,5.65,10.47,27.23,11.89,54.26,24.27,81.36,36.47,11.73,5.28,23.18,11.26,35.76,14.43,11.19,2.81,17.41-.25,21.55-10.91,2.48-6.38,3.65-13.13,4.9-19.84,6.33-34,11-68.21,14.3-102.58,2.46-25.28,5.38-50.65,2.82-76.15-2.61-26-13.22-48-32.85-66.27-6.25,13.57-16.81,21.79-29.83,27.17-2,.84-2,2.36-2,4.17-.15,40.13,2.07,80.06,10,119.53,2.27,11.36,5.07,22.54,10.05,33.48,1.46-2,1-3.73,1.19-5.37,2-21.16,3.71-42.36,6.11-63.48.83-7.39,1.17-14-3.38-20.55-3.8-5.5-10.43-10.76-9.87-17.24s6.3-11.87,10.47-17.27c2-2.59,1.63-4.56.1-7.07-4.36-7.1-8.59-14.29-12.75-21.51-.95-1.65-3-3.09-1.71-5.5ZM559.91,76.38C545.57,82.2,530,80.61,515.23,84c-3.82.88-4.39-.43-3.54-4.24,3-13.52,5.84-27.14,4.77-41.1a50.52,50.52,0,0,0-10.67-28.19C496.45,28.19,485.47,44,471.7,57.91c-8.06,8.12-8.23,8.53-15-.83-7.28-10.07-18-16.23-26.5-24.76-9.92-9.94-22.33-16.22-33.28-25.94.26,7.17,3,13,3.23,19.12.74,20.29,3.56,40.49,2.31,60.88-.28,4.55-1.47,5.66-6.07,5.25-19.79-1.76-39.74.27-60.17-2.9,3.14,6.8,5.93,12.88,10.34,17.84,10,11.25,17.19,24.62,27.62,35.49,1.91,2,2.08,3.55-.7,4.73-8.69,3.71-17.08,8.05-26.67,9.52a131.19,131.19,0,0,0-25.31,6.32l5.35,3.65c7.17,5,14.66,9.56,20.94,15.67a43.65,43.65,0,0,0,18.82,11.31c5.2,1.44,4.57,3.2,1.44,6.23-8.06,7.78-16,15.66-24,23.49-1.26,1.24-2.3,2.27-1.2,4.37.89,1.7,2,1.87,3.62,2,9.47.62,18.93,1.56,28.41,1.93,4.41.17,5.29,1.87,4.12,5.66-.78,2.54-1.35,5.13-2.16,7.66-1.82,5.72-3.72,11.41-5.78,17.67,8.68-.34,16.67.93,24.54-.63,3.69-.74,4.85.19,4.78,3.78-.12,6.42,0,12.86,0,19.89,3.14-1.13,5.92-2.27,8.78-3.11,3.17-.94,3.55-2.36,2-5.29a72.89,72.89,0,0,1-6.8-19.24c-.73-3.6-1.57-6.26-6.23-6.21-3.28,0-5.91-2.31-8.09-4.84-7.24-8.42-5.65-23.82,3.51-30.53,2.56-1.87,3.16-3.38,2.67-6.46a160.6,160.6,0,0,1-2.26-21.51c-.34-16.29-2.27-32.74,1.8-48.8,6.51-25.69,21.4-44.44,47.35-52.2,25.29-7.57,46.76,3.09,67.15,16.59a8.88,8.88,0,0,1,3.89,10c-1.53,4.79,0,8.81,1.15,13.15,1.84,6.76,3.34,13.62,5.08,20.41.55,2.17.8,4.39,2.28,6.35,8.17,10.83,8,22.39,4.47,35.11-2,7.12-4.27,15.9,4.39,21.79a8.89,8.89,0,0,1,3.11,5.27c.73,3.78,2.49,2.92,4.74,1.68,7-3.91,13.26-9.35,22.22-11.7-6.06-4.07-11.92-7.12-14.88-13.22a45.9,45.9,0,0,0-8.59-12.66c-2.1-2.1-1.84-3.51,0-5.69,5.48-6.61,11.21-12.86,18.36-17.75,4-2.71,7.91-5.61,10.83-10.2-11.35-2-19.8-8.91-29.36-13.43-2.92-1.38-2.64-3.17-1.71-5.5,2.25-5.63,4.67-11.2,6.61-16.93,2.75-8.15,6.14-15.83,11.6-22.64,2.59-3.24,5.53-6.68,5.55-11.35l.79-.2-.15-.5ZM362.84,781.26l-.49-.49c.1-2,1.39-3.45,2.6-4.93q31.77-39.09,66-76,27.11-29.24,53.13-59.39c3.87-4.47,8.77-8.28,11.37-14.18-3.78-.47-7.32-.45-10.19-3a14.76,14.76,0,0,1,6-.48c9.91,1.54,19.77,3.42,29.7,4.8,4.17.58,6.09,3.24,8.06,6.32C565.19,690.26,600.58,747.1,634,805.15c19,33.05,37.72,66.29,56.67,99.39,9.81,17.12,18.69,34.75,28.74,51.75,3.25,5.49,7.17,6.77,12.65,5.92a35.45,35.45,0,0,0,13.83-4.9c7.13-4.53,7.7-7.62,3.48-14.8-14-23.7-28.2-47.26-41.62-71.27-18.7-33.47-35.19-68.14-53.62-101.75-10.88-19.83-19.76-40.59-34.06-58.92-28.21-36.17-54-74.24-73.5-116.11-1.58-3.4-3.26-3.87-7-3.19-21.43,3.88-42.93,6.61-64.63,1.53-7.55-1.77-7.62-1.46-6.36,6.63.6,3.88.18,7.31-2.68,10.55-9.93,11.22-19.91,22.45-30.21,33.27-27.61,29-55.29,57.92-80.05,89.48-9.13,11.65-18.09,23.42-26.33,35.71-6.27,9.35-5.79,16.73,1,25.63,12.92,17.09,29.61,30.43,45,45.09,5.89,5.62,12.24,10.77,18.4,16.12,13,11.3,27.2,21.25,39.7,33.23,13,12.48,27.5,23.26,41.53,34.56,2.06,1.67,4.16,4.17,7.53,2.12a43.63,43.63,0,0,0,17.31-19.09c1.06-2.25.83-3.86-1-5.53-7.44-6.77-14.64-13.81-22.23-20.39-12.76-11-26.41-21.15-38.5-32.87-22.76-22.08-47.06-42.51-69.19-65.24C366.73,780,365,779.89,362.84,781.26ZM256.56,436.8c.28,2.29-1.15,3.2-2.1,4.29q-16.74,19.41-33.56,38.74a27.82,27.82,0,0,0-4.56,7.11c-21.31,48.17-42.68,96.33-66.91,143.11-4,7.76-2.62,13.05,2.23,18.83a37.52,37.52,0,0,0,3.48,3.76c13.78,12.38,28.78,22.92,46.35,29.22,13.59,4.87,27.42,8.83,42,9.23,4.36.12,7.05-1.14,8.4-5.62,1.54-5.06,3.85-9.88,5.68-14.86,15.92-43.38,31.86-86.77,44.69-131.21,6.67-23.11,14.73-45.86,18.18-69.81.24-1.68.38-3.54,2.28-5a52.63,52.63,0,0,1-.59,12.92c-2.64,16.34-7.68,32.06-12.62,47.78-1.35,4.26.06,5.41,3.75,5.67,6.3.44,12.43-1,18.64-1.63,4-.44,5.07-2.24,4.94-5.89-.65-18-1.18-36.06-1.75-54.09-.06-1.95-.26-3.43-2.68-4.3-6.56-2.35-10.06-7.9-12.65-13.9-2.32-5.37-4.05-11-6.05-16.52-3.32-9.15-3.35-8.81-12.75-9.39-21.85-1.35-41.33-8-54.83-26.57-2.22-3-3.24-1-4.69.33-17.87,16.47-35.84,32.83-53.56,49.47-8,7.53-16.24,14.88-23.55,23.16-1.64,1.85-2.79,3.46-2.12,6,3.53,13.52,10,24.32,24.36,29,4.94,1.61,7.54.84,10.78-3.25,17.21-21.73,35.58-42.49,54.07-63.14C252.73,438.82,253.66,436.59,256.56,436.8ZM197.43,698.92c-1.49,0-3.12.38-4.46-.07-5.48-1.8-7.43,1-9.49,5.63C177,719.23,170.06,733.82,163,748.3c-17.06,34.75-33.3,69.89-49.18,105.2-6.61,14.7-13,29.49-19.76,44.15-1.74,3.8-1.06,6.22,2.36,8.55,4.3,2.93,9,4.65,13.83,6.52,5.53,2.17,8.49.59,11.09-4.6,7-14.08,13.81-28.3,20.75-42.43,26.25-53.53,53.21-106.7,81.57-159.15,2.24-4.14,7.28-8.85,5.84-12.38-1.67-4.1-8.64-3.09-13.27-4.3-26-6.79-48.33-19.66-66.85-39.07-3.39-3.55-3.5-.15-4.32,1.6C124.48,696.2,103.87,740,83.54,783.88Q60.92,832.69,39,881.79c-6.95,15.64-5.87,17.53,9.46,25.55,9.2,4.81,11.79,4.11,16.42-5.19,11.69-23.44,24.6-46.25,35.78-70,8.57-18.19,18.56-35.69,28.07-53.42,14.54-27.09,29.59-53.93,42.85-81.7.88-1.86,1.64-4.25,4.33-3.75C183.07,694.62,190.57,694.61,197.43,698.92ZM517,147.35c-1.43-9.68-4.14-18.3-7-26.87a4.58,4.58,0,0,0-1.79-2c-18.86-12.76-45.43-14.18-63.08-.8-8.63,6.53-17,13.44-25.73,19.79-3.68,2.67-8.17,8.27-12.7,3.29-4.34-4.76.44-9.61,3.74-13.38a144.4,144.4,0,0,1,19.68-18.12c14.7-11.59,30.68-19.7,50.27-17,.34.05.72-.18,1.43-.38-11.63-4.81-27.36-5.17-40.63-1.11C418.12,97.78,398,125.37,396.83,151c-1.43,30.92,1.91,61.4,7.5,91.74,2.52,13.68,5.78,27,12.84,39.22,7,12,17.08,19.48,30.54,22.76,7.92,1.93,15.81,1.58,23.77.73,24.82-2.64,44.27-18.13,47.68-43.48a435.79,435.79,0,0,0,4.1-62.41c0-1.37.7-3-.78-4.15-18.63,11.43-34.79,11.41-45.79,0-8.5-8.83-9.28-28.64-1.58-40C483.32,143.34,498.57,140.19,517,147.35Zm16.12,669c21.29-29.54,51-36.24,85.4-31.87-7.53-13.4-15.77-25.22-23.12-37.56-20.78-34.87-42.25-69.31-63.85-103.67-5.52-8.79-11.6-13.81-22.08-14.82-6.55-.62-11.48-.48-15.53,5.43a84.24,84.24,0,0,1-10.83,12.45c-3.82,3.73-4.85,7.63-3.45,12.77a146.83,146.83,0,0,1,2.79,15.09C490.65,724.49,509.05,771.18,533.12,816.35ZM501.54,515.71c.9-7,1.7-13.06,2.43-19.09,1.4-11.62,3.42-23.08-1.29-34.7-12.37-30.48-14.57-63-18-95.24-1.94-18.33-1.28-36.81-1.26-55.23,0-4.1-.85-5.1-5.15-4.09-8.53,2-17.4,2.95-26,1.25-5.68-1.13-6.24,1-6.46,5.52C443,372,441,429.88,450.56,487.44c.35,2.1.55,4,2.88,5.09C469.31,500.11,485.13,507.79,501.54,515.71ZM225.23,201.28c5.18-21.31,20-29.36,40-31.93-17-15.43-32-31.88-47.8-47.87,3.43-1.9,4.6.55,6.13,2,13.74,13.36,26.31,27.9,40.65,40.67,3.26,2.9,6,6.15,7.35,10.58,1.16,3.78,3.93,5.79,8.29,6.55,11.93,2.1,23.88,4.3,35.4,8.17,6,2,11.55,4.51,10.66,12.5a2.8,2.8,0,0,0,1,1.94c5.48,5.19,9.42,11.59,13.7,17.85l13.65-12.71a33.09,33.09,0,0,0-2.93-2.64c-14.5-10.38-28.34-21.6-42.2-32.83C292.42,160.11,275.45,147,258.38,134c-13.58-10.31-27.22-20.58-41.91-29.36C211,101.43,205.31,99,199,98.3c-13-1.45-20.45,8.22-16.73,20.58,5.83,19.42,16.74,36.41,25.51,54.4C212.46,182.89,219.08,191.56,225.23,201.28ZM442.4,474.94a28.78,28.78,0,0,1-6.49-13c-5.29-21.73-11.78-43.15-16.19-65.09a11.15,11.15,0,0,1,.94-7.66c3.7-7.25,7.1-14.65,10.73-21.94,1.34-2.69,1.21-4.63-1.11-7-5.92-5.94-10.17-13.2-14.94-20a4.85,4.85,0,0,1-.32-5.69c4.09-7.91,7.82-16,11.81-24,4.11-8.2,4.18-8.17-2.54-14.56a16.21,16.21,0,0,1-1.6-1.61c-2.82-3.56-5.08-9.26-8.55-10.13-3.83-1-8.78,2.48-13.24,4-3.21,1.12-4.42.26-4.15-3.34.42-5.67,1.34-11.33.79-17.06-.2-2.11-.34-3.63-3.24-3.06-7.35,1.44-14.79.08-22.18.45-4.95.26-5.15-1.81-3.69-5.77,2.62-7.1,4.88-14.34,7.23-21.54.42-1.3,1.57-3.44-.9-3.54-9.7-.42-19.34-2.31-29.08-1.89.8,8.35,4.05,14.35,9.64,19.88a57.8,57.8,0,0,1,14.78,25.89c.39,1.42.55,2.91,1.84,4,10.63,9.35,20.22,19.84,31.69,28.93,1.19-4.05-.62-8.1,1.32-12.78,1.47,3.3,2.32,5.71,2.16,8.31-.87,13.95,1.21,27.63,3.44,41.33,4.49,27.54,5.19,55.54,10.14,83.06,2.82,15.68,5,31.45,10,46.64.58,1.76.61,3.67,2.67,4.72,4.52,2.3,8.81,5.08,14.19,6.84-.83-10.79-2.78-21-3.93-31.3-5.51-49.1-3.3-98.26-.23-147.38.4-6.35-4.47-4.86-7.11-6.66-3.44-2.35-3.6,1.41-4.43,3-4.63,9.12-8.93,18.41-13.66,27.47-1.22,2.34-.77,3.89.51,5.66,4.76,6.62,8.87,13.75,14.79,19.45,2.09,2,2.38,3.7,1.38,6.46-2.94,8.06-7.62,15.25-11.11,23a12.46,12.46,0,0,0-1.07,8.09c3,15.66,7.73,30.88,11.39,46.36C436.6,454.11,439.72,464.41,442.4,474.94ZM43.5,595.51C30.25,600.45,17,602,7.24,611.36c13.45-.29,25.76-7.3,40.31-6-8,9.62-17.84,16.36-24.81,26.15,3.25,1.09,5.31-.53,7.26-1.82,4.75-3.12,9.31-6.53,14-9.74,17.12-11.67,12.81-11.27,28.92-1.2,3.48,2.18,6.78,5.21,12,5.16-2.75-5.27-6.11-9.29-9.5-13.34-2.67-3.18-8.17-5.82-7.47-9.53s5.16-6.78,8.37-9.71q30.89-28.25,62-56.3,16.24-14.71,32.52-29.4c1.12-1,3.2-1.9,1.19-3.94a52.14,52.14,0,0,1-11.56-18.22c-22.58,24.61-47.29,45.79-69.81,69.2C80.09,563.63,69,574,58,584.53c-3.68,3.52-4.28,3.25-5.87-.76a7.14,7.14,0,0,0-1.78-2.2c-4.07-4-8-8.14-12.32-11.82-2.63-2.24-5.56-4.53-10.21-4.27,5.44,6.88,12.26,12,15.52,20.62-11.59-1.79-22.5-5.31-34.7-1.81C20.41,588.33,32.24,588.82,43.5,595.51ZM293.26,222.06c4.32,4.42,4.31,8.69,4.52,12.88.23,4.6,4.42,9.22,8.45,8.91,5.3-.41,5.92-4.49,6.12-8.68a79.41,79.41,0,0,0-1-18.73c-.64-3.41.53-4.21,3.6-2.42a33.72,33.72,0,0,1,10.33,9.61c8.24,11.29,10.08,24.77,13.34,37.79.83,3.35.58,9.07,4.28,8.83,4.09-.27,3.67-5.94,3.8-9.57.76-21.92-7.37-40.31-22.59-55.8-1.17-1.2-3.21-2.45-3.24-3.71-.12-6.66.08-6.72-6-8.91-10.57-3.85-21.73-5.28-32.58-7.95a29.42,29.42,0,0,0-19.49,1.87c-15.67,7.07-21.37,21.69-8.17,34.25a11,11,0,0,1,3.13,6.52,221.42,221.42,0,0,1,2.76,32.32c.11,8-.71,16,.53,23.91.3,1.91.43,4,2.89,4.27,2.23.27,3.39-1.19,4.34-3a16.13,16.13,0,0,0,2-5.88,96.24,96.24,0,0,0,.55-17.06c-1.1-14.18-2.25-28.33-5.48-44,7.36,6.84,14.76,11.38,18.06,21.62-3.78-2.5-4.15-6.3-7.87-6.85-.09,6.94,2.55,12.12,8,15.76a6.89,6.89,0,0,0,10.62-3.54c.83-2.46.85-5.21,1.13-7.84C295.74,232.15,293.71,228,293.26,222.06Zm30.87,186.58a9.19,9.19,0,0,1,1.89,5.69c.15,2.32.16,4.85-2.3,5.95s-3.88-.93-5.31-2.37c-2.71-2.74-4.29-6.2-5.88-9.66-5.08-11-10.13-22.09-18.07-31.48-2.09-2.47-4.22-4.9-7.19-6.37-1-.5-2.1-1.11-3.15-.2a2.56,2.56,0,0,0-.65,3.12c1.06,2.42,2,4.9,3.32,7.2,12.49,22.27,27.89,43,35.1,68a21.9,21.9,0,0,0,2.51,5.06c2.74,4.54,6.33,8.46,11.76,9.08a62.84,62.84,0,0,1,30.46,11.57c3.75-8.77,4.78-10.15,11.54-15.48-3.42-2-7.23-3.44-9.7-6.56a51.28,51.28,0,0,0,16.35-17.66,7.53,7.53,0,0,0,.64-6.07c-1.51-4.82-5.64-5.12-9.68-5.22-4.26-.1-3.23,3.44-3.54,5.81-.39,2.91-.39,5.87-.62,9.88a12.22,12.22,0,0,1-2.1-8c.5-6.81.8-13.66,1.77-20.41,1.86-12.94,5.34-25.71,3.86-39-.71-6.39-1.07-12.92-4.88-18.48-1.17-1.71-2.56-3.93-4.86-3.33-2.84.74-1.65,3.54-1.46,5.38,1.58,14.95,1.53,29.93,1.29,44.94-.09,6.05-4,11.55-1.23,18.61-1.47-1.24-2.05-1.71-2.6-2.21-4.34-3.9-6.34-9.42-9.72-14-2.39-3.22-5.51-5-9.3-2.4-3.39,2.3-4.29,5.3-2.05,9.26s3.73,8.1,5.56,12.17c-5.05-2.84-6.22-8-8.49-12.4-6-11.57-9.81-11.75-17.5-1.48-3.71,5-1.26,7.17,3,10C323.33,414.46,323.71,411.72,324.13,408.64ZM741.72,983.48c-.41.63-.91,1.07-1,1.57a195.13,195.13,0,0,0-2.9,40.09c.09,2.16,1.5,3.35,3.17,4.39,6.63,4.14,13.5,7.62,21.26,9.19,10.36,2.09,20.62,4.8,31,6.47,12.13,1.93,24.37,3.31,36.73,2.71,2.24-.11,4.15-.53,5.31-2.59s-.44-3.64-1.56-5c-4.22-5.33-8.21-10.91-12.92-15.79-14.08-14.6-29-28.36-44.09-41.9-3.16-2.83-6.68-7.14-10,.18-.46,1-2,1.79-3.14,2.27C756.14,988.07,748.69,989.13,741.72,983.48Zm-277.26,3.93c13.07-.2,26.14.25,39.21-1.06,11.27-1.13,22.62-1.68,33.94-2.31,5.16-.29,7.27-2.89,7.51-7.89.19-3.86-.79-7.52-1.23-11.27a116.42,116.42,0,0,0-6.71-26.32c-1-2.77-1.72-3.94-4.86-1-7.49,6.86-18.89,7.53-28,1.93-3-1.85-4.8-1.49-7.48.22-16.1,10.27-32.33,20.36-48.5,30.53-4.64,2.92-9.33,5.78-13.83,8.91-2,1.37-4.14,3.12-3.18,6.08s3.66,2.19,5.81,2.2C446.23,987.45,455.35,987.41,464.46,987.41ZM257.77,258.25c-.17-5.31.09-11.17-.95-17-.57-3.15-1.54-3.25-4.07-2-4.13,2.11-7,6.13-11,8-16.55,7.8-20,25.52-29.5,38.56-5.2,7.13-3,16.55-4.39,24.89-3.46,20.88,3.27,38.8,15.14,55.37,2.55,3.56,4.49,3.24,6-.87a7.93,7.93,0,0,0,.14-3.88C227,349,226.24,336.59,228,324c2.41-16.8,7.54-32.55,21-43.44,6.88-5.55,10.13-11.05,8.7-19.51A21.54,21.54,0,0,1,257.77,258.25Zm215.29-83c-.3,16,9.12,25.67,25.81,25.7,14.45,0,27.82-8.07,27.91-26.93.08-15.48-11.38-27.6-26.82-28C484.09,145.52,473.39,157.16,473.06,175.25ZM50.44,987.46c3,0,4.38.14,5.68,0,2.54-.31,6.12,1.28,7.39-1.28,1.51-3.06-1.74-5.39-3.46-7.78a10.3,10.3,0,0,0-2-2c-3.7-2.91-5.82-6.67-7.24-11.19-3.31-10.49-5.54-21.23-8.26-31.86-.44-1.71,0-4-3.26-4.23A19.29,19.29,0,0,1,24,919.46c-1.88-3.06-2.92-2.84-5.23-.52-6,6-10.16,13.18-14.52,20.28a6.58,6.58,0,0,0-.11,7c4.83,9,9.69,17.94,15.85,26.2C28.16,983.38,38.2,989.34,50.44,987.46ZM767.6,827.9C720,806.15,677.09,779.44,643.93,739c-1.18,1.81-.71,2.68-.28,3.5q14.4,27.43,28.79,54.88c1.07,2.06,2.86,3,4.74,3.82,10,4.57,19.91,9.3,30,13.55C726.22,822.68,746.16,826.55,767.6,827.9ZM117.94,977.39c3.61,0,7.22.08,10.83,0,3.12-.1,3.79-1.6,1.62-3.87a28.68,28.68,0,0,0-9.18-6.58c-3.61-1.59-3.53-1.69-2.85-5.33.08-.47-.37-1.05-.6-1.56-3.57-7.74-7.16-15.46-10.71-23.2-2.32-5.06-5.53-8.64-11.74-8.73-2.1,0-4.14-1.72-6.29-2.41-2.82-.89-3.44-6.09-6.57-4.65-2.63,1.21-4.25,4.69-6.21,7.25-1.85,2.4-3.48,5-5.34,7.36-2.55,3.27-2.2,5.93.81,8.86,7.62,7.41,15.22,14.87,22.42,22.68C100.65,974.25,107.62,979.51,117.94,977.39ZM511.78,112a9.88,9.88,0,0,0-4.6-7.36c-16.11-10.35-33.45-13.59-51.57-7.12s-31.93,19.4-44.65,33.39c-1.95,2.15-4.66,5.48-2.06,8,2.23,2.13,5.25-.82,7.4-2.45,8.33-6.29,16.45-12.84,24.74-19.18,6.22-4.74,12.85-8.79,20.69-10.25,16.06-3,31.36-1.26,45.37,7.72C510.53,117,511.8,115.82,511.78,112ZM271.11,233.81c.83,8.37,2.06,16.72,2.34,25.1.15,4.73,1.19,4.91,5.44,3.77,17.81-4.82,35.7-7.58,53.09,1.81,1,.53,2,1.29,3.15.51,1.49-1,.81-2.29.5-3.57-1.71-7-3.26-14-5.14-21-1.09-4-8.5-8.91-12.74-9.09-2.48-.1-2.67,1.26-2.9,3.15-1.46,12.26-6.19,14.77-17,8.81-1.94,5.17-5.31,9.56-11.2,8.52C276.93,250.13,274.28,241.84,271.11,233.81ZM459.64,611.38c5.37-3.79,6.58-8.06,5.37-14-3.45-16.89-7.05-33.81-9.07-50.9-1.16-9.85-4.95-15.55-14.44-17.57a7,7,0,0,0-1.25,0C445.49,556.65,452.43,583.89,459.64,611.38ZM502.05,909c-3.66,5.69-7.32,11.12-13.05,15.4,6.4,4.54,12.12,9.23,18.43,12.91,6.47,3.77,13.46,2.91,20.1-.27,3.69-1.77,4-3.78.76-6.66A294,294,0,0,0,502.05,909ZM735.4,965.11c2.2,3.74,4.34,7.28,6.41,10.87,4.79,8.33,12.28,10.43,20.7,5.86,2.56-1.39,3.83-2.93,2-5.82-4.11-6.53-8.13-13.12-12.3-19.87C747.58,961.15,741.54,962.9,735.4,965.11ZM292.55,302.68c-3.05-7.08-7.84-10.6-12.9-14.1-6.35-4.37-11.31,1.2-16.93,1.76-4.55.46-8.13,10.22-7.67,20.47C265.08,297.85,277.38,295.73,292.55,302.68ZM483.74,579.61c1.59,12.23,2.24,12.84,13.9,13,1.7,0,3.4,0,5.1,0,9.57-.13,9.57-.14,6.43-9.4-.59-1.72-.68-3.65-3.44-3.59C498.4,579.72,491.07,579.61,483.74,579.61Zm-212-398.68c-3-3.64-4.58-8.31-10-7.79a40.21,40.21,0,0,0-20.39,7.71c-1.46,1.07-2.74,2.15-1,4.05,2.73,2.95,3.81,7.32,7.88,9.07.22.09.87-.65,1.23-1.08C255.14,186.14,262.55,182.42,271.71,180.93ZM236.38,186c-4.41,4.1-6.58,8-7.21,13.18-1.1,9.16,4.46,15,13.63,14.18,1.45-.12,2.72.09,2.74-2.37C245.62,201.46,245.29,192.2,236.38,186Zm159.1,281.55c-3.38-1.78-6.05-3.15-8.68-4.58-5.51-3-10.69-.72-14.71,6.51-2.85,5.13-2.29,6.5,4.16,10.26,1.14.66,2.33,1.27,3.4,2,2.44,1.75,4.05,1.81,5.55-1.38A32.15,32.15,0,0,1,395.48,467.57ZM34.67,902c-2.57,4-5,7.63-7.19,11.32-.73,1.2-2.14,2.28-1.25,4a15.64,15.64,0,0,0,10.34,8.16c3.93,1,3.6-3.9,5.45-5.92.61-.68.78-1.73,1.35-2.46,3.55-4.63,4-8.31-2.48-10.8C38.68,905.44,36.87,903.54,34.67,902ZM339,342.25c1.93,4,5.06,6.8,8.22,9.43,5.47,4.54,10.89,3.5,14.6-2.5a3.76,3.76,0,0,1,1.53-1.62c6.28-2.2,5.35-7.6,6.29-12.91C357.83,343,354.64,343.74,339,342.25Zm58.22-124.58c-9.78,6-11.52,20.55-3.88,27.91a9.84,9.84,0,0,0,6,3c2.18.2,3-.29,2.51-2.81C400.13,236.66,398.76,227.5,397.18,217.67Zm148.27,27.19c-1.26-2.68-3.61-3.11-4.91-4.65-3.88-4.57-7.53-6.55-11.42.08-1.13,1.93-4.64,1.56-4.8,5-.24,5.24-1,10.46-1.46,15.71,9.6-.51,9.6-.51,6.94-8.56-.11-.36-.29-.7-.4-1.06-1.1-3.36-.73-5.35,3.65-5.29C537,246.09,541,245.32,545.45,244.86ZM350.54,251.6c-.54,4.21-.92,7.32-1.33,10.42-.24,1.74.62,2.69,2,3.7a37.83,37.83,0,0,1,10.92,13.6c1.38,2.68,2.89,5,6.63,6.46C366.26,272.21,359.93,261.68,350.54,251.6ZM106.77,915.1c-2.58-1.13-5-2-7.28-3.21-6.51-3.4-6.48-3.44-9.9,2.93a15,15,0,0,1-1.14,1.94c-1.82,2.37-.81,4,1.19,5.64,6.22,5,10.56,4.24,14.54-2.68C105,918.26,105.83,916.79,106.77,915.1ZM526.57,211c-.65,9.43-1.29,18.61-2,28.25C534.77,233,535.74,217.16,526.57,211ZM482,692.05a13.9,13.9,0,0,0,.47-2.92c-2-11.3-4.06-22.59-6.23-34.58-1.81,1.81-4.15,3-3.68,5.19C474.86,670.34,477.42,680.89,482,692.05ZM380.61,363.91c8.1-5.9,9.06-15.62,2.85-22C382.54,349.08,381.62,356.15,380.61,363.91Zm-65.82-146c-.07,10.35,1.16,11.69,10.95,11.88C321.48,222.08,319.59,220,314.79,217.87Zm45.74,193.42c1-3.1,2-5.24.57-7.31-.59-.85-1.66.15-2.28.81C356.54,407.2,358.59,408.76,360.53,411.29ZM208.87,496.42l-.92-1.28c-.22.26-.61.51-.63.79a3.93,3.93,0,0,0,.32,1.23Zm432.52,242c.26.22.48.42.72.61.42.34.75.23.75-.31,0-.25-.29-.69-.49-.71S641.78,738.21,641.39,738.39ZM40.68,608l-.68.37c.12.11.26.33.35.31a2.85,2.85,0,0,0,.71-.33ZM768.07,824.18l.37-.37a3.17,3.17,0,0,0-.68-.36c-.08,0-.23.21-.34.33Z"/><path class="cls-2" d="M256.56,436.8c-2.9-.21-3.83,2-5.09,3.43-18.49,20.65-36.86,41.41-54.07,63.14-3.24,4.09-5.84,4.86-10.78,3.25-14.33-4.69-20.83-15.49-24.36-29-.67-2.54.48-4.15,2.12-6,7.31-8.28,15.52-15.63,23.55-23.16,17.72-16.64,35.69-33,53.56-49.47,1.45-1.33,2.47-3.38,4.69-.33,13.5,18.59,33,25.22,54.83,26.57,9.4.58,9.43.24,12.75,9.39,2,5.52,3.73,11.15,6.05,16.52,2.59,6,6.09,11.55,12.65,13.9,2.42.87,2.62,2.35,2.68,4.3.57,18,1.1,36.06,1.75,54.09.13,3.65-.91,5.45-4.94,5.89-6.21.67-12.34,2.07-18.64,1.63-3.69-.26-5.1-1.41-3.75-5.67,4.94-15.72,10-31.44,12.62-47.78a52.63,52.63,0,0,0,.59-12.92c-1.9,1.48-2,3.34-2.28,5-3.45,24-11.51,46.7-18.18,69.81-12.83,44.44-28.77,87.83-44.69,131.21-1.83,5-4.14,9.8-5.68,14.86-1.35,4.48-4,5.74-8.4,5.62-14.63-.4-28.46-4.36-42-9.23-17.57-6.3-32.57-16.84-46.35-29.22a37.52,37.52,0,0,1-3.48-3.76c-4.85-5.78-6.24-11.07-2.23-18.83,24.23-46.78,45.6-94.94,66.91-143.11a27.82,27.82,0,0,1,4.56-7.11q16.86-19.31,33.56-38.74C255.41,440,256.84,439.09,256.56,436.8Z"/><path class="cls-3" d="M362.84,781.26c2.19-1.37,3.89-1.25,5.9.81,22.13,22.73,46.43,43.16,69.19,65.24,12.09,11.72,25.74,21.82,38.5,32.87,7.59,6.58,14.79,13.62,22.23,20.39,1.84,1.67,2.07,3.28,1,5.53a43.63,43.63,0,0,1-17.31,19.09c-3.37,2-5.47-.45-7.53-2.12-14-11.3-28.51-22.08-41.53-34.56-12.5-12-26.66-21.93-39.7-33.23-6.16-5.35-12.51-10.5-18.4-16.12-15.36-14.66-32.05-28-45-45.09-6.74-8.9-7.22-16.28-1-25.63,8.24-12.29,17.2-24.06,26.33-35.71,24.76-31.56,52.44-60.46,80.05-89.48,10.3-10.82,20.28-22,30.21-33.27,2.86-3.24,3.28-6.67,2.68-10.55-1.26-8.09-1.19-8.4,6.36-6.63,21.7,5.08,43.2,2.35,64.63-1.53,3.76-.68,5.44-.21,7,3.19,19.48,41.87,45.29,79.94,73.5,116.11,14.3,18.33,23.18,39.09,34.06,58.92,18.43,33.61,34.92,68.28,53.62,101.75,13.42,24,27.66,47.57,41.62,71.27,4.22,7.18,3.65,10.27-3.48,14.8a35.45,35.45,0,0,1-13.83,4.9c-5.48.85-9.4-.43-12.65-5.92-10-17-18.93-34.63-28.74-51.75C671.71,871.44,653,838.2,634,805.15c-33.41-58-68.8-114.89-104.93-171.27-2-3.08-3.89-5.74-8.06-6.32-9.93-1.38-19.79-3.26-29.7-4.8a14.76,14.76,0,0,0-6,.48c2.87,2.58,6.41,2.56,10.19,3-2.6,5.9-7.5,9.71-11.37,14.18Q458,670.56,431,699.84q-34.25,36.9-66,76c-1.21,1.48-2.5,2.88-2.6,4.93-.34.31-.84.61-.18,1.05C362.24,781.86,362.61,781.46,362.84,781.26Z"/><path class="cls-4" d="M197.43,698.92c-6.86-4.31-14.36-4.3-21.55-5.61-2.69-.5-3.45,1.89-4.33,3.75-13.26,27.77-28.31,54.61-42.85,81.7-9.51,17.73-19.5,35.23-28.07,53.42-11.18,23.72-24.09,46.53-35.78,70-4.63,9.3-7.22,10-16.42,5.19-15.33-8-16.41-9.91-9.46-25.55q21.86-49.14,44.57-97.91C103.87,740,124.48,696.2,145,652.39c.82-1.75.93-5.15,4.32-1.6,18.52,19.41,40.89,32.28,66.85,39.07,4.63,1.21,11.6.2,13.27,4.3,1.44,3.53-3.6,8.24-5.84,12.38C195.25,759,168.29,812.16,142,865.69c-6.94,14.13-13.7,28.35-20.75,42.43-2.6,5.19-5.56,6.77-11.09,4.6-4.79-1.87-9.53-3.59-13.83-6.52-3.42-2.33-4.1-4.75-2.36-8.55,6.71-14.66,13.15-29.45,19.76-44.15,15.88-35.31,32.12-70.45,49.18-105.2,7.11-14.48,14-29.07,20.53-43.82,2.06-4.65,4-7.43,9.49-5.63C194.31,699.3,195.94,698.92,197.43,698.92Z"/><path class="cls-5" d="M559.94,76.43c0,4.66-3,8.1-5.55,11.34-5.46,6.81-8.85,14.49-11.6,22.64-1.94,5.73-4.36,11.3-6.61,16.93-.93,2.33-1.21,4.12,1.71,5.5,9.56,4.52,18,11.39,29.36,13.43-2.92,4.59-6.87,7.49-10.83,10.2-7.15,4.89-12.88,11.14-18.36,17.75-1.8,2.18-2.06,3.59,0,5.69a45.9,45.9,0,0,1,8.59,12.66c3,6.1,8.82,9.15,14.88,13.22-9,2.35-15.17,7.79-22.22,11.7-2.25,1.24-4,2.1-4.74-1.68a8.89,8.89,0,0,0-3.11-5.27c-8.66-5.89-6.36-14.67-4.39-21.79,3.52-12.72,3.7-24.28-4.47-35.11-1.48-2-1.73-4.18-2.28-6.35-1.74-6.79-3.24-13.65-5.08-20.41-1.17-4.34-2.68-8.36-1.15-13.15a8.88,8.88,0,0,0-3.89-10c-20.39-13.5-41.86-24.16-67.15-16.59-25.95,7.76-40.84,26.51-47.35,52.2-4.07,16.06-2.14,32.51-1.8,48.8a160.6,160.6,0,0,0,2.26,21.51c.49,3.08-.11,4.59-2.67,6.46-9.16,6.71-10.75,22.11-3.51,30.53,2.18,2.53,4.81,4.87,8.09,4.84,4.66-.05,5.5,2.61,6.23,6.21a72.89,72.89,0,0,0,6.8,19.24c1.53,2.93,1.15,4.35-2,5.29-2.86.84-5.64,2-8.78,3.11,0-7-.09-13.47,0-19.89.07-3.59-1.09-4.52-4.78-3.78-7.87,1.56-15.86.29-24.54.63,2.06-6.26,4-11.95,5.78-17.67.81-2.53,1.38-5.12,2.16-7.66,1.17-3.79.29-5.49-4.12-5.66-9.48-.37-18.94-1.31-28.41-1.93-1.6-.11-2.73-.28-3.62-2-1.1-2.1-.06-3.13,1.2-4.37,8-7.83,16-15.71,24-23.49,3.13-3,3.76-4.79-1.44-6.23A43.65,43.65,0,0,1,347.8,182c-6.28-6.11-13.77-10.7-20.94-15.67l-5.35-3.65a131.19,131.19,0,0,1,25.31-6.32c9.59-1.47,18-5.81,26.67-9.52,2.78-1.18,2.61-2.75.7-4.73-10.43-10.87-17.64-24.24-27.62-35.49-4.41-5-7.2-11-10.34-17.84,20.43,3.17,40.38,1.14,60.17,2.9,4.6.41,5.79-.7,6.07-5.25,1.25-20.39-1.57-40.59-2.31-60.88-.22-6.08-3-11.95-3.23-19.12,10.95,9.72,23.36,16,33.28,25.94,8.5,8.53,19.22,14.69,26.5,24.76,6.76,9.36,6.93,9,15,.83,13.77-13.88,24.75-29.72,34.09-47.4A50.52,50.52,0,0,1,516.46,38.7c1.07,14-1.77,27.58-4.77,41.1-.85,3.81-.28,5.12,3.54,4.24,14.74-3.43,30.34-1.84,44.68-7.66Z"/><path class="cls-6" d="M496.32,304c-1.34,2.41.76,3.85,1.71,5.5,4.16,7.22,8.39,14.41,12.75,21.51,1.53,2.51,1.9,4.48-.1,7.07-4.17,5.4-9.93,10.92-10.47,17.27s6.07,11.74,9.87,17.24c4.55,6.58,4.21,13.16,3.38,20.55-2.4,21.12-4.1,42.32-6.11,63.48-.15,1.64.27,3.4-1.19,5.37-5-10.94-7.78-22.12-10.05-33.48C488.22,389,486,349.11,486.15,309c0-1.81,0-3.33,2-4.17,13-5.38,23.58-13.6,29.83-27.17C537.6,296,548.21,318,550.82,343.91c2.56,25.5-.36,50.87-2.82,76.15-3.33,34.37-8,68.6-14.3,102.58-1.25,6.71-2.42,13.46-4.9,19.84-4.14,10.66-10.36,13.72-21.55,10.91-12.58-3.17-24-9.15-35.76-14.43-27.1-12.2-54.13-24.58-81.36-36.47-5.32-2.32-6.45-5.37-5.65-10.47A36.11,36.11,0,0,1,394,473c3.41-3.73,7.32-4.67,12.15-1.9,28.93,16.62,59.18,30.64,89.25,45,6.42,3.07,12.83,6.37,20.42,7.4-1.08-2.55-3.16-3.3-5-3.76-5.64-1.42-6.25-5-5.53-10.07,5.08-35.93,5.9-72.27,10.09-108.29,1.52-13,2.72-26.05,4.07-39.08a44.71,44.71,0,0,0-.14-13.54c-3.74,9.21-2.37,17.59-4.41,26.06-3.94-5.91-7.7-11.61-11.52-17.26-1.28-1.9,0-3.31.87-4.66,3.16-4.95,6.47-9.81,9.73-14.7,1-1.57,2.43-3,1.17-5.14-5.94-9.86-10.46-20.65-18.91-28.86l-.87-.24.2.47Z"/><path class="cls-6" d="M763.56,822.58c-12.08-5.89-24.68-10.78-35.9-18.29-18-12-37.15-22.46-52.84-37.51a532.38,532.38,0,0,1-59.38-67.45q-24.95-33.68-46.52-69.47c-14.9-24.86-27.22-51.13-38.1-78-.61-1.53-1.49-3-.67-4.87,6.58-15,7.48-31.26,10.4-47.07,4.23-23,6.64-46.2,9.32-69.39.15-1.29.1-2.68,1.53-3.93,3.73,13.46,7.57,26.68,11,40,7.11,27.38,16.7,54,27.49,80,12.62,30.43,24,61.37,37.19,91.55C651,692.57,681.21,742.89,723,785.66c12.92,13.21,27.17,24.86,42.06,35.75Z"/><path class="cls-7" d="M517,147.35c-18.43-7.16-33.68-4-41.89,8.06-7.7,11.34-6.92,31.15,1.58,40,11,11.44,27.16,11.46,45.79,0,1.48,1.14.77,2.78.78,4.15a435.79,435.79,0,0,1-4.1,62.41c-3.41,25.35-22.86,40.84-47.68,43.48-8,.85-15.85,1.2-23.77-.73C434.25,301.45,424.13,294,417.17,282c-7.06-12.21-10.32-25.54-12.84-39.22-5.59-30.34-8.93-60.82-7.5-91.74,1.19-25.64,21.29-53.23,44.34-60.29,13.27-4.06,29-3.7,40.63,1.11-.71.2-1.09.43-1.43.38-19.59-2.7-35.57,5.41-50.27,17a144.4,144.4,0,0,0-19.68,18.12c-3.3,3.77-8.08,8.62-3.74,13.38,4.53,5,9-.62,12.7-3.29,8.76-6.35,17.1-13.26,25.73-19.79,17.65-13.38,44.22-12,63.08.8a4.58,4.58,0,0,1,1.79,2C512.86,129.05,515.57,137.67,517,147.35Zm-41.49-2.58c6.84-6.94,14.66-11.06,24.93-8.1-8.87-6.23-22.85-1.3-24.84,8.22l-.79,0,.22.7Zm7.06,61.38-.79-.65c0,.47-.07.94-.1,1.4,5.08,7.06,12.43,8.84,20.45,8.16,3.72-.31,7.82-1.14,9.44-5.6a26.32,26.32,0,0,1-17,2.67C489.86,211.33,486.68,207.9,482.57,206.15Zm-67.3,5.73-1.27-.62.26,1.38c7.11,9.68,31.35,9.25,38.81-1.65C439.68,218.9,427.4,219.84,415.27,211.88Zm17.62-69.58c-16.93-.15-30.45,14.39-30.67,33s12.43,33.09,29.68,32.81c18.12-.29,34.64-7.75,34.18-33.4C465.78,157.33,450.77,142.45,432.89,142.3Zm73.6,121.28c-16.84-9.92-68.49-8.91-80.42,2.16,1.73.69,3.36,0,4.86-.42,7-2.15,14.22-5.37,18.88,3.92a1.84,1.84,0,0,0,.9.67c4.83,2.1,7.69,5.62,9.13,10.81.87,3.14,2.61,7,6.93,6.24s4.82-4.56,4.79-8c0-5-.56-9.93,5.41-12.3a3.61,3.61,0,0,0,1.63-2.84c-.11-4.7,2.85-3.86,5.7-3.44C491.18,261.35,497.92,263.43,506.49,263.58Zm-45.11-54.82c-3.15,7.31-1.39,13.45-.15,19.51.83,4,2.37,7.92,7.53,7.8,5-.1,6.82-4,7.73-7.88a64.44,64.44,0,0,0,.81-24.33c-.3-2-.27-4.57-3.16-6.08.12,2.78.1,5.23.36,7.64a76.38,76.38,0,0,1-.71,21c-.48,2.87-1.43,6.51-5.26,6.46-3.66-.05-3.69-3.61-4.56-6.28C462.21,221.14,463.71,215.24,461.38,208.76Zm-28.57,62.93c-5.45.14-11.54,3.48-14.38-2.21-2.55-5.11,3.58-7.19,7.15-11.09-5.81,1-8.63,3.89-10,8.26a5.38,5.38,0,0,0,2.47,6.4C422.89,275.89,427.68,275.54,432.81,271.69ZM501.35,273c5.59,1.1,9.19-.1,11.7-3.7,2.2-3.15,1.56-6.52-.24-9.66a9.4,9.4,0,0,0-9.25-4.93c3.8,2.82,8.63,4.63,8.44,10.51C511.8,271.27,505.89,270.18,501.35,273Zm-17.64,15.57c.06-2.79-2.6-5.75-5.21-5.74-2.31,0-3.69,1.34-3.49,3.52.28,3,1.6,5.52,5.15,5.66C482.42,292.06,483.64,290.82,483.71,288.53Zm-45.58-152c8.18.33,15,3.73,20.8,9.48C455.12,137.69,446.94,134,438.13,136.52Zm9,146.86c.59,2.25,1,5,4.11,5,2.42.06,2.9-2,2.93-4,0-2.56-1.16-4.49-3.72-4.81C448.07,279.36,447.32,281.22,447.1,283.38Z"/><path class="cls-8" d="M533.12,816.35c-24.07-45.17-42.47-91.86-50.67-142.18a146.83,146.83,0,0,0-2.79-15.09c-1.4-5.14-.37-9,3.45-12.77a84.24,84.24,0,0,0,10.83-12.45c4.05-5.91,9-6.05,15.53-5.43,10.48,1,16.56,6,22.08,14.82,21.6,34.36,43.07,68.8,63.85,103.67,7.35,12.34,15.59,24.16,23.12,37.56C584.1,780.11,554.41,786.81,533.12,816.35Z"/><path class="cls-9" d="M501.54,515.71c-16.41-7.92-32.23-15.6-48.1-23.18-2.33-1.11-2.53-3-2.88-5.09C441,429.88,443,372,445.82,314.13c.22-4.5.78-6.65,6.46-5.52,8.61,1.7,17.48.75,26-1.25,4.3-1,5.16,0,5.15,4.09,0,18.42-.68,36.9,1.26,55.23,3.41,32.22,5.61,64.76,18,95.24,4.71,11.62,2.69,23.08,1.29,34.7C503.24,502.65,502.44,508.67,501.54,515.71Z"/><path class="cls-6" d="M225.23,201.28c-6.15-9.72-12.77-18.39-17.45-28-8.77-18-19.68-35-25.51-54.4-3.72-12.36,3.71-22,16.73-20.58,6.31.7,12,3.13,17.47,6.38,14.69,8.78,28.33,19,41.91,29.36,17.07,13,34,26.07,50.69,39.55,13.86,11.23,27.7,22.45,42.2,32.83a33.09,33.09,0,0,1,2.93,2.64l-13.65,12.71c-4.28-6.26-8.22-12.66-13.7-17.85a2.8,2.8,0,0,1-1-1.94c.89-8-4.7-10.49-10.66-12.5-11.52-3.87-23.47-6.07-35.4-8.17-4.36-.76-7.13-2.77-8.29-6.55-1.37-4.43-4.09-7.68-7.35-10.58-14.34-12.77-26.91-27.31-40.65-40.67-1.53-1.48-2.7-3.93-6.13-2,15.8,16,30.82,32.44,47.8,47.87C245.25,171.92,230.41,180,225.23,201.28Z"/><path class="cls-10" d="M442.4,474.94c-2.68-10.53-5.8-20.83-8.28-31.31-3.66-15.48-8.42-30.7-11.39-46.36a12.46,12.46,0,0,1,1.07-8.09c3.49-7.77,8.17-15,11.11-23,1-2.76.71-4.43-1.38-6.46-5.92-5.7-10-12.83-14.79-19.45-1.28-1.77-1.73-3.32-.51-5.66,4.73-9.06,9-18.35,13.66-27.47.83-1.63,1-5.39,4.43-3,2.64,1.8,7.51.31,7.11,6.66-3.07,49.12-5.28,98.28.23,147.38,1.15,10.3,3.1,20.51,3.93,31.3-5.38-1.76-9.67-4.54-14.19-6.84-2.06-1.05-2.09-3-2.67-4.72-5-15.19-7.22-31-10-46.64-4.95-27.52-5.65-55.52-10.14-83.06-2.23-13.7-4.31-27.38-3.44-41.33.16-2.6-.69-5-2.16-8.31-1.94,4.68-.13,8.73-1.32,12.78-11.47-9.09-21.06-19.58-31.69-28.93-1.29-1.13-1.45-2.62-1.84-4a57.8,57.8,0,0,0-14.78-25.89c-5.59-5.53-8.84-11.53-9.64-19.88,9.74-.42,19.38,1.47,29.08,1.89,2.47.1,1.32,2.24.9,3.54-2.35,7.2-4.61,14.44-7.23,21.54-1.46,4-1.26,6,3.69,5.77,7.39-.37,14.83,1,22.18-.45,2.9-.57,3,.95,3.24,3.06.55,5.73-.37,11.39-.79,17.06-.27,3.6.94,4.46,4.15,3.34,4.46-1.56,9.41-5,13.24-4,3.47.87,5.73,6.57,8.55,10.13a16.21,16.21,0,0,0,1.6,1.61c6.72,6.39,6.65,6.36,2.54,14.56-4,8-7.72,16.05-11.81,24a4.85,4.85,0,0,0,.32,5.69c4.77,6.85,9,14.11,14.94,20,2.32,2.33,2.45,4.27,1.11,7-3.63,7.29-7,14.69-10.73,21.94a11.15,11.15,0,0,0-.94,7.66c4.41,21.94,10.9,43.36,16.19,65.09A28.78,28.78,0,0,0,442.4,474.94Z"/><path class="cls-11" d="M286.23,279.37c.29,1.27,1.5,3.58-1.47,2.05s-6-3.19-9.44-3.65c-2.15-.28-2.08-2.07-1.75-3.52.58-2.51-1.58-6.12,2.35-7.36,16.66-5.25,33.42-8.46,50.52-1.76,3.57,1.39,6.14,2.88,2.57,7.07-1.54,1.81-2.26,4.33-3.35,6.53l-.86-.71c.33-1.95-.4-2.85-1.81-1.08-3,3.74-4.47,8-3.08,14.15,1-3.42,1.57-5.55,2.18-7.69l1.4,1c-.55,3.32-1.43,6.63-.41,11.08,2.37-6.46,3.61-12.35,6.23-17.73a36.47,36.47,0,0,1,5-8.25c.73-.83,1.8-2.07,2.82-1.32,1.3.94.6,2.28-.29,3.47a37.55,37.55,0,0,0-7.67,18.14,49.32,49.32,0,0,1-4.51,14.36c-6.16,13.55-3.32,24.51,7.55,34.23,3.18,2.85,5.23,6.92,8.06,10.2,3.23,3.75,6.78,7.26,11.55,9,1.81.68,4,3.09,5.46-.78.22-.58,2.43-.42,3.72-.59.29,2.58.92,5.18.75,7.74-.11,1.8-2,1.19-3.27,1-6.6-1-10.95-5.75-15.87-9.55-.88-.68-1.72-1.43-2.57-2.15-.17-.46-.25-1.12-.94-.71-.11.07.21.86.33,1.32,4.71,7.07,11.12,11.83,19.53,13.2,3,.49,3.74,1.54,3.7,4.25-.09,7.2-.19,14.41.09,21.6.18,4.49-3.07,6.64-5.42,9.47-1.46,1.76-2.06.08-2.94-.84-6.87-7.11-9.1-7.2-16.61-.21-1,1-1.28.67-2.1.15-8.82-5.63-10.27-5.35-16.73,3.16-.88,1.16-1.79,2.29-2.76,3.53-1.64-2.73-1.64-2.73,2.84-7.79-8,1.48-10.89-1.95-8.82-10.38.54-2.2,1-4.41,1.46-6.62.14-.37.28-.73.43-1.1-.7-.23-.69.3-.78.72-2.71,1.68-2.62,4.78-4.07,8.17-2.06-5.2-6.4-8.43-7.08-13.78,4.39-2.92,6-7.25,7.26-12.88-3.31,1.72-2.73,5.1-5.3,6-.62-4.23,2.35-7.57,2.86-11.6a46.2,46.2,0,0,0,.49-10.85c-2.86,4-1.93,8.31-3.11,12.06-1.31,4.18-2.44,8.36-5.61,11.61-.88.91-1.75,1.39-2.84.23-.74-.78-.35-1.29.26-1.79,7-5.68,6.82-14,7.8-21.79a48.18,48.18,0,0,1,1.91-9.38c3.73-11.1,1.81-21.29-5.38-30.45a17.18,17.18,0,0,1-2.64-4.91c-3.48-9.75-10.07-16.2-20.13-19.12-1.16-.34-4.05.6-3.3-2.41s3.05-1.49,4.64-1.12c6.51,1.48,10.14,7,14.85,11l.85.34-.11-.5-.8.3c1.76-4.74-3.83-6.09-4.62-9.75,4.25,1,4.31,1,8.52,9.12,2,3.84,3.67,7.82,6,11.46-2.72-9.39-4.11-19.62-15-24-.31-.54-.92-.93-1.26-.41C285,279.27,285.76,279.27,286.23,279.37Zm28.38,114.46c3.45-2.38,4.11-4.84,5.19-7,2.75-5.47,5.93-10.59,10.79-14.49,7.8-6.25,14.21-5.5,20.28,2.46,1.41-2.56-.15-4.3-1.67-6-3.5-3.81-10.39-4.64-15.83-1.65C323.26,372.76,318,381.82,314.61,393.83Zm6.92-51.09c1.84,1.57,3.64,3.21,5.55,4.71,2.15,1.69,3.45,3.79,2.15,6.39s-4.12,2.28-6.57,1.82c-2.92-.54-5.47-2.65-8.75-2.12,4,4.53,10.36,6.56,14.5,4.7,3.17-1.43,4.87-4,4.09-7.3C331.24,345.67,327.27,343,321.53,342.74Zm7,44.32c3.77-6.53,8.18-10.21,15.22-11.08C336.19,373.58,330.25,377.73,328.54,387.06Z"/><path class="cls-11" d="M356.4,703.19c-7.51-2.72-14.51-6.16-20.51-11.71-3.75-3.47-7.81-7.13-14.55-7.23,11.86,8,22.69,15.69,26.37,29.76-10.45-8.65-20.87-17.19-33.38-25,1,3.4,3,4.41,4.48,5.81,6.88,6.52,12.55,13.75,13.74,23.56.2,1.59,1.26,3.8-.74,4.58s-2.83-1.49-3.5-2.91c-4.86-10.29-13.66-16.52-22.85-22.36a19.58,19.58,0,0,0-12.4-3.32,4.56,4.56,0,0,0-4.1,2.6c-.91,1.91.23,3.31,1.45,4.51,2.58,2.53,5.28,4.92,7.85,7.45.74.73,2.05,1.48,1.26,2.79-.53.89-1.65.67-2.6.58-7-.67-17-9.88-18.47-16.84a5.78,5.78,0,0,1,1.91-5.61,18,18,0,0,1,11-5.48c4.14-.4,5.1-2,5.28-6,1.8-41.16,3.84-82.31,5.82-123.46.31-6.49,2.16-12.64,4.09-18.81.77-2.48,1.93-2.85,4.1-2.46a41.1,41.1,0,0,0,13.05,0c3.95-.56,5.28.2,4.8,4.56-2.3,21.12-4.3,42.28-6.4,63.42-2.38,24-3,48.12-4.19,72.19-.18,3.61,1.88,3.41,4.25,3.49,9.4.33,18.34,2.77,27.07,6,2.55,1,5.2,2,7.35,5.16-9.2-.84-16.92-4.17-25.32-5.07,8.91,6.06,19.4,9.75,26.14,18.63Z"/><path class="cls-11" d="M43.5,595.51c-11.26-6.69-23.09-7.18-34.84-11.22,12.2-3.5,23.11,0,34.7,1.81-3.26-8.59-10.08-13.74-15.52-20.62,4.65-.26,7.58,2,10.21,4.27,4.32,3.68,8.25,7.84,12.32,11.82a7.14,7.14,0,0,1,1.78,2.2c1.59,4,2.19,4.28,5.87.76,11-10.5,22.07-20.9,32.59-31.84,22.52-23.41,47.23-44.59,69.81-69.2A52.14,52.14,0,0,0,172,501.71c2,2-.07,2.92-1.19,3.94q-16.23,14.73-32.52,29.4-31,28.13-62,56.3c-3.21,2.93-7.69,6.07-8.37,9.71s4.8,6.35,7.47,9.53c3.39,4,6.75,8.07,9.5,13.34-5.2.05-8.5-3-12-5.16C56.81,608.7,61.12,608.3,44,620c-4.69,3.21-9.25,6.62-14,9.74-1.95,1.29-4,2.91-7.26,1.82,7-9.79,16.82-16.53,24.81-26.15-14.55-1.32-26.86,5.69-40.31,6C17,602,30.25,600.45,43.5,595.51Z"/><path class="cls-7" d="M293.26,222.06c.45,5.9,2.48,10.09,2,14.55-.28,2.63-.3,5.38-1.13,7.84A6.89,6.89,0,0,1,283.51,248c-5.42-3.64-8.06-8.82-8-15.76,3.72.55,4.09,4.35,7.87,6.85-3.3-10.24-10.7-14.78-18.06-21.62,3.23,15.72,4.38,29.87,5.48,44a96.24,96.24,0,0,1-.55,17.06,16.13,16.13,0,0,1-2,5.88c-.95,1.81-2.11,3.27-4.34,3-2.46-.3-2.59-2.36-2.89-4.27-1.24-7.95-.42-15.94-.53-23.91A221.42,221.42,0,0,0,257.78,227a11,11,0,0,0-3.13-6.52c-13.2-12.56-7.5-27.18,8.17-34.25a29.42,29.42,0,0,1,19.49-1.87c10.85,2.67,22,4.1,32.58,7.95,6,2.19,5.84,2.25,6,8.91,0,1.26,2.07,2.51,3.24,3.71,15.22,15.49,23.35,33.88,22.59,55.8-.13,3.63.29,9.3-3.8,9.57-3.7.24-3.45-5.48-4.28-8.83-3.26-13-5.1-26.5-13.34-37.79A33.72,33.72,0,0,0,314.93,214c-3.07-1.79-4.24-1-3.6,2.42a79.41,79.41,0,0,1,1,18.73c-.2,4.19-.82,8.27-6.12,8.68-4,.31-8.22-4.31-8.45-8.91C297.57,230.75,297.58,226.48,293.26,222.06Zm10.64-25.35c-.43-.1-1.14-.39-1.23-.26-.4.58.14.74.6.87l1,1.3c2.42,3.34,2.94,7.25,3.25,11.23,2.86-4.92,1.36-8.92-2.48-12.43Zm-15.52-.21c3.45,4.74,5.1,8.65,1.85,13.65C296.44,206.11,295.84,200.76,288.38,196.5Zm-22.91,4.65c1.66,4.7,1.49,8.79,0,13.8C270,209.29,270,205.79,265.47,201.15Z"/><path class="cls-7" d="M324.13,408.64c-.42,3.08-.8,5.82-1.24,9.06-4.25-2.82-6.7-5-3-10,7.69-10.27,11.54-10.09,17.5,1.48,2.27,4.42,3.44,9.56,8.49,12.4-1.83-4.07-3.37-8.3-5.56-12.17s-1.34-7,2.05-9.26c3.79-2.58,6.91-.82,9.3,2.4,3.38,4.55,5.38,10.07,9.72,14,.55.5,1.13,1,2.6,2.21-2.77-7.06,1.14-12.56,1.23-18.61.24-15,.29-30-1.29-44.94-.19-1.84-1.38-4.64,1.46-5.38,2.3-.6,3.69,1.62,4.86,3.33,3.81,5.56,4.17,12.09,4.88,18.48,1.48,13.26-2,26-3.86,39-1,6.75-1.27,13.6-1.77,20.41a12.22,12.22,0,0,0,2.1,8c.23-4,.23-7,.62-9.88.31-2.37-.72-5.91,3.54-5.81,4,.1,8.17.4,9.68,5.22a7.53,7.53,0,0,1-.64,6.07,51.28,51.28,0,0,1-16.35,17.66c2.47,3.12,6.28,4.55,9.7,6.56-6.76,5.33-7.79,6.71-11.54,15.48a62.84,62.84,0,0,0-30.46-11.57c-5.43-.62-9-4.54-11.76-9.08a21.9,21.9,0,0,1-2.51-5.06c-7.21-25-22.61-45.77-35.1-68-1.29-2.3-2.26-4.78-3.32-7.2a2.56,2.56,0,0,1,.65-3.12c1.05-.91,2.14-.3,3.15.2,3,1.47,5.1,3.9,7.19,6.37,7.94,9.39,13,20.44,18.07,31.48,1.59,3.46,3.17,6.92,5.88,9.66,1.43,1.44,3,3.41,5.31,2.37s2.45-3.63,2.3-5.95A9.19,9.19,0,0,0,324.13,408.64Z"/><path class="cls-12" d="M741.72,983.48c7,5.65,14.42,4.59,21.95,1.54,1.18-.48,2.68-1.24,3.14-2.27,3.28-7.32,6.8-3,10-.18,15.1,13.54,30,27.3,44.09,41.9,4.71,4.88,8.7,10.46,12.92,15.79,1.12,1.41,2.77,2.87,1.56,5s-3.07,2.48-5.31,2.59c-12.36.6-24.6-.78-36.73-2.71-10.42-1.67-20.68-4.38-31-6.47-7.76-1.57-14.63-5-21.26-9.19-1.67-1-3.08-2.23-3.17-4.39a195.13,195.13,0,0,1,2.9-40.09C740.81,984.55,741.31,984.11,741.72,983.48Z"/><path class="cls-11" d="M257.58,290.31a33.06,33.06,0,0,0-5.16,22.8,8.4,8.4,0,0,1-.31,3.9c-7.06,18.31,11.92,45.94,24,52.6a11,11,0,0,0,2.05,1c2,.6,3.09,2.19,2.34,3.85-.81,1.83-2.67.54-4,.05A44.94,44.94,0,0,1,258,360.83c-.95-1.13-1.62-2.61-3.26-3.06-1.17,1.49.14,2.48.84,3.43,5.56,7.55,12.69,13.29,21.69,15.81a12.75,12.75,0,0,1,8.39,6.64c7.26,12.61,14.74,25.09,22.66,38.52-23.24.23-42.95-5.53-58.25-23-4.45-5.08,2.56-4.8,3.15-8.16-9.9,3-20.39,5.4-25.63-6.12-4.35-9.55,1.43-16.57,10-22-3.86.27-5.59-1.07-6.06-4.7-2.37-18.31-1.83-36.3,4.68-53.85,3.7-10,12.57-21.33,21.07-26.09,1.48,2.82.2,4.74-1.58,6.95-7.09,8.81-10.71,18.69-8.24,30.16a11.76,11.76,0,0,0,.76,2.13,15.16,15.16,0,0,0,1.69,2c-.93-11.49-.47-21.68,6.32-30.27Zm-12.5,41.6a3.3,3.3,0,0,0,.39.26c.06,0,.16,0,.24-.06L245,332c-.94-10.21-2.18-20.42-.3-30.64C241.4,311.59,239.33,321.78,245.08,331.91Zm30.59,47.33c-5.9-1.45-10.81-5-16.24-7.5C263.71,376.67,268.69,380.12,275.67,379.24Zm-21.55-22.76-.29-.41c-.13.11-.34.21-.36.33s.17.28.27.41Z"/><path class="cls-12" d="M464.46,987.41c-9.11,0-18.23,0-27.35,0-2.15,0-4.85.78-5.81-2.2s1.2-4.71,3.18-6.08c4.5-3.13,9.19-6,13.83-8.91,16.17-10.17,32.4-20.26,48.5-30.53,2.68-1.71,4.47-2.07,7.48-.22,9.14,5.6,20.54,4.93,28-1.93,3.14-2.89,3.85-1.72,4.86,1a116.42,116.42,0,0,1,6.71,26.32c.44,3.75,1.42,7.41,1.23,11.27-.24,5-2.35,7.6-7.51,7.89-11.32.63-22.67,1.18-33.94,2.31C490.6,987.66,477.53,987.21,464.46,987.41Z"/><path class="cls-13" d="M257.77,258.25a21.54,21.54,0,0,0,0,2.84c1.43,8.46-1.82,14-8.7,19.51-13.5,10.89-18.63,26.64-21,43.44-1.8,12.55-1.07,24.92,1.09,37.31a7.93,7.93,0,0,1-.14,3.88c-1.49,4.11-3.43,4.43-6,.87-11.87-16.57-18.6-34.49-15.14-55.37,1.38-8.34-.81-17.76,4.39-24.89,9.52-13,13-30.76,29.5-38.56,4-1.9,6.86-5.92,11-8,2.53-1.28,3.5-1.18,4.07,2C257.86,247.08,257.6,252.94,257.77,258.25Z"/><path class="cls-6" d="M473.06,175.25c.33-18.09,11-29.73,26.9-29.27,15.44.44,26.9,12.56,26.82,28-.09,18.86-13.46,26.95-27.91,26.93C482.18,200.92,472.76,191.27,473.06,175.25Zm18.29,7.06c1.17-1.74,3.67-1.66,4.37-4.25a2.33,2.33,0,0,0-2.52-3.17c-1.37.56-3.91-.47-4.11,2.54C489,179.56,489.79,180.84,491.35,182.31Z"/><path class="cls-14" d="M50.44,987.46c-12.24,1.88-22.28-4.08-30.44-15-6.16-8.26-11-17.19-15.85-26.2a6.58,6.58,0,0,1,.11-7c4.36-7.1,8.57-14.29,14.52-20.28,2.31-2.32,3.35-2.54,5.23.52a19.29,19.29,0,0,0,15.25,9.65c3.24.27,2.82,2.52,3.26,4.23,2.72,10.63,4.95,21.37,8.26,31.86,1.42,4.52,3.54,8.28,7.24,11.19a10.3,10.3,0,0,1,2,2c1.72,2.39,5,4.72,3.46,7.78-1.27,2.56-4.85,1-7.39,1.28C54.82,987.6,53.47,987.46,50.44,987.46Z"/><path class="cls-10" d="M271.35,353.74c-15.09-5.59-23-27.39-14.35-39.67,7.76-11.05,19.46-15.22,29.55-10.54a27.18,27.18,0,0,1,15.19,32.09c-3.68,14.47-14.54,21.81-27.87,18.85.48-2.53-1.2-5.21.65-7.67.34-.45.07-1.34.07-2a3.35,3.35,0,0,1-4.36-.73,3,3,0,0,0-.41,2.64C270.19,349.07,272,351.13,271.35,353.74Zm18.84-22.15c1.9-.4,1.74-1.95,2-3.35.42-2.5-2-3-3-3-1.8,0-3.25,1.35-3.16,3.69C286.07,332,289.12,330,290.19,331.59Z"/><path class="cls-8" d="M767.6,827.9c-21.44-1.35-41.38-5.22-60.38-13.2-10.13-4.25-20.05-9-30-13.55-1.88-.86-3.67-1.76-4.74-3.82q-14.33-27.48-28.79-54.88c-.43-.82-.9-1.69.28-3.5C677.09,779.44,720,806.15,767.6,827.9Z"/><path class="cls-9" d="M466.36,569c-.77,1,1.46,2.8-.69,3.26-1.43.31-2.51-.62-2.67-2.25-1.14-11.29-4.82-22.16-5.72-34.3,5.67,2.61,10.88,5,16.07,7.42,10.28,4.81,20.53,9.71,31.49,12.85,8,2.3,15.79,2.94,22.42-4.49,2.78,6.56,5.22,12.61,7.91,18.55,1.05,2.33.86,3.34-1.85,3.74-4.09.61-8.14,1.5-12.51,2.33,0-3.07,2.36-5.26.51-9.47-1.69,11.69-9.64,10.06-17,10.08-6.27,0-12.51-.72-18.73-.71-8.07,0-12.09-4.21-14.61-11-.45-1.22-.63-2.57-2-3.22-1.32,3.08,1.46,5.85.63,8.9-1.53.15-1.54-2.2-3.14-1.88l-.48-.64-.37.29Z"/><path class="cls-10" d="M355,293c5.61.38,9.17,4.06,12.24,8.09,6,7.83,4.63,21.64-.8,30.12-3.05,4.75-6.74,6.45-11.46,7.64l-5.14-7.18c-1.82,3.91,1.53,5.53,2.44,8a23.31,23.31,0,0,1-9.94-.25c-.73-2.56,2.57-2.88,2.75-4.93.5-.38.64-.91.13-1.25-.2-.13-.78.33-1.19.52-2.21,1.19-2.2-2.27-4.15-2v6.76c-12.42-4.82-17.33-15.3-14.21-28.57,3-12.66,14.28-20.16,26.74-17.89-.32,3.21-1.11,6.74,4.37,6C357.21,296,355.37,294.72,355,293Zm-6.47,24.45c.33-2.64-1.81-2.55-3.3-2.9-3.05-.73-3.18,2-3.61,3.7-.65,2.61,2,1.86,3,2C346.38,320.36,348.31,319.82,348.52,317.41Z"/><path class="cls-14" d="M117.94,977.39c-10.32,2.12-17.29-3.14-23.81-10.21-7.2-7.81-14.8-15.27-22.42-22.68-3-2.93-3.36-5.59-.81-8.86,1.86-2.39,3.49-5,5.34-7.36,2-2.56,3.58-6,6.21-7.25,3.13-1.44,3.75,3.76,6.57,4.65,2.15.69,4.19,2.38,6.29,2.41,6.21.09,9.42,3.67,11.74,8.73,3.55,7.74,7.14,15.46,10.71,23.2.23.51.68,1.09.6,1.56-.68,3.64-.76,3.74,2.85,5.33a28.68,28.68,0,0,1,9.18,6.58c2.17,2.27,1.5,3.77-1.62,3.87C125.16,977.47,121.55,977.39,117.94,977.39Z"/><path class="cls-5" d="M511.78,112c0,3.8-1.25,4.93-4.68,2.72-14-9-29.31-10.71-45.37-7.72-7.84,1.46-14.47,5.51-20.69,10.25-8.29,6.34-16.41,12.89-24.74,19.18-2.15,1.63-5.17,4.58-7.4,2.45-2.6-2.49.11-5.82,2.06-8,12.72-14,26.51-26.92,44.65-33.39s35.46-3.23,51.57,7.12A9.88,9.88,0,0,1,511.78,112Z"/><path class="cls-13" d="M271.11,233.81c3.17,8,5.82,16.32,15.51,18,5.89,1,9.26-3.35,11.2-8.52,10.84,6,15.57,3.45,17-8.81.23-1.89.42-3.25,2.9-3.15,4.24.18,11.65,5.06,12.74,9.09,1.88,6.95,3.43,14,5.14,21,.31,1.28,1,2.58-.5,3.57-1.18.78-2.17,0-3.15-.51-17.39-9.39-35.28-6.63-53.09-1.81-4.25,1.14-5.29,1-5.44-3.77C273.17,250.53,271.94,242.18,271.11,233.81Z"/><path class="cls-10" d="M459.64,611.38c-7.21-27.49-14.15-54.73-19.39-82.5a7,7,0,0,1,1.25,0c9.49,2,13.28,7.72,14.44,17.57,2,17.09,5.62,34,9.07,50.9C466.22,603.32,465,607.59,459.64,611.38Z"/><path class="cls-10" d="M502.05,909a294,294,0,0,1,26.24,21.38c3.22,2.88,2.93,4.89-.76,6.66-6.64,3.18-13.63,4-20.1.27-6.31-3.68-12-8.37-18.43-12.91C494.73,920.16,498.39,914.73,502.05,909Z"/><path class="cls-10" d="M735.4,965.11c6.14-2.21,12.18-4,16.82-9,4.17,6.75,8.19,13.34,12.3,19.87,1.82,2.89.55,4.43-2,5.82-8.42,4.57-15.91,2.47-20.7-5.86C739.74,972.39,737.6,968.85,735.4,965.11Z"/><path class="cls-11" d="M374.39,350.16c-2.59.56-4.6-2.71-4.13-5.66,1.76-10.91,5.12-21.65,3.71-32.93-1-7.66-3.79-14.26-10.56-18.59a5.92,5.92,0,0,1-2.77-3.44,38.14,38.14,0,0,0-11.95-19c-.6-.53-1-1.12.21-2.94a40.56,40.56,0,0,1,11.69,15c1.32,2.71.73,6.51,5.83,7.06,2.49.27,3.79,4.84,5.28,7.71,9,17.46,8.9,36.16,7.44,55-.27,3.51-.56,7.15-2.55,11.2.09-4.54-3.48-7.93-.94-12a5.37,5.37,0,0,0,.26-5.82Zm1.27-23.11a190.49,190.49,0,0,1-3.72,20.82C376.56,341.5,376.81,334.36,375.66,327.05Z"/><path class="cls-15" d="M292.55,302.68c-15.17-6.95-27.47-4.83-37.5,8.13-.46-10.25,3.12-20,7.67-20.47,5.62-.56,10.58-6.13,16.93-1.76C284.71,292.08,289.5,295.6,292.55,302.68Z"/><path class="cls-2" d="M483.74,579.61c7.33,0,14.66.11,22-.05,2.76-.06,2.85,1.87,3.44,3.59,3.14,9.26,3.14,9.27-6.43,9.4-1.7,0-3.4.06-5.1,0C486,592.45,485.33,591.84,483.74,579.61Z"/><path class="cls-9" d="M271.71,180.93c-9.16,1.49-16.57,5.21-22.29,12-.36.43-1,1.17-1.23,1.08-4.07-1.75-5.15-6.12-7.88-9.07-1.75-1.9-.47-3,1-4.05a40.21,40.21,0,0,1,20.39-7.71C267.13,172.62,268.7,177.29,271.71,180.93Z"/><path class="cls-8" d="M236.38,186c8.91,6.18,9.24,15.44,9.16,25,0,2.46-1.29,2.25-2.74,2.37-9.17.77-14.73-5-13.63-14.18C229.8,194,232,190.12,236.38,186Z"/><path class="cls-15" d="M331.64,292.8c-.15-5.07,1.67-9.62,3.86-14,3.91-7.88,10.3-8.59,15.76-1.75,2.83,3.55,5.3,7.33,6.3,12.87-9.3-3.08-17.63-1-25.6,3.24Z"/><path class="cls-9" d="M395.48,467.57a32.15,32.15,0,0,0-10.28,12.85c-1.5,3.19-3.11,3.13-5.55,1.38-1.07-.77-2.26-1.38-3.4-2-6.45-3.76-7-5.13-4.16-10.26,4-7.23,9.2-9.52,14.71-6.51C389.43,464.42,392.1,465.79,395.48,467.57Z"/><path class="cls-15" d="M266,355.52c15.3,4.65,18.66,4.13,32.1-5,.82,4.83-.62,11.92-3.24,15.14-1.82,2.23-3.75,4.47-7,2a2.85,2.85,0,0,0-2.14-.55c-10.82,3.41-14.7-5.23-20-11.43Z"/><path class="cls-10" d="M34.67,902c2.2,1.58,4,3.48,6.22,4.33,6.43,2.49,6,6.17,2.48,10.8-.57.73-.74,1.78-1.35,2.46-1.85,2-1.52,6.9-5.45,5.92a15.64,15.64,0,0,1-10.34-8.16c-.89-1.75.52-2.83,1.25-4C29.72,909.59,32.1,906,34.67,902Z"/><path class="cls-15" d="M339,342.25c15.68,1.49,18.87.72,30.64-7.6-.94,5.31,0,10.71-6.29,12.91a3.76,3.76,0,0,0-1.53,1.62c-3.71,6-9.13,7-14.6,2.5C344,349.05,340.89,346.28,339,342.25Z"/><path class="cls-7" d="M397.18,217.67c1.58,9.83,2.95,19,4.59,28.11.46,2.52-.33,3-2.51,2.81a9.84,9.84,0,0,1-6-3C385.66,238.22,387.4,223.66,397.18,217.67Z"/><path class="cls-5" d="M545.45,244.86c-4.48.46-8.44,1.23-12.4,1.18-4.38-.06-4.75,1.93-3.65,5.29.11.36.29.7.4,1.06,2.66,8.05,2.66,8.05-6.94,8.56.51-5.25,1.22-10.47,1.46-15.71.16-3.39,3.67-3,4.8-5,3.89-6.63,7.54-4.65,11.42-.08C541.84,241.75,544.19,242.18,545.45,244.86Z"/><path class="cls-13" d="M350.54,251.6c9.39,10.08,15.72,20.61,18.2,34.18-3.74-1.44-5.25-3.78-6.63-6.46a37.83,37.83,0,0,0-10.92-13.6c-1.36-1-2.22-2-2-3.7C349.62,258.92,350,255.81,350.54,251.6Z"/><path class="cls-10" d="M106.77,915.1c-.94,1.69-1.75,3.16-2.59,4.62-4,6.92-8.32,7.7-14.54,2.68-2-1.61-3-3.27-1.19-5.64a15,15,0,0,0,1.14-1.94c3.42-6.37,3.39-6.33,9.9-2.93C101.76,913.07,104.19,914,106.77,915.1Z"/><path class="cls-7" d="M526.57,211c9.17,6.14,8.2,22-2,28.25C525.28,229.63,525.92,220.45,526.57,211Z"/><path class="cls-14" d="M482,692.05c-4.58-11.16-7.14-21.71-9.44-32.31-.47-2.18,1.87-3.38,3.68-5.19,2.17,12,4.22,23.28,6.23,34.58A13.9,13.9,0,0,1,482,692.05Z"/><path class="cls-11" d="M380.61,363.91c1-7.76,1.93-14.83,2.85-22C389.67,348.29,388.71,358,380.61,363.91Z"/><path class="cls-10" d="M314.79,217.87c4.8,2.16,6.69,4.21,10.95,11.88C316,229.56,314.72,228.22,314.79,217.87Z"/><path class="cls-12" d="M302.09,370.53c2.57-.87,2-4.25,5.3-6-1.27,5.63-2.87,10-7.26,12.88l-1.34-1.26,1.11-2.29-.06.07c1.91-.4,2.49-1.7,2.33-3.49Z"/><path class="cls-15" d="M271.35,353.74c.68-2.61-1.16-4.67-1.53-7.06a3,3,0,0,1,.41-2.64,3.35,3.35,0,0,0,4.36.73c0,.69.27,1.58-.07,2-1.85,2.46-.17,5.14-.65,7.67Z"/><path class="cls-15" d="M339.87,338.49v-6.76c1.95-.31,1.94,3.15,4.15,2l1.07.72c-.19,2.06-3.49,2.38-2.76,4.94Z"/><path class="cls-15" d="M352.27,339.6c-.91-2.44-4.26-4.06-2.44-8l5.14,7.18Z"/><path class="cls-15" d="M355,293c.38,1.76,2.22,3.07,1.78,5.11-5.48.7-4.69-2.83-4.37-6Z"/><path class="cls-11" d="M256.21,289.25c.6-1.15,1.13-3.31,2.63-2.21,1.79,1.3-.49,2.26-1.26,3.27Z"/><path class="cls-11" d="M302.17,370.47c.16,1.79-.42,3.09-2.33,3.49C298.91,371.66,299.88,370.62,302.17,370.47Z"/><path class="cls-11" d="M324.7,281c-.4,1.13-.8,2.27-1.21,3.4l-1.4-1c.47-1.07.94-2.15,1.42-3.22Z"/><path class="cls-11" d="M299.9,373.89l-1.11,2.29c-1-.1-1.9-.56-1.31-1.67C297.91,373.72,298.69,372.5,299.9,373.89Z"/><path class="cls-16" d="M208.87,496.42l-1.23.74a3.93,3.93,0,0,1-.32-1.23c0-.28.41-.53.63-.79Z"/><path class="cls-16" d="M37.43,580.86c.32.43,1,1.1.91,1.24-.67.95-1.54.47-2.36.12Z"/><path class="cls-11" d="M325.66,278.73l-1,2.28-1.19-.83L324.8,278Z"/><path class="cls-6" d="M765.08,821.41c.66.43,2.13.7,1.33,1.7s-2,.09-2.85-.53Z"/><path class="cls-8" d="M641.39,738.39c.39-.18.71-.45,1-.41s.48.46.49.71c0,.54-.33.65-.75.31C641.87,738.81,641.65,738.61,641.39,738.39Z"/><path class="cls-16" d="M40.68,608l.38.35a2.85,2.85,0,0,1-.71.33c-.09,0-.23-.2-.35-.31Z"/><path class="cls-15" d="M332,293.13l-.68.46.36-.79Z"/><path class="cls-11" d="M357.4,701.92l.45,1.28H356.4C356.74,702.77,357.07,702.34,357.4,701.92Z"/><path class="cls-16" d="M332.34,707.5c-.13-.6-.56-1.35-.35-1.77.45-.84,1.06-.29,1.52.22Z"/><path class="cls-16" d="M677.48,806.58c-.11-.45-.45-1.18-.3-1.3.63-.5,1.27-.18,1.81.33Z"/><path class="cls-15" d="M265.71,355.75c-.41-.12-1-.32-.54-.79s.82,0,.83.57Z"/><path class="cls-6" d="M768.07,824.18l-.65-.4c.11-.12.26-.35.34-.33a3.17,3.17,0,0,1,.68.36Z"/><path class="cls-6" d="M427.34,477.21c0,.48,0,1,0,1.45l-1.3-.45Z"/><path class="cls-5" d="M559.91,76.38l.67-.66.15.5-.79.21Z"/><path class="cls-1" d="M362.84,781.26c-.23.2-.6.6-.67.56-.66-.44-.16-.74.18-1.05Z"/><path class="cls-1" d="M496.32,304l-.76.41-.2-.47.87.24Z"/><path class="cls-1" d="M432.89,142.3c17.88.15,32.89,15,33.19,32.37.46,25.65-16.06,33.11-34.18,33.4-17.25.28-29.89-14.18-29.68-32.81S416,142.15,432.89,142.3Zm30.05,33.56c.34-16.36-13.41-30.37-30.15-30.73-14.55-.31-27.51,13.88-27.71,30.35s11.52,29.74,26.61,29.58C447.63,204.89,463.5,198.44,462.94,175.86Z"/><path class="cls-1" d="M506.49,263.58c-8.57-.15-15.31-2.23-22.19-3.23-2.85-.42-5.81-1.26-5.7,3.44a3.61,3.61,0,0,1-1.63,2.84c-6,2.37-5.45,7.3-5.41,12.3,0,3.47-.6,7.34-4.79,8s-6.06-3.1-6.93-6.24c-1.44-5.19-4.3-8.71-9.13-10.81a1.84,1.84,0,0,1-.9-.67c-4.66-9.29-11.84-6.07-18.88-3.92-1.5.46-3.13,1.11-4.86.42C438,254.67,489.65,253.66,506.49,263.58Zm-59.65-2.14c1.59,3.17,3.27,5.48,5.89,6.73a16.47,16.47,0,0,1,9.34,11.46c.53,2.06,1.48,5,4.2,4.63,3.18-.47,2.75-3.71,2.71-6.08-.07-5.21-.57-10.36,5.72-12.85a3.64,3.64,0,0,0,1.72-4.45c-.54-1.69-2.22-1-3.41-1C464.48,259.88,455.94,259.66,446.84,261.44Z"/><path class="cls-1" d="M461.38,208.76c2.33,6.48.83,12.38,2.59,17.82.87,2.67.9,6.23,4.56,6.28,3.83,0,4.78-3.59,5.26-6.46a76.38,76.38,0,0,0,.71-21c-.26-2.41-.24-4.86-.36-7.64,2.89,1.51,2.86,4.05,3.16,6.08a64.44,64.44,0,0,1-.81,24.33c-.91,3.85-2.76,7.78-7.73,7.88-5.16.12-6.7-3.79-7.53-7.8C460,222.21,458.23,216.07,461.38,208.76Z"/><path class="cls-1" d="M415.27,211.88c12.13,8,24.41,7,37.8-.89-7.46,10.9-31.7,11.33-38.81,1.65Z"/><path class="cls-12" d="M482.57,206.15c4.11,1.75,7.29,5.18,12,6a26.32,26.32,0,0,0,17-2.67c-1.62,4.46-5.72,5.29-9.44,5.6-8,.68-15.37-1.1-20.45-8.16Z"/><path class="cls-1" d="M432.81,271.69c-5.13,3.85-9.92,4.2-14.74,1.36a5.38,5.38,0,0,1-2.47-6.4c1.35-4.37,4.17-7.28,10-8.26-3.57,3.9-9.7,6-7.15,11.09C421.27,275.17,427.36,271.83,432.81,271.69Z"/><path class="cls-1" d="M501.35,273c4.54-2.78,10.45-1.69,10.65-7.78.19-5.88-4.64-7.69-8.44-10.51a9.4,9.4,0,0,1,9.25,4.93c1.8,3.14,2.44,6.51.24,9.66C510.54,272.86,506.94,274.06,501.35,273Z"/><path class="cls-1" d="M475.6,144.89c2-9.52,16-14.45,24.84-8.22-10.27-3-18.09,1.16-24.93,8.1Z"/><path class="cls-1" d="M483.71,288.53c-.07,2.29-1.29,3.53-3.55,3.44-3.55-.14-4.87-2.66-5.15-5.66-.2-2.18,1.18-3.5,3.49-3.52C481.11,282.78,483.77,285.74,483.71,288.53Z"/><path class="cls-1" d="M438.13,136.52c8.81-2.55,17,1.17,20.8,9.48C453.13,140.25,446.31,136.85,438.13,136.52Z"/><path class="cls-1" d="M447.1,283.38c.22-2.16,1-4,3.32-3.73,2.56.32,3.76,2.25,3.72,4.81,0,2-.51,4-2.93,4C448.08,288.35,447.69,285.63,447.1,283.38Z"/><path class="cls-12" d="M481.68,206.9c0-.46.07-.93.1-1.4.26.22.52.44.79.65Z"/><path class="cls-1" d="M475.51,144.77l-.48.79-.22-.7.79,0Z"/><path class="cls-1" d="M414.26,212.64l-.26-1.38,1.27.62Z"/><path class="cls-1" d="M314.61,393.83c3.37-12,8.65-21.07,18.76-26.63,5.44-3,12.33-2.16,15.83,1.65,1.52,1.66,3.08,3.4,1.67,6-6.07-8-12.48-8.71-20.28-2.46-4.86,3.9-8,9-10.79,14.49C318.72,389,318.06,391.45,314.61,393.83Z"/><path class="cls-1" d="M321.53,342.74c5.74.3,9.71,2.93,11,8.2.78,3.26-.92,5.87-4.09,7.3-4.14,1.86-10.53-.17-14.5-4.7,3.28-.53,5.83,1.58,8.75,2.12,2.45.46,5.18.92,6.57-1.82s0-4.7-2.15-6.39C325.17,346,323.37,344.31,321.53,342.74Z"/><path class="cls-1" d="M328.54,387.06c1.71-9.33,7.65-13.48,15.22-11.08C336.72,376.85,332.31,380.53,328.54,387.06Z"/><path class="cls-1" d="M324.8,278l-1.29,2.16c-.48,1.07-.95,2.15-1.42,3.22-.61,2.14-1.21,4.27-2.18,7.69-1.39-6.15.1-10.41,3.08-14.15C324.4,275.17,325.13,276.07,324.8,278Z"/><path class="cls-1" d="M286.23,279.37c-.47-.1-1.28-.1-.82-.8.34-.52.95-.13,1.26.41C286.52,279.11,286.37,279.23,286.23,279.37Z"/><path class="cls-1" d="M339.39,353.91c-.12-.46-.44-1.25-.33-1.32.69-.41.77.25.94.71Z"/><path class="cls-1" d="M291.83,292.11l.8-.3.11.5-.85-.34Z"/><path class="cls-1" d="M311.28,383.05c.09-.42.08-.95.78-.72-.15.37-.29.73-.43,1.1Z"/><path class="cls-12" d="M288.38,196.5c7.46,4.26,8.06,9.61,1.85,13.65C293.48,205.15,291.83,201.24,288.38,196.5Z"/><path class="cls-1" d="M305,197.42c3.84,3.51,5.34,7.51,2.48,12.43-.31-4-.83-7.89-3.25-11.23C304.51,198.22,304.77,197.82,305,197.42Z"/><path class="cls-1" d="M265.47,201.15c4.53,4.64,4.57,8.14,0,13.8C267,209.94,267.13,205.85,265.47,201.15Z"/><path class="cls-1" d="M304.25,198.62l-1-1.3c.22-.2.43-.4.63-.62l1.12.72C304.77,197.82,304.51,198.22,304.25,198.62Z"/><path class="cls-1" d="M303.27,197.32c-.46-.13-1-.29-.6-.87.09-.13.8.16,1.23.26C303.7,196.92,303.49,197.12,303.27,197.32Z"/><path class="cls-1" d="M245.07,331.92c-5.74-10.14-3.67-20.33-.39-30.53-1.88,10.22-.64,20.43.3,30.64Z"/><path class="cls-1" d="M275.67,379.24c-7,.88-12-2.57-16.24-7.5C264.86,374.2,269.77,377.79,275.67,379.24Z"/><path class="cls-1" d="M254.12,356.48l-.38.33c-.1-.13-.28-.28-.27-.41s.23-.22.36-.33Z"/><path class="cls-1" d="M245,332l.73.08c-.08,0-.18.08-.24.06s-.26-.17-.4-.25Z"/><path class="cls-1" d="M491.35,182.31c-1.56-1.47-2.4-2.75-2.26-4.88.2-3,2.74-2,4.11-2.54a2.33,2.33,0,0,1,2.52,3.17C495,180.65,492.52,180.57,491.35,182.31Z"/><path class="cls-1" d="M290.19,331.59c-1.07-1.64-4.12.44-4.23-2.68-.09-2.34,1.36-3.68,3.16-3.69,1.07,0,3.46.52,3,3C291.93,329.64,292.09,331.19,290.19,331.59Z"/><path class="cls-1" d="M466.36,569l-.67-.52.37-.29.48.64Z"/><path class="cls-12" d="M348.52,317.41c-.21,2.41-2.14,2.95-3.92,2.76-1-.1-3.64.65-3-2,.43-1.73.56-4.43,3.61-3.7C346.71,314.86,348.85,314.77,348.52,317.41Z"/><path class="cls-15" d="M344,333.69c.41-.19,1-.65,1.19-.52.51.34.37.87-.13,1.25Z"/><path class="cls-1" d="M375.66,327.05c1.15,7.31.9,14.45-3.72,20.82A190.49,190.49,0,0,0,375.66,327.05Z"/><path class="cls-1" d="M374.39,350.16l1.52-4.38a5.37,5.37,0,0,1-.26,5.82Z"/><path class="cls-6" d="M462.94,175.86c.56,22.58-15.31,29-31.25,29.2-15.09.16-26.81-13.22-26.61-29.58s13.16-30.66,27.71-30.35C449.53,145.49,463.28,159.5,462.94,175.86Zm-10.79,3.89c-.27-2.93-1.36-4.62-3.82-4.42a4,4,0,0,0-3.72,3.89c-.31,2.85,2.62,2.62,3.87,2.87S451.18,180.42,452.15,179.75Z"/><path class="cls-8" d="M446.84,261.44c9.1-1.78,17.64-1.56,26.17-1.58,1.19,0,2.87-.67,3.41,1a3.64,3.64,0,0,1-1.72,4.45c-6.29,2.49-5.79,7.64-5.72,12.85,0,2.37.47,5.61-2.71,6.08-2.72.41-3.67-2.57-4.2-4.63a16.47,16.47,0,0,0-9.34-11.46C450.11,266.92,448.43,264.61,446.84,261.44Z"/><path class="cls-1" d="M452.15,179.75c-1,.67-2.54,2.57-3.67,2.34s-4.18,0-3.87-2.87a4,4,0,0,1,3.72-3.89C450.79,175.13,451.88,176.82,452.15,179.75Z"/></g></g></svg>